<svg width="255" height="255" viewBox="0 0 255 255" fill="none" xmlns="http://www.w3.org/2000/svg">
<path fill-rule="evenodd" clip-rule="evenodd" d="M1.52588e-05 127.438C1.52588e-05 204.592 56.813 255 127.5 255C198.199 255 255 204.715 255 127.438C255 50.1619 198.078 0 127.5 0C56.813 0 1.52588e-05 50.2852 1.52588e-05 127.438Z" fill="#FBD850"/>
<path fill-rule="evenodd" clip-rule="evenodd" d="M1.52588e-05 127.438C1.52588e-05 204.592 56.813 255 127.5 255C198.199 255 255 204.715 255 127.438C255 50.1619 198.078 0 127.5 0C56.813 0 1.52588e-05 50.2852 1.52588e-05 127.438Z" fill="url(#paint0_radial)"/>
<path d="M111.069 98.0364C110.601 92.8825 114.348 88.1971 119.5 87.7285C124.652 87.26 129.18 91.0083 129.648 96.1622C130.117 101.316 126.369 106.001 121.217 106.47C116.065 107.095 111.538 103.19 111.069 98.0364ZM176.954 130.99C175.862 156.447 155.253 177.219 130.117 178C128.243 178 126.213 178 124.34 177.844C124.028 177.844 123.715 177.375 123.871 177.063L130.741 164.881C131.678 163.163 132.458 161.289 132.615 159.259C132.927 156.603 134.02 148.638 134.02 148.638C134.176 146.608 135.269 144.422 137.142 143.797L140.577 142.86C142.451 142.235 144.012 142.86 144.949 144.734C145.573 145.983 147.29 149.575 148.071 150.981C148.539 151.918 148.383 152.855 147.915 153.48C145.417 156.291 143.856 158.009 141.67 160.508C140.265 162.226 139.016 164.569 141.514 166.755C143.856 168.785 146.041 166.599 147.447 165.193C149.32 163.319 151.974 160.039 153.692 158.009C155.253 156.291 156.033 154.886 156.19 152.855C156.346 151.918 156.19 150.981 155.877 150.044C155.253 147.857 150.101 135.519 146.51 125.68C143.387 117.246 141.826 108.5 142.763 99.442L144.48 83.0432C144.48 82.887 144.792 82.7308 144.949 82.7308C164.308 89.7589 177.891 108.813 176.954 130.99ZM122.935 162.07C123.871 160.196 124.496 157.697 124.652 155.666C124.652 155.666 125.745 143.328 125.745 139.268C125.745 136.456 123.247 130.053 121.998 126.929C119.5 120.838 114.504 120.058 106.698 116.465C102.794 114.591 92.8024 110.999 92.8024 110.999C91.085 110.218 90.4605 108.344 91.085 106.47C91.8656 104.596 94.2075 103.815 96.081 104.44C101.389 106.314 106.385 108.5 115.597 112.092C121.53 114.435 124.184 112.873 128.243 110.687C131.053 109.125 134.02 108.032 134.644 102.878C135.113 99.7543 136.83 85.2297 137.298 81.0128C137.298 80.8567 137.142 80.7005 136.986 80.7005C134.176 80.232 131.366 79.9196 128.399 79.9196C101.702 79.9196 80 101.941 80 128.96C80.1561 151.45 95.1443 170.347 115.597 176.126C115.909 176.282 116.221 176.126 116.377 175.813L122.935 162.07ZM151.974 69.4556L144.012 73.6724C143.231 74.141 142.138 73.8286 141.826 72.8915L132.458 54.6186C131.99 53.8377 132.302 52.7445 133.239 52.4321L141.045 48.2153C141.826 47.7467 142.919 48.0591 143.231 48.9962L152.599 67.2691C153.067 68.05 152.755 69.1432 151.974 69.4556Z" fill="#2C2C2C"/>
<defs>
<radialGradient id="paint0_radial" cx="0" cy="0" r="1" gradientUnits="userSpaceOnUse" gradientTransform="translate(168.01 53.7291) rotate(0.654779) scale(298.514 302.566)">
<stop stop-color="#F2A228" stop-opacity="0"/>
<stop offset="1" stop-color="#EFA93F"/>
</radialGradient>
</defs>
</svg>
