<svg viewBox="0 0 82 83" fill="none" xmlns="http://www.w3.org/2000/svg">
<path d="M73.6595 15.6841C80.3808 24.9235 81.7482 34.9714 81.9568 39.0599C82.9303 58.8785 64.0032 80.9145 41.7217 81.9539C36.256 82.2089 31.3152 82.2311 26.7494 80.9145C21.7431 79.4593 13.3994 74.1235 7.83698 66.27L73.6595 15.6841Z" fill="#483F84"/>
<path d="M40.2604 0.323059C61.699 -2.40257 78.456 12.3805 77.6911 33.331C76.9031 54.3045 58.8946 73.4994 37.456 76.225C15.9941 78.9738 -0.739632 64.1907 0.0252074 43.2172C0.813223 22.2667 18.8217 3.04869 40.2604 0.323059Z" fill="#8064EC"/>
<path d="M39.6589 11.2953C55.1643 9.37815 67.2626 19.7263 66.7064 34.417C66.1502 49.0846 53.1247 62.528 37.6193 64.4452C22.114 66.3624 10.0156 56.0142 10.5718 41.3235C11.1281 26.6328 24.1535 13.1894 39.6589 11.2953Z" fill="#8064EC"/>
<path d="M35.3712 67.2169C28.0241 67.2169 21.9981 65.1611 17.803 61.165C13.1908 56.7763 10.9195 50.2394 11.2208 42.2473C11.8002 26.9329 24.9879 12.8428 40.6555 10.8563C48.8833 9.81687 56.184 11.711 61.2134 16.1921C66.1038 20.5808 68.6301 27.1408 68.491 35.2022C68.3519 42.5938 65.0608 50.3318 59.4752 56.4298C53.7968 62.5972 46.2643 66.4777 38.8013 67.0783C37.6193 67.1707 36.4836 67.2169 35.3712 67.2169ZM40.8409 12.2191C25.8223 14.1363 13.1676 27.6259 12.6114 42.2935C12.3333 49.8698 14.4656 56.0603 18.7765 60.1718C23.296 64.4681 30.1795 66.3853 38.6855 65.6924C45.8008 65.1149 53.0088 61.396 58.4554 55.4828C63.8324 49.6388 66.9845 42.2242 67.1236 35.1791C67.2626 27.5335 64.9218 21.32 60.3095 17.2315C55.5583 13.0045 48.6515 11.2259 40.8409 12.2191Z" fill="#483F84"/>
<path d="M33.911 66.1543C27.491 66.1543 21.6272 64.0061 17.1541 59.9176C12.0088 55.2286 9.32028 48.53 9.5984 41.0461C9.87653 33.4928 13.1445 26.032 18.7765 20.0264C24.4085 14.0207 31.7556 10.1864 39.4503 9.19312C47.3536 8.17679 54.6544 10.3019 60.0082 15.1757C65.1535 19.8647 67.842 26.5633 67.5639 34.0472C67.2858 41.6005 64.0178 49.0613 58.3858 55.0669C52.7539 61.0726 45.4068 64.9069 37.712 65.9002C36.4373 66.085 35.1626 66.1543 33.911 66.1543ZM39.7284 11.5261C24.9184 13.4202 12.4492 26.7019 11.9161 41.1616C11.6612 47.9526 14.0716 54.0044 18.7301 58.2314C23.5509 62.6202 30.2027 64.5374 37.4339 63.6365C52.244 61.7424 64.7132 48.4607 65.2462 34.001C65.5012 27.21 63.0908 21.1582 58.4322 16.9312C53.6114 12.5193 46.9596 10.6021 39.7284 11.5261Z" fill="#B8A7FB"/>
<path d="M33.3534 31.0381C36.8348 27.0127 41.1194 25 46.2075 25C49.1756 25 51.1617 25.7627 52.2105 27.2881C53.2594 28.8136 53.2594 30.7203 52.2329 33.0297C51.0724 35.572 49.5996 37.5 47.7473 38.7712C45.9174 40.0636 43.2841 41.2076 39.8921 42.1822C39.535 42.2669 39.0887 42.3941 38.5531 42.5C38.0175 42.6271 37.5712 42.7331 37.2141 42.8178C36.8571 42.9025 36.5 43.0085 36.1206 43.1356C35.7413 43.2415 35.4512 43.3686 35.228 43.517C35.0048 43.6653 34.8709 43.8136 34.7817 43.9619L34.6924 44.1737H45.1363C45.7166 44.1737 46.0736 44.2797 46.2075 44.4915C46.3414 44.7034 46.2745 45.1059 46.029 45.6568L44.7347 48.5593C44.4892 49.089 44.2214 49.4703 43.8866 49.6822C43.5519 49.8941 43.1056 50 42.5254 50H26.1454C25.5651 50 25.2081 49.8941 25.0742 49.6822C24.9403 49.4703 24.9849 49.089 25.2304 48.5593L26.4801 45.8051C26.971 44.7034 27.5959 43.7288 28.3546 42.8602C29.1134 42.0127 30.0284 41.2712 31.0995 40.6568C32.1707 40.0424 33.108 39.5763 33.889 39.2373C34.6701 38.8983 35.6966 38.5169 36.991 38.072C37.9952 37.7331 38.687 37.4788 39.0664 37.3517C39.4457 37.2034 40.026 36.9703 40.8293 36.6525C41.6104 36.3136 42.2129 36.0169 42.57 35.7627C42.9494 35.5085 43.3511 35.1483 43.7751 34.7034C44.1991 34.2585 44.5338 33.7924 44.757 33.2839C45.0471 32.6059 45.0917 32.0763 44.8462 31.6525C44.6008 31.2288 44.0875 31.0169 43.3064 31.0169C42.5477 31.0169 41.8559 31.1864 41.231 31.5254C40.6062 31.8644 39.8921 32.4576 39.111 33.2839C38.5977 33.8347 38.196 34.1737 37.9059 34.2797C37.6158 34.3856 37.2141 34.3644 36.7455 34.2161L33.4873 32.8602C33.041 32.6695 32.7955 32.4364 32.7732 32.161C32.7286 31.9492 32.9294 31.5466 33.3534 31.0381Z" fill="#FF9E00"/>
<path d="M32.3534 29.0381C35.8348 25.0127 40.1194 23 45.2075 23C48.1756 23 50.1617 23.7627 51.2105 25.2881C52.2594 26.8136 52.2594 28.7203 51.2329 31.0297C50.0724 33.572 48.5996 35.5 46.7473 36.7712C44.9174 38.0636 42.2841 39.2076 38.8921 40.1822C38.535 40.2669 38.0887 40.3941 37.5531 40.5C37.0175 40.6271 36.5712 40.7331 36.2141 40.8178C35.8571 40.9025 35.5 41.0085 35.1206 41.1356C34.7413 41.2415 34.4512 41.3686 34.228 41.517C34.0048 41.6653 33.8709 41.8136 33.7817 41.9619L33.6924 42.1737H44.1363C44.7166 42.1737 45.0736 42.2797 45.2075 42.4915C45.3414 42.7034 45.2745 43.1059 45.029 43.6568L43.7347 46.5593C43.4892 47.089 43.2214 47.4703 42.8866 47.6822C42.5519 47.8941 42.1056 48 41.5254 48H25.1454C24.5651 48 24.2081 47.8941 24.0742 47.6822C23.9403 47.4703 23.9849 47.089 24.2304 46.5593L25.4801 43.8051C25.971 42.7034 26.5959 41.7288 27.3546 40.8602C28.1134 40.0127 29.0284 39.2712 30.0995 38.6568C31.1707 38.0424 32.108 37.5763 32.889 37.2373C33.6701 36.8983 34.6966 36.5169 35.991 36.072C36.9952 35.7331 37.687 35.4788 38.0664 35.3517C38.4457 35.2034 39.026 34.9703 39.8293 34.6525C40.6104 34.3136 41.2129 34.0169 41.57 33.7627C41.9494 33.5085 42.3511 33.1483 42.7751 32.7034C43.1991 32.2585 43.5338 31.7924 43.757 31.2839C44.0471 30.6059 44.0917 30.0763 43.8462 29.6525C43.6008 29.2288 43.0875 29.0169 42.3064 29.0169C41.5477 29.0169 40.8559 29.1864 40.231 29.5254C39.6062 29.8644 38.8921 30.4576 38.111 31.2839C37.5977 31.8347 37.196 32.1737 36.9059 32.2797C36.6158 32.3856 36.2141 32.3644 35.7455 32.2161L32.4873 30.8602C32.041 30.6695 31.7955 30.4364 31.7732 30.161C31.7286 29.9492 31.9294 29.5466 32.3534 29.0381Z" fill="white"/>
</svg>
