<svg width="84" height="83" viewBox="0 0 84 83" fill="none" xmlns="http://www.w3.org/2000/svg">
<path d="M74.6563 15.6841C81.3776 24.9235 82.7451 34.9714 82.9537 39.0599C83.9271 58.8785 69 78.6895 42.7185 81.9539C38.9888 82.4172 32.3121 82.2311 27.7462 80.9145C22.74 79.4593 14.3963 74.1235 8.83382 66.27L74.6563 15.6841Z" fill="#483F84"/>
<path d="M41.2572 0.323059C62.6959 -2.40257 79.4528 12.3805 78.688 33.331C77.9 54.3045 59.8915 73.4994 38.4528 76.225C16.991 78.9738 0.25721 64.1907 1.02205 43.2172C1.81006 22.2667 19.8185 3.04869 41.2572 0.323059Z" fill="#8064EC"/>
<path d="M40.6558 11.2953C56.1611 9.37815 68.2595 19.7263 67.7032 34.417C67.147 49.0846 54.1216 62.528 38.6162 64.4452C23.1108 66.3624 11.0124 56.0142 11.5687 41.3235C12.1249 26.6328 25.1504 13.1894 40.6558 11.2953Z" fill="#8064EC"/>
<path d="M36.368 67.2169C29.0209 67.2169 22.9949 65.1611 18.7999 61.165C14.1877 56.7763 11.9163 50.2394 12.2176 42.2473C12.7971 26.9329 25.9847 12.8428 41.6523 10.8563C49.8801 9.81687 57.1809 11.711 62.2103 16.1921C67.1006 20.5808 69.6269 27.1408 69.4878 35.2022C69.3488 42.5938 66.0577 50.3318 60.472 56.4298C54.7937 62.5972 47.2612 66.4777 39.7982 67.0783C38.6162 67.1707 37.4805 67.2169 36.368 67.2169ZM41.8378 12.2191C26.8191 14.1363 14.1645 27.6259 13.6082 42.2935C13.3301 49.8698 15.4624 56.0603 19.7733 60.1718C24.2928 64.4681 31.1764 66.3853 39.6823 65.6924C46.7976 65.1149 54.0056 61.396 59.4522 55.4828C64.8293 49.6388 67.9813 42.2242 68.1204 35.1791C68.2595 27.5335 65.9186 21.32 61.3064 17.2315C56.5551 13.0045 49.6484 11.2259 41.8378 12.2191Z" fill="#483F84"/>
<path d="M34.9078 66.1543C28.4878 66.1543 22.6241 64.0061 18.1509 59.9176C13.0056 55.2286 10.3171 48.53 10.5952 41.0461C10.8734 33.4928 14.1413 26.032 19.7733 20.0264C25.4053 14.0207 32.7524 10.1864 40.4471 9.19312C48.3505 8.17679 55.6512 10.3019 61.0051 15.1757C66.1504 19.8647 68.8389 26.5633 68.5608 34.0472C68.2826 41.6005 65.0147 49.0613 59.3827 55.0669C53.7507 61.0726 46.4036 64.9069 38.7089 65.9002C37.4341 66.085 36.1594 66.1543 34.9078 66.1543ZM40.7253 11.5261C25.9152 13.4202 13.446 26.7019 12.9129 41.1616C12.658 47.9526 15.0684 54.0044 19.727 58.2314C24.5478 62.6202 31.1995 64.5374 38.4307 63.6365C53.2408 61.7424 65.71 48.4607 66.2431 34.001C66.498 27.21 64.0876 21.1582 59.429 16.9312C54.6082 12.5193 47.9565 10.6021 40.7253 11.5261Z" fill="#B8A7FB"/>
<path d="M51.2047 25.1014C52.4794 26.5104 52.827 28.4045 52.2244 30.7837C51.6218 33.1628 50.1849 35.0107 47.9135 36.2811C50.069 37.5977 50.8106 39.6997 50.069 42.6101C49.42 45.2434 48.0526 47.276 45.9898 48.7082C43.9271 50.1403 41.1922 50.8563 37.8084 50.8563C31.991 50.8563 28.8157 48.662 28.3058 44.2732C28.19 43.28 28.6999 42.587 29.8355 42.2406L33.8683 40.9239C34.4941 40.716 34.9344 40.6929 35.1662 40.8315C35.398 40.9701 35.5602 41.3397 35.6529 41.9403C35.8383 43.5803 36.9277 44.3887 38.8513 44.3887C40.8214 44.3887 41.9802 43.6496 42.3511 42.1713C42.7219 40.6929 42.0729 39.9538 40.4042 39.9538H38.1097C37.5071 39.9538 37.1131 39.8383 36.9508 39.6073C36.7886 39.3763 36.7654 38.9606 36.9277 38.3831L37.7157 35.2648C37.8779 34.6642 38.0865 34.2484 38.3646 33.9944C38.6428 33.7634 39.1063 33.6479 39.7089 33.6479H41.3776C43.0927 33.6479 44.1125 32.9549 44.4602 31.569C44.8078 30.1831 44.1125 29.4901 42.4206 29.4901C41.424 29.4901 40.6128 29.6749 40.0102 30.0445C39.4076 30.4141 38.8282 31.0377 38.2487 31.9386C37.9011 32.5161 37.5534 32.8856 37.229 33.0242C36.8813 33.1859 36.4641 33.1397 35.9542 32.9549L32.5704 31.6383C32.0605 31.4535 31.7592 31.2225 31.6665 30.8991C31.5738 30.5758 31.7129 30.16 32.0373 29.6056C34.7954 25.2169 39.0599 23.0225 44.831 23.0225C47.8208 22.9994 49.9299 23.6924 51.2047 25.1014Z" fill="#FF9E00"/>
<path d="M50.5093 23.4845C51.7841 24.8935 52.1317 26.7876 51.5291 29.1667C50.9265 31.5459 49.4895 33.3938 47.2182 34.6642C49.3737 35.9808 50.1153 38.0828 49.3737 40.9932C48.7247 43.6264 47.3573 45.6591 45.2945 47.0912C43.2318 48.5233 40.4969 49.2394 37.1131 49.2394C31.2957 49.2394 28.1204 47.045 27.6105 42.6563C27.4946 41.6631 28.0045 40.9701 29.1402 40.6236L33.173 39.307C33.7988 39.0991 34.2391 39.076 34.4709 39.2146C34.7027 39.3532 34.8649 39.7228 34.9576 40.3233C35.143 41.9633 36.2323 42.7718 38.156 42.7718C40.1261 42.7718 41.2849 42.0326 41.6557 40.5543C42.0266 39.076 41.3776 38.3369 39.7089 38.3369H37.4144C36.8118 38.3369 36.4178 38.2214 36.2555 37.9904C36.0933 37.7594 36.0701 37.3436 36.2323 36.7662L37.0204 33.6478C37.1826 33.0473 37.3912 32.6315 37.6693 32.3774C37.9474 32.1464 38.411 32.0309 39.0136 32.0309H40.6823C42.3974 32.0309 43.4172 31.338 43.7648 29.9521C44.1125 28.5662 43.4172 27.8732 41.7253 27.8732C40.7287 27.8732 39.9175 28.058 39.3149 28.4276C38.7123 28.7971 38.1329 29.4208 37.5534 30.3216C37.2058 30.8991 36.8581 31.2687 36.5336 31.4073C36.186 31.569 35.7688 31.5228 35.2589 31.338L31.8751 30.0214C31.3652 29.8366 31.0639 29.6056 30.9712 29.2822C30.8785 28.9588 31.0175 28.5431 31.342 27.9887C34.1001 23.6 38.3646 21.4056 44.1357 21.4056C47.1255 21.3825 49.2346 22.0754 50.5093 23.4845Z" fill="white"/>
</svg>
