<svg viewBox="0 0 83 83" fill="none" xmlns="http://www.w3.org/2000/svg">
<path d="M74.6563 15.6841C81.3776 24.9235 82.7451 34.9714 82.9537 39.0599C83.9271 58.8785 65 80.9145 42.7185 81.9539C37.2528 82.2089 32.3121 82.2311 27.7462 80.9145C22.74 79.4593 14.3963 74.1235 8.83382 66.27L74.6563 15.6841Z" fill="#483F84"/>
<path d="M41.2572 0.323059C62.6959 -2.40257 79.4528 12.3805 78.688 33.331C77.9 54.3045 59.8915 73.4994 38.4528 76.225C16.991 78.9738 0.25721 64.1907 1.02205 43.2172C1.81006 22.2667 19.8185 3.04869 41.2572 0.323059Z" fill="#8064EC"/>
<path d="M40.6558 11.2953C56.1611 9.37815 68.2595 19.7263 67.7032 34.417C67.147 49.0846 54.1216 62.528 38.6162 64.4452C23.1108 66.3624 11.0124 56.0142 11.5687 41.3235C12.1249 26.6328 25.1504 13.1894 40.6558 11.2953Z" fill="#8064EC"/>
<path d="M36.368 67.2169C29.0209 67.2169 22.9949 65.1611 18.7999 61.165C14.1877 56.7763 11.9163 50.2394 12.2176 42.2473C12.7971 26.9329 25.9847 12.8428 41.6523 10.8563C49.8801 9.81687 57.1809 11.711 62.2103 16.1921C67.1006 20.5808 69.6269 27.1408 69.4878 35.2022C69.3488 42.5938 66.0577 50.3318 60.472 56.4298C54.7937 62.5972 47.2612 66.4777 39.7982 67.0783C38.6162 67.1707 37.4805 67.2169 36.368 67.2169ZM41.8378 12.2191C26.8191 14.1363 14.1645 27.6259 13.6082 42.2935C13.3301 49.8698 15.4624 56.0603 19.7733 60.1718C24.2928 64.4681 31.1764 66.3853 39.6823 65.6924C46.7976 65.1149 54.0056 61.396 59.4522 55.4828C64.8293 49.6388 67.9813 42.2242 68.1204 35.1791C68.2595 27.5335 65.9186 21.32 61.3064 17.2315C56.5551 13.0045 49.6484 11.2259 41.8378 12.2191Z" fill="#483F84"/>
<path d="M34.9078 66.1543C28.4878 66.1543 22.6241 64.0061 18.1509 59.9176C13.0056 55.2286 10.3171 48.53 10.5952 41.0461C10.8734 33.4928 14.1413 26.032 19.7733 20.0264C25.4053 14.0207 32.7524 10.1864 40.4471 9.19312C48.3505 8.17679 55.6512 10.3019 61.0051 15.1757C66.1504 19.8647 68.8389 26.5633 68.5608 34.0472C68.2826 41.6005 65.0147 49.0613 59.3827 55.0669C53.7507 61.0726 46.4036 64.9069 38.7089 65.9002C37.4341 66.085 36.1594 66.1543 34.9078 66.1543ZM40.7253 11.5261C25.9152 13.4202 13.446 26.7019 12.9129 41.1616C12.658 47.9526 15.0684 54.0044 19.727 58.2314C24.5478 62.6202 31.1995 64.5374 38.4307 63.6365C53.2408 61.7424 65.71 48.4607 66.2431 34.001C66.498 27.21 64.0876 21.1582 59.429 16.9312C54.6082 12.5193 47.9565 10.6021 40.7253 11.5261Z" fill="#B8A7FB"/>
<path d="M48.7266 25.1314C49.3327 25.1632 49.6836 25.3066 49.8112 25.5455C49.9388 25.7845 49.875 26.1986 49.6357 26.7561L39.6517 49.6454C39.4124 50.2029 39.1254 50.6011 38.7904 50.8241C38.4715 51.0471 38.0089 51.1427 37.4029 51.1108L33.1764 50.8878C32.5703 50.8559 32.2035 50.7126 32.0759 50.4737C31.9324 50.2347 31.9962 49.8206 32.2354 49.2631L38.8861 34.0036L35.7761 35.2619C34.4523 35.7876 33.7187 35.5486 33.607 34.5133L33.2083 31.3117C33.1924 30.7701 33.304 30.3559 33.5432 30.0692C33.7825 29.7984 34.229 29.5117 34.8829 29.225L43.9738 25.5137C44.851 25.1314 45.6963 24.9721 46.4938 25.004L48.7266 25.1314Z" fill="#FF9E00"/>
<path d="M47.7266 23.1314C48.3327 23.1632 48.6836 23.3066 48.8112 23.5455C48.9388 23.7845 48.875 24.1986 48.6357 24.7561L38.6517 47.6454C38.4124 48.2029 38.1254 48.6011 37.7904 48.8241C37.4715 49.0471 37.0089 49.1427 36.4029 49.1108L32.1764 48.8878C31.5703 48.8559 31.2035 48.7126 31.0759 48.4737C30.9324 48.2347 30.9962 47.8206 31.2354 47.2631L37.8861 32.0036L34.7761 33.2619C33.4523 33.7876 32.7187 33.5486 32.607 32.5133L32.2083 29.3117C32.1924 28.7701 32.304 28.3559 32.5432 28.0692C32.7825 27.7984 33.229 27.5117 33.8829 27.225L42.9738 23.5137C43.851 23.1314 44.6963 22.9721 45.4938 23.004L47.7266 23.1314Z" fill="white"/>
</svg>
