<svg viewBox="0 0 82 83" fill="none" xmlns="http://www.w3.org/2000/svg">
<path d="M73.6594 15.6848C80.3807 24.9243 81.7482 34.9721 81.9568 39.0606C82.9302 58.8792 64.0031 80.9152 41.7216 81.9547C36.2559 82.2096 31.3152 82.2319 26.7493 80.9152C21.7431 79.46 13.3994 74.1243 7.83691 66.2707L73.6594 15.6848Z" fill="#483F84"/>
<path d="M40.2604 0.323792C61.699 -2.40184 78.456 12.3813 77.6911 33.3317C76.9031 54.3052 58.8946 73.5001 37.456 76.2258C15.9941 78.9745 -0.739632 64.1914 0.0252074 43.2179C0.813223 22.2675 18.8217 3.04943 40.2604 0.323792Z" fill="#8064EC"/>
<path d="M39.659 11.2961C55.1643 9.37889 67.2627 19.7271 66.7065 34.4178C66.1502 49.0854 53.1248 62.5288 37.6194 64.4459C22.114 66.3631 10.0157 56.0149 10.5719 41.3242C11.1282 26.6335 24.1536 13.1902 39.659 11.2961Z" fill="#8064EC"/>
<path d="M35.3712 67.2176C28.0241 67.2176 21.9981 65.1618 17.8031 61.1658C13.1909 56.777 10.9195 50.2401 11.2208 42.248C11.8003 26.9337 24.9879 12.8435 40.6556 10.857C48.8834 9.81761 56.1841 11.7117 61.2135 16.1928C66.1038 20.5815 68.6301 27.1415 68.4911 35.203C68.352 42.5945 65.0609 50.3325 59.4752 56.4306C53.7969 62.5979 46.2644 66.4785 38.8014 67.079C37.6194 67.1714 36.4837 67.2176 35.3712 67.2176ZM40.841 12.2199C25.8223 14.137 13.1677 27.6266 12.6115 42.2942C12.3333 49.8706 14.4656 56.061 18.7765 60.1725C23.296 64.4689 30.1796 66.3861 38.6855 65.6931C45.8008 65.1156 53.0089 61.3968 58.4554 55.4835C63.8325 49.6396 66.9846 42.2249 67.1236 35.1799C67.2627 27.5342 64.9218 21.3207 60.3096 17.2323C55.5583 13.0052 48.6516 11.2266 40.841 12.2199Z" fill="#483F84"/>
<path d="M33.9111 66.155C27.4911 66.155 21.6273 64.0068 17.1541 59.9184C12.0089 55.2294 9.32034 48.5308 9.59847 41.0468C9.87659 33.4936 13.1445 26.0327 18.7765 20.0271C24.4085 14.0215 31.7556 10.1871 39.4504 9.19386C47.3537 8.17752 54.6544 10.3026 60.0083 15.1764C65.1536 19.8654 67.8421 26.564 67.564 34.0479C67.2859 41.6012 64.0179 49.062 58.3859 55.0677C52.7539 61.0733 45.4068 64.9077 37.7121 65.9009C36.4374 66.0857 35.1626 66.155 33.9111 66.155ZM39.7285 11.5268C24.9184 13.4209 12.4492 26.7026 11.9162 41.1623C11.6612 47.9533 14.0716 54.0051 18.7302 58.2322C23.551 62.6209 30.2028 64.5381 37.434 63.6372C52.244 61.7432 64.7132 48.4615 65.2463 34.0017C65.5012 27.2108 63.0908 21.1589 58.4323 16.9319C53.6115 12.5201 46.9597 10.6029 39.7285 11.5268Z" fill="#B8A7FB"/>
<path d="M52.8897 25C53.4661 25 53.8088 25.1096 53.9335 25.3446C54.0581 25.5795 54.0113 25.9711 53.7621 26.5506L52.3911 29.7771C52.1419 30.3566 51.8614 30.7482 51.5499 30.9518C51.2383 31.1711 50.7865 31.2807 50.2257 31.2807H41.3924L40.0838 33.7867H42.4673C45.5831 33.7867 47.5772 34.5699 48.4652 36.1518C49.3532 37.7337 49.2598 39.7855 48.1848 42.3072C47.1099 44.8446 45.365 46.9277 42.9503 48.5566C40.5511 50.1855 37.856 51 34.8648 51C32.0139 51 29.973 50.5145 28.7267 49.5747C27.4804 48.6193 26.904 47.1313 27.013 45.0952C27.0598 44.547 27.2 44.1398 27.4648 43.8578C27.7297 43.5759 28.1503 43.3566 28.7579 43.153L33.1823 41.7277C33.7431 41.5398 34.1326 41.5084 34.3507 41.6181C34.5688 41.7434 34.6779 42.0723 34.6623 42.6205C34.6467 43.9518 35.5035 44.6253 37.264 44.6253C39.0244 44.6253 40.2707 43.7482 41.0185 41.9783C41.704 40.3494 41.0964 39.5349 39.1958 39.5349H31.7646C31.1259 39.5349 30.752 39.394 30.6429 39.1277C30.5339 38.8458 30.6273 38.4072 30.9389 37.7807L36.5473 27.1458C36.9835 26.3313 37.4353 25.7831 37.9027 25.4699C38.3701 25.1566 39.0088 25 39.8501 25H52.8897Z" fill="#FF9E00"/>
<path d="M51.8897 23C52.4661 23 52.8088 23.1096 52.9335 23.3446C53.0581 23.5795 53.0113 23.9711 52.7621 24.5506L51.3911 27.7771C51.1419 28.3566 50.8614 28.7482 50.5499 28.9518C50.2383 29.1711 49.7865 29.2807 49.2257 29.2807H40.3924L39.0838 31.7867H41.4673C44.5831 31.7867 46.5772 32.5699 47.4652 34.1518C48.3532 35.7337 48.2598 37.7855 47.1848 40.3072C46.1099 42.8446 44.365 44.9277 41.9503 46.5566C39.5511 48.1855 36.856 49 33.8648 49C31.0139 49 28.973 48.5145 27.7267 47.5747C26.4804 46.6193 25.904 45.1313 26.013 43.0952C26.0598 42.547 26.2 42.1398 26.4648 41.8578C26.7297 41.5759 27.1503 41.3566 27.7579 41.153L32.1823 39.7277C32.7431 39.5398 33.1326 39.5084 33.3507 39.6181C33.5688 39.7434 33.6779 40.0723 33.6623 40.6205C33.6467 41.9518 34.5035 42.6253 36.264 42.6253C38.0244 42.6253 39.2707 41.7482 40.0185 39.9783C40.704 38.3494 40.0964 37.5349 38.1958 37.5349H30.7646C30.1259 37.5349 29.752 37.394 29.6429 37.1277C29.5339 36.8458 29.6273 36.4072 29.9389 35.7807L35.5473 25.1458C35.9835 24.3313 36.4353 23.7831 36.9027 23.4699C37.3701 23.1566 38.0088 23 38.8501 23H51.8897Z" fill="white"/>
</svg>
