<svg width="82" height="83" viewBox="0 0 82 83" fill="none" xmlns="http://www.w3.org/2000/svg">
<path d="M73.6594 15.6848C80.3807 24.9243 81.7482 34.9721 81.9568 39.0606C82.9302 58.8792 64.0031 80.9152 41.7216 81.9547C36.2559 82.2096 31.3152 82.2319 26.7493 80.9152C21.7431 79.46 13.3994 74.1243 7.83691 66.2707L73.6594 15.6848Z" fill="#483F84"/>
<path d="M40.2604 0.323792C61.699 -2.40184 78.456 12.3813 77.6911 33.3317C76.9031 54.3052 58.8946 73.5001 37.456 76.2258C15.9941 78.9745 -0.739632 64.1914 0.0252074 43.2179C0.813223 22.2675 18.8217 3.04943 40.2604 0.323792Z" fill="#8064EC"/>
<path d="M39.659 11.2961C55.1643 9.37889 67.2627 19.7271 66.7065 34.4178C66.1502 49.0854 53.1248 62.5288 37.6194 64.4459C22.114 66.3631 10.0157 56.0149 10.5719 41.3242C11.1282 26.6335 24.1536 13.1902 39.659 11.2961Z" fill="#8064EC"/>
<path d="M35.3712 67.2176C28.0241 67.2176 21.9981 65.1618 17.8031 61.1658C13.1909 56.777 10.9195 50.2401 11.2208 42.248C11.8003 26.9337 24.9879 12.8435 40.6556 10.857C48.8834 9.81761 56.1841 11.7117 61.2135 16.1928C66.1038 20.5815 68.6301 27.1415 68.4911 35.203C68.352 42.5945 65.0609 50.3325 59.4752 56.4306C53.7969 62.5979 46.2644 66.4785 38.8014 67.079C37.6194 67.1714 36.4837 67.2176 35.3712 67.2176ZM40.841 12.2199C25.8223 14.137 13.1677 27.6266 12.6115 42.2942C12.3333 49.8706 14.4656 56.061 18.7765 60.1725C23.296 64.4689 30.1796 66.3861 38.6855 65.6931C45.8008 65.1156 53.0089 61.3968 58.4554 55.4835C63.8325 49.6396 66.9846 42.2249 67.1236 35.1799C67.2627 27.5342 64.9218 21.3207 60.3096 17.2323C55.5583 13.0052 48.6516 11.2266 40.841 12.2199Z" fill="#483F84"/>
<path d="M33.9111 66.155C27.4911 66.155 21.6273 64.0068 17.1541 59.9184C12.0089 55.2294 9.32034 48.5308 9.59847 41.0468C9.87659 33.4936 13.1445 26.0327 18.7765 20.0271C24.4085 14.0215 31.7556 10.1871 39.4504 9.19386C47.3537 8.17752 54.6544 10.3026 60.0083 15.1764C65.1536 19.8654 67.8421 26.564 67.564 34.0479C67.2859 41.6012 64.0179 49.062 58.3859 55.0677C52.7539 61.0733 45.4068 64.9077 37.7121 65.9009C36.4374 66.0857 35.1626 66.155 33.9111 66.155ZM39.7285 11.5268C24.9184 13.4209 12.4492 26.7026 11.9162 41.1623C11.6612 47.9533 14.0716 54.0051 18.7302 58.2322C23.551 62.6209 30.2028 64.5381 37.434 63.6372C52.244 61.7432 64.7132 48.4615 65.2463 34.0017C65.5012 27.2108 63.0908 21.1589 58.4323 16.9319C53.6115 12.5201 46.9597 10.6029 39.7285 11.5268Z" fill="#B8A7FB"/>
<path d="M47.8943 39.8602C48.44 39.8907 48.7831 40.0124 48.9234 40.2559C49.0481 40.4841 49.0014 40.8797 48.7675 41.4123L47.6916 43.8621C47.4577 44.3947 47.1771 44.7751 46.8496 44.9729C46.5222 45.1859 46.0856 45.2772 45.5399 45.2468L43.7156 45.1555L42.2032 48.6096C41.9693 49.1422 41.6886 49.5226 41.3612 49.7204C41.0337 49.9334 40.5972 50.0247 40.0514 49.9943L36.3561 49.7965C35.7792 49.766 35.4361 49.6291 35.3114 49.4009C35.1867 49.1726 35.249 48.7922 35.4829 48.2444L36.9954 44.7903L26.0964 44.2425C25.5507 44.2121 25.2076 44.0904 25.0673 43.8469C24.9426 43.6187 24.9893 43.223 25.2232 42.6905L26.2367 40.3928C26.5018 39.7842 26.7513 39.3429 26.9696 39.0538C27.1878 38.7647 27.5621 38.4299 28.061 38.0647L44.5576 25.9373C45.1033 25.5417 45.5555 25.2678 45.9297 25.1461C46.3039 25.0243 46.7717 24.9787 47.3486 25.0091L50.9036 25.1917C51.4493 25.2222 51.7924 25.3439 51.9327 25.5873C52.0574 25.8156 52.0107 26.2112 51.7768 26.7438L46.0544 39.7689L47.8943 39.8602ZM39.3342 39.419L41.9225 33.515L34.3135 39.1603L39.3342 39.419Z" fill="#FF9E00"/>
<path d="M46.8943 37.8602C47.44 37.8907 47.7831 38.0124 47.9234 38.2559C48.0481 38.4841 48.0014 38.8797 47.7675 39.4123L46.6916 41.8621C46.4577 42.3947 46.1771 42.7751 45.8496 42.9729C45.5222 43.1859 45.0856 43.2772 44.5399 43.2468L42.7156 43.1555L41.2032 46.6096C40.9693 47.1422 40.6886 47.5226 40.3612 47.7204C40.0337 47.9334 39.5972 48.0247 39.0514 47.9943L35.3561 47.7965C34.7792 47.766 34.4361 47.6291 34.3114 47.4009C34.1867 47.1726 34.249 46.7922 34.4829 46.2444L35.9954 42.7903L25.0964 42.2425C24.5507 42.2121 24.2076 42.0904 24.0673 41.8469C23.9426 41.6187 23.9893 41.223 24.2232 40.6905L25.2367 38.3928C25.5018 37.7842 25.7513 37.3429 25.9696 37.0538C26.1878 36.7647 26.5621 36.4299 27.061 36.0647L43.5576 23.9373C44.1033 23.5417 44.5555 23.2678 44.9297 23.1461C45.3039 23.0243 45.7717 22.9787 46.3486 23.0091L49.9036 23.1917C50.4493 23.2222 50.7924 23.3439 50.9327 23.5873C51.0574 23.8156 51.0107 24.2112 50.7768 24.7438L45.0544 37.7689L46.8943 37.8602ZM38.3342 37.419L40.9225 31.515L33.3135 37.1603L38.3342 37.419Z" fill="white"/>
</svg>
