<svg width="21" height="21" viewBox="0 0 21 21" fill="none" xmlns="http://www.w3.org/2000/svg">
<mask id="mask0" mask-type="alpha" maskUnits="userSpaceOnUse" x="0" y="0" width="21" height="21">
<path fill-rule="evenodd" clip-rule="evenodd" d="M0.605774 20.324H20.5612V0.38855H0.605774V20.324Z" fill="white"/>
</mask>
<g mask="url(#mask0)">
<path fill-rule="evenodd" clip-rule="evenodd" d="M5.26121 4.37438C5.62855 4.37438 5.92629 4.10458 5.92629 3.77185V0.990413C5.92629 0.657675 5.62855 0.387878 5.26121 0.387878C4.89387 0.387878 4.59613 0.657675 4.59613 0.990413V3.77185C4.59613 4.10458 4.89387 4.37438 5.26121 4.37438Z" fill="white"/>
<path fill-rule="evenodd" clip-rule="evenodd" d="M6.59122 3.04545H13.2441V1.71643H6.59122V3.04545Z" fill="white"/>
<path fill-rule="evenodd" clip-rule="evenodd" d="M1.69128 16.1042V6.99444H18.1448V16.1042C18.1448 16.7086 17.6714 17.2004 17.0897 17.2004H2.74653C2.16461 17.2004 1.69128 16.7086 1.69128 16.1042ZM17.0897 18.3293C18.2702 18.3293 19.2306 17.3315 19.2306 16.1051V3.94057C19.2306 2.71418 18.2702 1.71643 17.0897 1.71643H15.6778V2.84433H17.0897C17.6714 2.84433 18.1449 3.33617 18.1449 3.94057V5.8674H1.69133V3.94057C1.69133 3.33617 2.16466 2.84433 2.74658 2.84433H4.15841V1.71643H2.74658C1.56593 1.71643 0.605591 2.71418 0.605591 3.94057V16.1051C0.605591 17.3315 1.56593 18.3293 2.74658 18.3293H17.0897Z" fill="white"/>
<path fill-rule="evenodd" clip-rule="evenodd" d="M14.5741 4.37438C14.9415 4.37438 15.2392 4.10458 15.2392 3.77185V0.990413C15.2392 0.657676 14.9415 0.387879 14.5741 0.387879C14.2068 0.387879 13.909 0.657676 13.909 0.990413V3.77185C13.909 4.10458 14.2068 4.37438 14.5741 4.37438Z" fill="white"/>
<path fill-rule="evenodd" clip-rule="evenodd" d="M7.92269 11.0196H11.2481V8.36189H7.92269V11.0196Z" fill="white"/>
<path fill-rule="evenodd" clip-rule="evenodd" d="M7.92269 15.6716H11.2481V13.0139H7.92269V15.6716Z" fill="white"/>
<path fill-rule="evenodd" clip-rule="evenodd" d="M13.2441 11.0196H16.5695V8.36189H13.2441V11.0196Z" fill="white"/>
<path fill-rule="evenodd" clip-rule="evenodd" d="M13.2441 15.6716H16.5695V13.0139H13.2441V15.6716Z" fill="white"/>
<path fill-rule="evenodd" clip-rule="evenodd" d="M3.26619 11.0196H6.5916V8.36189H3.26619V11.0196Z" fill="white"/>
<path fill-rule="evenodd" clip-rule="evenodd" d="M3.26619 15.6716H6.5916V13.0139H3.26619V15.6716Z" fill="white"/>
<path fill-rule="evenodd" clip-rule="evenodd" d="M19.6215 4.39914V16.4649C19.6215 18.0377 18.4265 19.3173 16.9578 19.3173H2.9407C2.83831 19.3173 2.73745 19.3105 2.63801 19.2983C3.17034 19.9272 3.93857 20.3229 4.79166 20.3229H17.6519C19.2557 20.3229 20.5604 18.9256 20.5604 17.2082V6.68831C20.5604 5.78395 20.1983 4.96871 19.6215 4.39914Z" fill="white"/>
</g>
</svg>
