<svg width="17" height="27" viewBox="0 0 17 27" fill="none" xmlns="http://www.w3.org/2000/svg">
<path d="M15.9518 11.0715L16.6135 11.2663L16.6184 11.2494L16.6226 11.2323L15.9518 11.0715ZM8.83159 24.8131L8.22858 25.148L8.82901 26.2291L9.43338 25.1502L8.83159 24.8131ZM1.7649 11.2342L1.11196 11.4566L1.7649 11.2342ZM8.83864 4.00326C6.38596 4.00326 4.41051 6.01242 4.41051 8.47425H5.79004C5.79004 6.75951 7.16259 5.38279 8.83864 5.38279V4.00326ZM4.41051 8.47425C4.41051 10.9364 6.3855 12.9476 8.83864 12.9476V11.5681C7.16305 11.5681 5.79004 10.1902 5.79004 8.47425H4.41051ZM8.83864 12.9476C11.2918 12.9476 13.2668 10.9364 13.2668 8.47425H11.8872C11.8872 10.1902 10.5142 11.5681 8.83864 11.5681V12.9476ZM13.2668 8.47425C13.2668 6.01242 11.2913 4.00326 8.83864 4.00326V5.38279C10.5147 5.38279 11.8872 6.75951 11.8872 8.47425H13.2668ZM15.2901 10.8766C15.1513 11.348 14.6591 12.4183 13.9528 13.8259C13.2595 15.2076 12.393 16.8509 11.5441 18.4306C10.6957 20.0094 9.86703 21.521 9.25029 22.6381C8.94196 23.1966 8.68672 23.6563 8.5086 23.9763C8.41955 24.1362 8.34978 24.2613 8.30231 24.3463C8.27858 24.3888 8.26041 24.4213 8.2482 24.4431C8.2421 24.454 8.23748 24.4623 8.2344 24.4678C8.23286 24.4705 8.2317 24.4726 8.23093 24.474C8.23055 24.4747 8.23026 24.4752 8.23007 24.4755C8.22998 24.4757 8.22991 24.4758 8.22986 24.4759C8.22982 24.476 8.2298 24.476 8.83159 24.8131C9.43338 25.1502 9.43341 25.1501 9.43346 25.15C9.43352 25.1499 9.4336 25.1498 9.4337 25.1496C9.4339 25.1492 9.43421 25.1487 9.43461 25.148C9.43541 25.1465 9.4366 25.1444 9.43818 25.1416C9.44133 25.136 9.44602 25.1276 9.45219 25.1166C9.46454 25.0945 9.48285 25.0617 9.50673 25.019C9.5545 24.9334 9.62459 24.8078 9.71398 24.6472C9.89276 24.326 10.1488 23.8649 10.458 23.3049C11.0763 22.1849 11.9077 20.6685 12.7593 19.0835C13.6106 17.4994 14.4841 15.8431 15.1858 14.4446C15.8746 13.0719 16.4324 11.8813 16.6135 11.2663L15.2901 10.8766ZM8.83159 24.8131C9.4346 24.4782 9.43458 24.4781 9.43454 24.4781C9.43449 24.478 9.43442 24.4779 9.43433 24.4777C9.43415 24.4774 9.43387 24.4769 9.43349 24.4762C9.43274 24.4748 9.43161 24.4728 9.4301 24.4701C9.4271 24.4647 9.42259 24.4565 9.41664 24.4458C9.40473 24.4243 9.38701 24.3924 9.36386 24.3506C9.31756 24.267 9.24951 24.1441 9.16259 23.9867C8.98876 23.6721 8.73952 23.22 8.43805 22.6705C7.83503 21.5714 7.02341 20.0833 6.18849 18.5267C5.35323 16.9694 4.49629 15.3465 3.80201 13.9767C3.09789 12.5876 2.58722 11.5091 2.41783 11.0118L1.11196 11.4566C1.3191 12.0647 1.88003 13.2363 2.57152 14.6004C3.27283 15.984 4.1355 17.6177 4.97278 19.1787C5.81041 20.7405 6.62426 22.2326 7.22858 23.3341C7.53078 23.8849 7.78068 24.3382 7.95507 24.6538C8.04226 24.8117 8.11059 24.9351 8.15714 25.0191C8.18041 25.0612 8.19824 25.0933 8.21027 25.115C8.21629 25.1258 8.22085 25.1341 8.22392 25.1396C8.22545 25.1423 8.22661 25.1444 8.22739 25.1458C8.22778 25.1465 8.22807 25.1471 8.22827 25.1474C8.22837 25.1476 8.22845 25.1477 8.2285 25.1478C8.22855 25.1479 8.22858 25.148 8.83159 24.8131ZM2.41783 11.0118C2.17872 10.3098 2.04463 9.56189 2.04463 8.78277H0.665089C0.665089 9.72174 0.826914 10.6197 1.11196 11.4566L2.41783 11.0118ZM2.04463 8.78277C2.04463 4.99064 5.08894 1.92738 8.83159 1.92738V0.547841C4.3152 0.547841 0.665089 4.24064 0.665089 8.78277H2.04463ZM8.83159 1.92738C12.5751 1.92738 15.6193 4.99069 15.6193 8.78277H16.9989C16.9989 4.24059 13.3487 0.547841 8.83159 0.547841V1.92738ZM15.6193 8.78277C15.6193 9.11067 15.542 9.62592 15.4527 10.0984C15.4096 10.3262 15.3664 10.5305 15.334 10.6779C15.3178 10.7514 15.3044 10.8104 15.2951 10.8507C15.2904 10.8708 15.2868 10.8862 15.2844 10.8964C15.2832 10.9015 15.2823 10.9052 15.2818 10.9076C15.2815 10.9088 15.2813 10.9097 15.2811 10.9102C15.2811 10.9104 15.281 10.9106 15.281 10.9107C15.281 10.9107 15.281 10.9107 15.281 10.9107C15.281 10.9107 15.281 10.9107 15.281 10.9107C15.281 10.9107 15.281 10.9106 15.9518 11.0715C16.6226 11.2323 16.6226 11.2323 16.6226 11.2322C16.6226 11.2322 16.6226 11.2321 16.6226 11.2321C16.6226 11.232 16.6227 11.2318 16.6227 11.2317C16.6228 11.2314 16.6229 11.231 16.623 11.2306C16.6232 11.2296 16.6235 11.2283 16.6239 11.2267C16.6247 11.2234 16.6258 11.2187 16.6272 11.2127C16.63 11.2007 16.6341 11.1833 16.6392 11.1611C16.6495 11.1167 16.664 11.0531 16.6813 10.9744C16.7158 10.8174 16.762 10.5993 16.8082 10.3547C16.8975 9.88249 16.9989 9.2534 16.9989 8.78277H15.6193Z" fill="white"/>
</svg>
