<svg width="89" height="81" viewBox="0 0 89 81" fill="none" xmlns="http://www.w3.org/2000/svg">
<path d="M80.3984 31.006C79.8403 28.7479 79.0238 26.2928 77.8212 23.7027L76.4409 24.4357L11.6419 58.6229L11.4028 58.7492C11.4312 58.7852 11.4573 58.837 11.4858 58.8731C11.5142 58.9092 11.5403 58.9609 11.5687 58.997C14.4043 63.1169 17.6727 66.4973 20.8077 68.8495C22.3456 69.9973 23.8526 70.9004 25.2835 71.5204C28.0649 72.7329 31.1373 73.5862 34.4226 74.0373C35.8343 74.2219 37.291 74.3329 38.7926 74.3701C43.8397 74.4789 48.8269 73.634 53.5057 72.0242C59.0228 70.1331 64.1246 67.1737 68.4277 63.4439C73.706 58.8595 77.7685 53.125 79.9098 46.7648C80.3754 45.3571 80.7581 43.9377 81.0294 42.4703C81.48 40.0352 81.6146 35.9851 80.3984 31.006Z" fill="#038E7D"/>
<path d="M79.5845 29.841C79.2723 27.632 78.7066 25.5312 77.9063 23.5254C77.4883 22.4718 76.9826 21.4378 76.4177 20.4596C75.4659 18.7849 74.3292 17.2123 73.0196 15.7754C70.2296 12.6849 66.672 10.1907 62.5246 8.46258C58.6476 6.85303 54.2472 5.90665 49.4658 5.80401C48.7902 5.78811 48.1288 5.79028 47.4484 5.80578C42.9706 5.93873 38.5715 6.78839 34.4194 8.2504C29.0159 10.1438 24.0162 13.0727 19.7875 16.7366C16.4353 19.6432 13.5718 23.0202 11.3866 26.7341C9.36463 30.1505 7.9118 33.8403 7.17741 37.7124C6.93418 38.9927 6.77629 40.269 6.69186 41.5077C6.42482 45.8792 7.14379 50.0061 8.70396 53.7234C9.34273 55.2253 10.1094 56.6652 10.9923 58.0093C11.0611 58.1153 11.1465 58.2237 11.2153 58.3296L11.2296 58.3477C11.3127 58.4718 11.3815 58.5777 11.4669 58.6861C11.4954 58.7222 11.5215 58.774 11.5499 58.8102C13.3439 61.3101 15.5738 63.5032 18.197 65.3353C21.9396 67.9519 26.4592 69.7972 31.5375 70.6315C33.2919 70.913 35.1126 71.0917 36.9877 71.1339C41.8711 71.235 46.6828 70.46 51.2331 68.9424C56.7101 67.1236 61.7999 64.2716 66.1068 60.6509C71.4989 56.1263 75.6811 50.4034 77.9426 44.0386C78.5009 42.4664 78.9454 40.862 79.2595 39.2231C79.9327 35.9836 79.9992 32.8343 79.5845 29.841Z" fill="#00BEAA"/>
<path d="M45.4937 16.2514C57.7946 16.5093 66.0343 25.7462 63.9185 36.894C61.8027 48.0418 50.1034 56.8648 37.819 56.6093C25.5347 56.3538 17.2784 47.1145 19.3942 35.9667C21.5124 24.8032 33.1927 15.9935 45.4937 16.2514Z" fill="white"/>
<path d="M45.0936 17.3455C56.6004 17.5867 64.3181 26.2363 62.3274 36.6643C60.3367 47.0924 49.4003 55.3504 37.9101 55.1116C26.4033 54.8704 18.6855 46.2208 20.6762 35.7928C22.6669 25.3648 33.6033 17.1067 45.0936 17.3455Z" fill="#00BEAA"/>
<path d="M44.6225 19.3614C54.8444 19.5802 61.6914 27.2562 59.9274 36.5138C58.1634 45.7714 48.4496 53.1129 38.2277 52.8941C28.0058 52.6753 21.1587 44.9993 22.9227 35.7417C24.6867 26.4841 34.4006 19.1426 44.6225 19.3614Z" fill="white"/>
<path d="M18.9963 22.1169C19.0295 22.1216 19.0461 22.1239 19.077 22.1444C19.1102 22.1491 19.1244 22.1672 19.1576 22.1719C19.1908 22.1766 19.2051 22.1947 19.2383 22.1994C19.2715 22.2041 19.2857 22.2222 19.3166 22.2426C19.4897 22.3314 19.6226 22.4626 19.72 22.6047C19.8173 22.7469 19.8601 22.9134 19.884 23.0932C19.8912 23.2707 19.8629 23.4592 19.799 23.6586C19.7351 23.858 19.6214 24.0504 19.458 24.2357C19.3324 24.3943 19.176 24.5324 19.0053 24.6525C18.8347 24.7726 18.6688 24.8613 18.4886 24.9319C18.3084 25.0026 18.1163 25.0394 17.9432 25.0629C17.7535 25.0841 17.5851 25.0761 17.4215 25.0368C17.3883 25.0321 17.3717 25.0297 17.3408 25.0093C17.3076 25.0046 17.2934 24.9865 17.2602 24.9818C17.227 24.9771 17.2127 24.959 17.1795 24.9543C17.1463 24.9496 17.1321 24.9315 17.1012 24.9111C16.928 24.8223 16.7952 24.6911 16.7144 24.5513C16.6171 24.4091 16.5743 24.2426 16.567 24.0652C16.5598 23.8877 16.5881 23.6992 16.652 23.4998C16.7159 23.3004 16.8295 23.108 16.993 22.9227C17.1186 22.7641 17.275 22.626 17.4457 22.5059C17.6163 22.3858 17.7823 22.2971 17.9624 22.2265C18.1426 22.1559 18.3181 22.1166 18.5078 22.0955C18.6642 22.0696 18.8327 22.0775 18.9963 22.1169Z" fill="white"/>
<path d="M42.1076 7.7726C42.257 7.79384 42.385 7.84411 42.5107 7.91007C42.6364 7.97604 42.7265 8.05298 42.8143 8.14563C42.902 8.23827 42.9708 8.34425 43.0207 8.46357C43.0706 8.58289 43.0849 8.71319 43.0969 8.85919C43.1017 9.05227 43.0545 9.25398 42.9598 9.43291C42.8651 9.61184 42.7515 9.80411 42.5928 9.95791C42.4341 10.1117 42.2422 10.2608 42.0385 10.3761C41.8347 10.4914 41.6025 10.5706 41.356 10.6318C41.2873 10.6381 41.2162 10.66 41.164 10.6686C41.0953 10.6749 41.0266 10.6812 40.9768 10.6741C40.9081 10.6803 40.8583 10.6732 40.7919 10.6638C40.7255 10.6544 40.6757 10.6473 40.626 10.6402C40.4766 10.619 40.3486 10.5687 40.2229 10.5027C40.0972 10.4368 40.0071 10.3598 39.9193 10.2672C39.8316 10.1745 39.7628 10.0686 39.7295 9.95161C39.6796 9.83229 39.6653 9.70199 39.6699 9.55835C39.665 9.36526 39.7289 9.16592 39.807 8.98463C39.9017 8.8057 40.0153 8.61343 40.174 8.45963C40.3327 8.30584 40.5246 8.15676 40.7284 8.04144C40.9321 7.92611 41.1643 7.8469 41.3942 7.78339C41.4629 7.77713 41.5341 7.75517 41.5862 7.74656C41.6549 7.7403 41.707 7.73167 41.7758 7.72541C41.8445 7.71915 41.8943 7.72623 41.9607 7.73567C41.9915 7.75609 42.0413 7.76316 42.1076 7.7726Z" fill="white"/>
<path d="M21.6014 24.4564C21.6181 24.4588 21.6347 24.4611 21.6513 24.4635C21.6679 24.4659 21.6845 24.4682 21.6845 24.4682C21.7011 24.4706 21.7177 24.473 21.7154 24.4887C21.732 24.491 21.7486 24.4934 21.7462 24.5091C21.8412 24.5547 21.9006 24.6112 21.9552 24.6992C21.9956 24.769 22.0337 24.8546 22.0361 24.9512C22.0386 25.0477 22.0244 25.1419 21.9937 25.2338C21.9629 25.3256 21.8966 25.4284 21.8302 25.5312C21.7662 25.6184 21.6879 25.6874 21.6121 25.7408C21.5362 25.7941 21.4437 25.8451 21.3535 25.8804C21.2634 25.9157 21.1756 25.9353 21.0712 25.9525C20.9858 25.9564 20.8837 25.9579 20.803 25.9304C20.7864 25.928 20.7698 25.9257 20.7532 25.9233C20.7366 25.921 20.72 25.9186 20.72 25.9186C20.7034 25.9162 20.6868 25.9139 20.6891 25.8982C20.6725 25.8958 20.6583 25.8777 20.6583 25.8777C20.5633 25.8322 20.5039 25.7756 20.4493 25.6877C20.4089 25.6178 20.3708 25.5322 20.3684 25.4356C20.3659 25.3391 20.3801 25.2449 20.4108 25.153C20.4416 25.0612 20.508 24.9584 20.5743 24.8556C20.6383 24.7685 20.7165 24.6994 20.7924 24.6461C20.8683 24.5927 20.9608 24.5417 21.051 24.5064C21.1411 24.4711 21.2289 24.4516 21.3333 24.4343C21.4187 24.4304 21.5184 24.4446 21.6014 24.4564Z" fill="white"/>
<path d="M41.7185 12.0078C41.7849 12.0172 41.8656 12.0447 41.913 12.0675C41.9771 12.0926 42.0222 12.1311 42.0649 12.1853C42.1076 12.2394 42.1338 12.2912 42.1599 12.343C42.1837 12.4105 42.1908 12.4756 42.198 12.5408C42.2005 12.6373 42.1674 12.7447 42.1366 12.8365C42.0893 12.926 42.023 13.0287 41.9447 13.0977C41.8642 13.1824 41.7694 13.2491 41.658 13.3134C41.5466 13.3777 41.4399 13.4106 41.3166 13.4411C41.281 13.4521 41.2478 13.4474 41.2122 13.4583C41.1767 13.4693 41.1435 13.4646 41.1103 13.4599C41.0771 13.4551 41.0415 13.4661 41.0249 13.4637C40.9917 13.459 40.9585 13.4543 40.9419 13.4519C40.8755 13.4425 40.7948 13.415 40.7497 13.3765C40.6857 13.3514 40.6406 13.3129 40.5978 13.2588C40.5551 13.2046 40.5289 13.1528 40.5028 13.101C40.479 13.0335 40.4718 12.9684 40.4647 12.9033C40.4622 12.8068 40.4953 12.6993 40.5427 12.6099C40.59 12.5204 40.654 12.4334 40.7346 12.3487C40.8151 12.264 40.9099 12.1973 41.0047 12.1307C41.1161 12.0664 41.2228 12.0335 41.3461 12.0029C41.3817 11.9919 41.4149 11.9967 41.4505 11.9857C41.486 11.9747 41.5192 11.9795 41.5525 11.9842C41.5857 11.9889 41.6212 11.9779 41.6378 11.9803C41.6544 11.9827 41.6876 11.9874 41.7185 12.0078Z" fill="white"/>
<path d="M11.7816 46.1897C11.8955 46.222 11.9904 46.2676 12.0829 46.3289C12.1755 46.3902 12.2681 46.4515 12.3393 46.5419C12.4129 46.6165 12.4842 46.7069 12.5198 46.8082C12.5721 46.9119 12.6078 47.0133 12.6221 47.1437C12.6579 47.3574 12.6438 47.564 12.5941 47.7816C12.5445 47.9992 12.445 48.2097 12.3147 48.3997C12.1843 48.5898 12.0208 48.7751 11.8287 48.9243C11.6367 49.0735 11.4138 49.2023 11.179 49.2973C11.0723 49.3302 10.9822 49.3656 10.8778 49.3828C10.7734 49.4001 10.6857 49.4197 10.5837 49.4212C10.4817 49.4227 10.3962 49.4266 10.3132 49.4148C10.2301 49.403 10.1305 49.3888 10.0498 49.3613C9.9359 49.3291 9.84099 49.2835 9.74842 49.2222C9.65585 49.1609 9.56329 49.0996 9.49205 49.0092C9.41845 48.9345 9.36617 48.8308 9.31154 48.7428C9.25926 48.6391 9.22598 48.5221 9.20928 48.4074C9.17353 48.1937 9.18759 47.9871 9.25385 47.7718C9.3035 47.5543 9.40296 47.3437 9.53329 47.1537C9.66362 46.9636 9.82719 46.7783 10.0192 46.6291C10.2113 46.4799 10.4342 46.3511 10.6666 46.2719C10.7733 46.2389 10.8635 46.2036 10.9678 46.1863C11.0722 46.1691 11.16 46.1495 11.262 46.1479C11.3474 46.144 11.4494 46.1425 11.5324 46.1543C11.6012 46.148 11.7009 46.1622 11.7816 46.1897Z" fill="white"/>
<path d="M15.4595 45.3757C15.5069 45.3984 15.5734 45.4079 15.6185 45.4464C15.6659 45.4692 15.711 45.5077 15.7561 45.5462C15.8012 45.5847 15.8273 45.6365 15.8535 45.6884C15.8796 45.7402 15.9057 45.7921 15.9129 45.8572C15.9319 45.9562 15.932 46.0685 15.8989 46.1761C15.8658 46.2837 15.816 46.3889 15.7497 46.4918C15.6834 46.5946 15.6028 46.6794 15.5056 46.7619C15.4084 46.8443 15.297 46.9087 15.1737 46.9393C15.1192 46.9636 15.067 46.9722 15.0148 46.9808C14.9627 46.9895 14.9105 46.9981 14.8749 47.0091C14.8227 47.0177 14.7729 47.0106 14.7397 47.0059C14.6899 46.9988 14.6567 46.9941 14.6069 46.987C14.5595 46.9642 14.493 46.9547 14.448 46.9163C14.4029 46.8778 14.3554 46.855 14.3103 46.8165C14.2652 46.778 14.2391 46.7261 14.2129 46.6743C14.1868 46.6224 14.1607 46.5706 14.1535 46.5054C14.1345 46.4064 14.1344 46.2941 14.1675 46.1865C14.2006 46.079 14.2503 45.9737 14.3167 45.8709C14.383 45.768 14.4636 45.6832 14.5608 45.6008C14.658 45.5183 14.7694 45.454 14.8761 45.421C14.9306 45.3967 14.9828 45.3881 15.0184 45.3771C15.0705 45.3685 15.1227 45.3598 15.1583 45.3489C15.2104 45.3402 15.2602 45.3473 15.2935 45.352C15.3765 45.3638 15.4263 45.3709 15.4595 45.3757Z" fill="white"/>
<path d="M62.8503 16.2369C62.8835 16.2417 62.9166 16.2464 62.9475 16.2668C62.9806 16.2715 63.0114 16.2919 63.0446 16.2966C63.0754 16.317 63.1086 16.3218 63.1228 16.3398C63.1537 16.3602 63.1679 16.3783 63.1987 16.3987C63.2912 16.4599 63.3457 16.5478 63.3837 16.6334C63.4217 16.7189 63.4407 16.8178 63.4266 16.9119C63.4124 17.0061 63.3793 17.1136 63.3296 17.2187C63.2799 17.3239 63.1995 17.4086 63.1024 17.491C63.0266 17.5443 62.9507 17.5977 62.8749 17.651C62.8015 17.6886 62.7115 17.7239 62.6215 17.7592C62.5315 17.7945 62.4462 17.7984 62.3609 17.8023C62.2755 17.8062 62.1926 17.7944 62.1097 17.7826C62.0765 17.7779 62.0433 17.7732 62.0125 17.7528C61.9793 17.7481 61.9485 17.7277 61.9319 17.7253C61.9011 17.7049 61.8679 17.7002 61.8536 17.6821C61.8228 17.6617 61.8086 17.6437 61.7778 17.6233C61.6853 17.562 61.6308 17.4741 61.5928 17.3886C61.5548 17.303 61.5358 17.2042 61.55 17.11C61.5641 17.0158 61.5972 16.9083 61.6469 16.8032C61.6966 16.6981 61.7771 16.6133 61.8742 16.531C61.95 16.4776 62.0258 16.4243 62.1015 16.3709C62.175 16.3333 62.265 16.298 62.3527 16.2784C62.4404 16.2588 62.528 16.2392 62.6133 16.2353C62.6844 16.2134 62.7673 16.2252 62.8503 16.2369Z" fill="white"/>
<path d="M66.6126 12.4276C66.679 12.4371 66.7453 12.4465 66.7927 12.4693C66.8567 12.4944 66.9065 12.5015 66.9705 12.5266C67.0344 12.5517 67.0819 12.5745 67.1435 12.6153C67.1909 12.6381 67.2525 12.6789 67.2976 12.7174C67.4635 12.8531 67.594 12.9999 67.6676 13.1867C67.7435 13.3577 67.7815 13.5555 67.7698 13.7461C67.7581 13.9368 67.6919 14.1518 67.5949 14.3463C67.4813 14.5385 67.3346 14.726 67.138 14.9064C67.0007 15.0312 66.8491 15.1378 66.6833 15.2265C66.5175 15.3151 66.3541 15.388 66.1788 15.4272C66.0011 15.4821 65.8282 15.5055 65.6576 15.5133C65.487 15.5211 65.3187 15.5133 65.1529 15.4897C65.0865 15.4802 65.0225 15.4551 64.9727 15.448C64.9087 15.4229 64.859 15.4158 64.795 15.3907C64.731 15.3656 64.6836 15.3428 64.622 15.302C64.5746 15.2792 64.5129 15.2384 64.4679 15.2C64.3019 15.0642 64.1738 14.9017 64.0979 14.7307C64.0219 14.5596 63.9839 14.3618 64.0146 14.1578C64.0263 13.9672 64.0925 13.7522 64.2061 13.56C64.3197 13.3678 64.4664 13.1803 64.6606 13.0156C64.7979 12.8909 64.9495 12.7842 65.113 12.7113C65.2788 12.6227 65.4398 12.5654 65.6175 12.5106C65.7952 12.4557 65.9681 12.4322 66.1387 12.4244C66.2808 12.3805 66.4657 12.3907 66.6126 12.4276Z" fill="white"/>
<path d="M29.2259 60.5805C29.3398 60.6128 29.4323 60.6741 29.5225 60.7511C29.5961 60.8257 29.6673 60.9161 29.703 61.0174C29.7386 61.1187 29.7553 61.2334 29.7388 61.3434C29.7223 61.4533 29.7034 61.579 29.6347 61.6976C29.5826 61.8185 29.4997 61.919 29.4001 62.0172C29.303 62.0996 29.1892 62.1797 29.0801 62.2283C28.971 62.277 28.8454 62.3233 28.7244 62.3382C28.6034 62.3531 28.4872 62.3365 28.3567 62.3019C28.2428 62.2697 28.1503 62.2084 28.0601 62.1314C27.9865 62.0568 27.9152 61.9664 27.8796 61.8651C27.8439 61.7637 27.8272 61.6491 27.8438 61.5391C27.8603 61.4291 27.8792 61.3035 27.9479 61.1849C28.0166 61.0663 28.0829 60.9635 28.1824 60.8653C28.2796 60.7829 28.3934 60.7028 28.5025 60.6541C28.6116 60.6055 28.7372 60.5592 28.8582 60.5443C28.9958 60.5318 29.1144 60.5326 29.2259 60.5805Z" fill="white"/>
<path d="M27.5702 64.0049C27.7956 64.0851 27.9997 64.1944 28.1635 64.346C28.3273 64.4977 28.4342 64.6894 28.5055 64.8921C28.5769 65.0948 28.6102 65.3241 28.5914 65.5621C28.5726 65.8001 28.5017 66.0468 28.3809 66.2863C28.2601 66.5259 28.0919 66.7426 27.9117 66.9256C27.715 67.1062 27.5063 67.253 27.2692 67.3637C27.0321 67.4743 26.7854 67.5355 26.5435 67.5653C26.3016 67.5951 26.0524 67.5596 25.8104 67.4771C25.585 67.3969 25.3833 67.2719 25.2195 67.1203C25.0557 66.9686 24.9488 66.7769 24.8775 66.5742C24.8061 66.3715 24.7727 66.1422 24.8081 65.9065C24.8269 65.6685 24.8979 65.4219 25.0187 65.1824C25.1395 64.9428 25.3078 64.7261 25.4879 64.5431C25.6846 64.3625 25.8933 64.2157 26.1304 64.105C26.3676 63.9943 26.5976 63.9308 26.8561 63.9034C27.0933 63.905 27.3448 63.9248 27.5702 64.0049Z" fill="white"/>
<path d="M69.5327 35.8899C69.6464 35.9221 69.7436 35.9519 69.8195 36.0108C69.8954 36.0697 69.9712 36.1285 70.0281 36.2008C70.0851 36.273 70.1231 36.3585 70.1421 36.4574C70.1611 36.5563 70.1636 36.6528 70.1494 36.7469C70.1305 36.8725 70.0808 36.9776 69.998 37.0781C69.9317 37.1808 69.8322 37.2789 69.7375 37.3456C69.6238 37.4256 69.5125 37.4899 69.3893 37.5205C69.2637 37.5667 69.1263 37.5793 68.9912 37.5761C68.9746 37.5737 68.958 37.5714 68.9414 37.569C68.9248 37.5667 68.9082 37.5643 68.8916 37.5619C68.875 37.5596 68.8585 37.5572 68.8419 37.5549C68.8253 37.5525 68.8087 37.5501 68.7921 37.5478C68.6783 37.5156 68.5812 37.4857 68.5053 37.4269C68.4294 37.368 68.3536 37.3091 68.2966 37.2369C68.2397 37.1647 68.2017 37.0792 68.1827 36.9803C68.1637 36.8814 68.1612 36.7849 68.1754 36.6907C68.1942 36.5652 68.2439 36.46 68.3268 36.3596C68.3931 36.2568 68.4926 36.1588 68.5873 36.0921C68.701 36.0121 68.8123 35.9478 68.9355 35.9172C69.0611 35.8709 69.1985 35.8584 69.3336 35.8616C69.3502 35.8639 69.3668 35.8663 69.3834 35.8686C69.3999 35.871 69.4165 35.8734 69.4331 35.8757C69.4497 35.8781 69.4663 35.8804 69.4829 35.8828C69.5018 35.8695 69.5184 35.8718 69.5327 35.8899Z" fill="white"/>
<path d="M74.7353 35.1447C74.9486 35.191 75.1572 35.2688 75.3255 35.3889C75.4962 35.4933 75.6456 35.6267 75.7571 35.7868C75.8685 35.9469 75.9445 36.118 76.0015 36.3024C76.0419 36.4845 76.0444 36.6932 76.0138 36.8972C75.976 37.1483 75.8743 37.3742 75.7251 37.5774C75.5926 37.783 75.3961 37.9634 75.1853 38.1258C74.9745 38.2881 74.7211 38.3963 74.47 38.4889C74.2046 38.5633 73.925 38.6198 73.6549 38.6134C73.6217 38.6087 73.572 38.6016 73.5364 38.6126C73.5032 38.6079 73.4535 38.6008 73.4203 38.5961C73.3871 38.5914 73.354 38.5866 73.3042 38.5796C73.271 38.5749 73.2378 38.5701 73.2046 38.5654C72.9914 38.5191 72.7851 38.4256 72.6145 38.3212C72.4438 38.2168 72.2944 38.0834 72.1829 37.9233C72.0714 37.7632 71.9955 37.5921 71.9551 37.4101C71.9147 37.228 71.9121 37.0193 71.9428 36.8153C71.9947 36.5822 72.0799 36.3539 72.2314 36.135C72.3639 35.9295 72.5605 35.7491 72.7713 35.5867C72.9797 35.44 73.2189 35.3137 73.4866 35.2236C73.7353 35.1467 74.0149 35.0903 74.3017 35.099C74.3348 35.1038 74.387 35.0951 74.4201 35.0999C74.4533 35.1046 74.4865 35.1093 74.5362 35.1164C74.5694 35.1211 74.6026 35.1258 74.6524 35.1329C74.6524 35.1329 74.6855 35.1376 74.7353 35.1447Z" fill="white"/>
<path d="M54.3018 56.7104C54.3516 56.7174 54.399 56.7402 54.4464 56.763C54.4938 56.7858 54.5413 56.8086 54.5698 56.8447C54.6148 56.8831 54.6457 56.9036 54.6907 56.942C54.7192 56.9782 54.7643 57.0166 54.7904 57.0685C54.8592 57.1745 54.8925 57.2914 54.8926 57.4037C54.9093 57.5183 54.8904 57.6439 54.8383 57.7648C54.8029 57.888 54.7366 57.9908 54.6537 58.0913C54.5708 58.1917 54.4547 58.2875 54.3433 58.3518C54.2698 58.3894 54.1964 58.4271 54.1253 58.4491C54.0542 58.471 53.9665 58.4906 53.8977 58.4969C53.829 58.5031 53.7436 58.507 53.6773 58.4976C53.6109 58.4882 53.5279 58.4764 53.4616 58.4669C53.4118 58.4598 53.3643 58.4371 53.3169 58.4143C53.2695 58.3915 53.222 58.3687 53.1936 58.3326C53.1485 58.2941 53.1177 58.2737 53.0726 58.2352C53.0441 58.1991 52.999 58.1606 52.9729 58.1088C52.9041 58.0028 52.8708 57.8859 52.8708 57.7736C52.8541 57.659 52.873 57.5334 52.925 57.4125C52.9605 57.2893 53.0268 57.1865 53.1097 57.086C53.1926 56.9856 53.2921 56.8875 53.42 56.8255C53.4935 56.7878 53.567 56.7502 53.6381 56.7282C53.7092 56.7063 53.7802 56.6843 53.8656 56.6804C53.9343 56.6741 54.0197 56.6702 54.086 56.6797C54.1548 56.6734 54.2212 56.6829 54.3018 56.7104Z" fill="white"/>
<path d="M56.9583 59.6052C57.0556 59.6351 57.1694 59.6673 57.2477 59.7105C57.3425 59.7561 57.435 59.8173 57.511 59.8762C57.6035 59.9375 57.677 60.0121 57.7506 60.0867C57.8242 60.1613 57.8787 60.2493 57.9499 60.3396C58.0876 60.5516 58.1542 60.7856 58.1852 61.0306C58.1996 61.2732 58.1784 61.5268 58.0932 61.7553C58.0057 61.9994 57.8873 62.2231 57.7191 62.4398C57.5533 62.6407 57.3377 62.8346 57.0794 62.9743C56.9301 63.0653 56.7855 63.1249 56.6243 63.1822C56.4631 63.2395 56.3232 63.2677 56.1668 63.2936C56.0103 63.3194 55.8585 63.3139 55.7068 63.3084C55.5551 63.3028 55.408 63.2659 55.2776 63.2313C55.1803 63.2014 55.0689 63.1535 54.974 63.1079C54.8791 63.0624 54.7866 63.0011 54.7107 62.9422C54.6348 62.8833 54.5446 62.8063 54.4711 62.7317C54.3975 62.6571 54.3429 62.5691 54.2883 62.4812C54.1507 62.2692 54.0841 62.0352 54.0697 61.7926C54.0553 61.55 54.0741 61.3121 54.1616 61.0679C54.2468 60.8395 54.3676 60.6 54.5334 60.3991C54.6992 60.1981 54.9149 60.0043 55.1732 59.8646C55.3225 59.7736 55.4671 59.7139 55.6116 59.6543C55.7562 59.5947 55.9127 59.5688 56.0692 59.5429C56.2257 59.5171 56.3774 59.5226 56.5125 59.5258C56.6809 59.5337 56.8137 59.5526 56.9583 59.6052Z" fill="white"/>
<path d="M79.5402 46.7789C77.3896 53.1757 73.3054 58.9418 67.997 63.5502L65.6627 60.9286L65.6483 60.9105L77.5539 44.2231L79.5402 46.7789Z" fill="#C9C9C9"/>
<path d="M79.0538 29.5709L75.9685 23.9721L72.7619 18.1631L75.8604 20.1634C76.4246 21.1599 76.9175 22.1784 77.3534 23.237C78.5607 25.836 79.3971 28.3018 79.9411 30.5652L79.0538 29.5709Z" fill="#C9C9C9"/>
<path d="M53.4816 72.4364C48.8362 74.0317 43.8841 74.8675 38.872 74.7564C37.3973 74.7209 35.9342 74.6074 34.5322 74.4232L31.6801 71.2329L51.206 69.551L51.2201 69.5689L53.4816 72.4364Z" fill="#C9C9C9"/>
<path d="M21.277 69.157C18.1257 66.8028 14.8577 63.4229 12.0391 59.3058C11.8423 59.0376 11.6622 58.7717 11.4678 58.4878L11.2922 58.0784L12.1122 58.9318L18.6792 65.8243L21.277 69.157Z" fill="#C9C9C9"/>
<path d="M79.0903 29.5385C69.1437 29.1991 68.8467 25.9778 68.24 24.3662C67.7285 23.025 67.4302 21.0558 72.5127 15.4689C76.0363 19.3581 78.35 24.1829 79.0903 29.5385Z" fill="white"/>
<path d="M77.5862 44.2217C75.319 50.6062 71.1246 56.3462 65.7136 60.8994L65.6993 60.8813C63.3047 56.6637 61.3916 53.4315 64.7117 48.6446C67.989 43.9161 74.4254 44.3183 77.5862 44.2217Z" fill="white"/>
<path d="M51.2582 69.4532C46.7328 70.9469 41.9262 71.7306 37.0668 71.6293C35.201 71.5871 33.3868 71.4246 31.6434 71.1286C32.9719 68.9086 35.8242 63.9539 40.5766 63.1944C47.0225 62.1655 48.2025 65.6519 51.2582 69.4532C51.244 69.4352 51.2582 69.4532 51.2582 69.4532Z" fill="white"/>
<path d="M18.7105 65.7584C14.4276 62.7753 11.1448 58.7794 9.19901 54.1235C15.0648 52.3269 17.8733 53.0471 19.9126 55.9518C21.9496 58.8722 19.7682 62.5562 18.7105 65.7584Z" fill="white"/>
<path d="M15.4945 34.7181C13.9241 39.0591 10.1939 40.155 7.20149 41.5662C7.28778 40.3041 7.44325 39.0357 7.68699 37.7477C8.42292 33.852 9.88213 30.1404 11.9145 26.7044C15.0655 29.0264 17.084 30.3637 15.4945 34.7181Z" fill="white"/>
<path d="M34.6832 7.87027C34.1382 10.8206 34.1898 13.5194 30.4187 16.0752C26.1031 18.9862 22.7056 17.2536 20.0807 16.3517C24.2892 12.6886 29.2846 9.76215 34.6832 7.87027Z" fill="white"/>
<path d="M62.2881 7.9688C58.6008 10.995 56.1412 12.3487 52.1204 11.6482C48.116 10.9501 47.7016 8.7727 47.3094 5.32434C47.9688 5.30683 48.6424 5.30727 49.3136 5.3233C54.0639 5.42694 58.4359 6.36859 62.2881 7.9688Z" fill="white"/>
</svg>
