<svg width="122" height="119" viewBox="0 0 122 119" fill="none" xmlns="http://www.w3.org/2000/svg">
<path d="M98.3421 103.519C86.3842 111.852 75.3272 114.138 69.4839 114.294C39.5743 115.087 10.4866 91.9299 4.51253 62.5663C3.02362 55.2461 3.11217 48.2309 4.5465 41.8122C6.11935 34.776 11.7279 25.5403 20.2756 17.2829L98.3421 103.519Z" fill="#C1069E"/>
<path d="M117.222 56.0313C123.199 85.4068 103.785 109.862 73.8647 110.659C43.941 111.452 14.8411 88.2858 8.86431 58.9103C2.88843 29.537 22.299 5.08014 52.2225 4.28523C82.1438 3.49046 111.246 26.6594 117.222 56.0313Z" fill="#FF00C8"/>
<path d="M99.2246 53.5288C102.914 71.6636 90.9294 86.7608 72.4587 87.2529C53.9848 87.7424 36.0207 73.4402 32.3311 55.3061C28.6408 37.1728 40.6248 22.0742 59.0971 21.5835C77.5694 21.0927 95.5358 35.3961 99.2246 53.5288Z" fill="white"/>
<path d="M97.3214 53.3152C100.774 70.2846 89.5594 84.412 72.2743 84.8728C54.9875 85.3315 38.1767 71.9477 34.7246 54.9783C31.2718 38.0104 42.4851 23.8816 59.7718 23.4221C77.0571 22.9628 93.8694 36.3472 97.3214 53.3152Z" fill="#FF00C8"/>
<path d="M93.9605 53.2583C97.0273 68.3318 87.0658 80.8807 71.7128 81.2896C56.3575 81.6957 41.4255 69.8091 38.3587 54.7357C35.292 39.6629 45.2528 27.1133 60.6073 26.7058C75.9603 26.2976 90.8939 38.1863 93.9605 53.2583Z" fill="white"/>
<path d="M80.8384 16.1457C80.8378 16.1881 80.8357 16.2298 80.8329 16.2715C80.8293 16.3133 80.8249 16.3544 80.819 16.3956C80.8132 16.4368 80.8058 16.4774 80.7969 16.5173C80.7873 16.558 80.7776 16.5979 80.7657 16.638C80.6818 16.9195 80.5326 17.1537 80.3343 17.3362C80.1352 17.5195 79.8862 17.6517 79.6048 17.7276C79.3226 17.8028 79.0079 17.8222 78.6776 17.7814C78.3465 17.7398 77.9991 17.638 77.6526 17.4705C77.3541 17.3263 77.081 17.1457 76.8388 16.9391C76.5966 16.7325 76.386 16.5015 76.2137 16.2557C76.0407 16.01 75.9068 15.7503 75.8166 15.488C75.7272 15.2257 75.6814 14.9607 75.6861 14.7037C75.6874 14.6613 75.6895 14.6204 75.6931 14.5786C75.6967 14.5368 75.7019 14.4964 75.7077 14.4552C75.7136 14.414 75.7218 14.3741 75.7307 14.3342C75.7403 14.2935 75.7508 14.2542 75.7627 14.2148C75.8496 13.9339 76.0018 13.701 76.2033 13.5205C76.4048 13.3392 76.6547 13.2098 76.9371 13.1369C77.2188 13.0639 77.5328 13.0467 77.8625 13.0897C78.1915 13.1329 78.5368 13.2355 78.881 13.4032C79.1766 13.5468 79.4472 13.7254 79.687 13.9292C79.9261 14.1338 80.1358 14.3627 80.3071 14.6056C80.4792 14.8492 80.6136 15.1059 80.7044 15.366C80.7944 15.6261 80.8416 15.8895 80.8384 16.1457Z" fill="white"/>
<path d="M111.086 45.8208C111.094 46.0427 111.069 46.2534 111.014 46.4477C110.958 46.6428 110.872 46.8207 110.756 46.9771C110.641 47.1334 110.497 47.2681 110.326 47.3745C110.154 47.481 109.957 47.5598 109.735 47.6044C109.425 47.6673 109.097 47.6577 108.77 47.5868C108.443 47.5159 108.116 47.3859 107.806 47.2046C107.498 47.024 107.208 46.7927 106.955 46.5227C106.703 46.2526 106.487 45.944 106.328 45.6072C106.283 45.5121 106.244 45.4183 106.21 45.3255C106.176 45.2327 106.148 45.1389 106.125 45.0477C106.102 44.9557 106.084 44.8649 106.072 44.7753C106.059 44.6856 106.052 44.5979 106.05 44.512C106.044 44.2892 106.07 44.0784 106.128 43.884C106.186 43.6895 106.274 43.5122 106.391 43.3572C106.508 43.203 106.654 43.0704 106.827 42.966C106.999 42.8617 107.198 42.785 107.42 42.7426C107.729 42.6834 108.055 42.6946 108.38 42.7656C108.705 42.8366 109.029 42.9675 109.335 43.1475C109.64 43.3269 109.927 43.5555 110.178 43.8227C110.43 44.0906 110.643 44.3964 110.804 44.731C110.849 44.8253 110.888 44.9184 110.922 45.0112C110.956 45.104 110.985 45.1963 111.009 45.2874C111.032 45.3794 111.05 45.4694 111.064 45.5583C111.075 45.6473 111.084 45.735 111.086 45.8208Z" fill="white"/>
<path d="M78.0016 20.7667C78.0017 20.7878 78.0003 20.8098 77.9989 20.8303C77.9975 20.8508 77.9946 20.8729 77.9917 20.8928C77.9888 20.9141 77.9844 20.9348 77.9799 20.9547C77.9755 20.9747 77.9704 20.9962 77.9644 21.0155C77.9215 21.1588 77.845 21.2794 77.7442 21.3737C77.6426 21.4673 77.5168 21.5346 77.374 21.5738C77.2311 21.6129 77.072 21.6231 76.9047 21.6032C76.7375 21.5832 76.5619 21.5324 76.3868 21.448C76.2365 21.3767 76.0989 21.2857 75.9774 21.1813C75.8552 21.0784 75.7498 20.9614 75.6625 20.8368C75.5759 20.7128 75.5074 20.5812 75.4625 20.4482C75.4176 20.3144 75.3942 20.1801 75.3971 20.0486C75.397 20.0282 75.3984 20.0062 75.4005 19.9849C75.4019 19.9644 75.4048 19.9424 75.4085 19.9225C75.4114 19.9019 75.415 19.8805 75.4195 19.8605C75.4247 19.8405 75.4298 19.8191 75.4358 19.7997C75.4794 19.6563 75.5559 19.5365 75.6576 19.4436C75.7592 19.35 75.8858 19.2834 76.0287 19.245C76.1715 19.2065 76.3306 19.1963 76.4972 19.217C76.6646 19.2377 76.8386 19.2886 77.0129 19.3724C77.1625 19.4444 77.2994 19.5347 77.4201 19.6384C77.5416 19.7414 77.6469 19.8577 77.7342 19.9816C77.8207 20.1056 77.8884 20.2358 77.934 20.3687C77.9796 20.5017 78.003 20.636 78.0016 20.7667Z" fill="white"/>
<path d="M104.295 46.6081C104.298 46.7195 104.284 46.8268 104.255 46.9255C104.226 47.0242 104.181 47.1144 104.12 47.1931C104.061 47.2725 103.987 47.3396 103.899 47.3938C103.811 47.4479 103.71 47.4874 103.597 47.5102C103.44 47.5414 103.273 47.5375 103.108 47.5014C102.942 47.4661 102.776 47.4008 102.621 47.3087C102.465 47.2174 102.319 47.1007 102.192 46.9653C102.064 46.8285 101.957 46.6723 101.876 46.5028C101.854 46.4553 101.834 46.4083 101.818 46.3612C101.801 46.3148 101.787 46.2675 101.777 46.2222C101.765 46.1762 101.756 46.13 101.751 46.0859C101.745 46.041 101.741 45.996 101.74 45.9523C101.738 45.8402 101.752 45.7329 101.782 45.6348C101.812 45.536 101.858 45.4465 101.917 45.3679C101.977 45.2892 102.052 45.222 102.14 45.1687C102.227 45.1153 102.329 45.0772 102.443 45.0551C102.6 45.0245 102.765 45.0293 102.931 45.0646C103.096 45.1 103.261 45.166 103.416 45.2567C103.571 45.3481 103.716 45.4642 103.842 45.5988C103.969 45.7342 104.077 45.889 104.157 46.0585C104.179 46.1053 104.198 46.153 104.216 46.1993C104.232 46.2458 104.246 46.293 104.257 46.3383C104.269 46.3843 104.277 46.4305 104.284 46.4746C104.29 46.5201 104.293 46.5644 104.295 46.6081Z" fill="white"/>
<path d="M40.5269 13.2105C40.5138 13.3842 40.4771 13.5513 40.4196 13.7087C40.3622 13.8661 40.2816 14.0132 40.1801 14.1484C40.0785 14.2828 39.9566 14.4047 39.8134 14.5102C39.6695 14.6151 39.505 14.7044 39.3212 14.7738C39.0014 14.895 38.6509 14.9443 38.292 14.9307C37.9331 14.917 37.5651 14.8405 37.2092 14.7077C36.8534 14.5757 36.5106 14.3882 36.2014 14.1527C35.8914 13.9165 35.6166 13.6337 35.3961 13.3112C35.3026 13.1745 35.2231 13.0355 35.1562 12.8965C35.0893 12.7582 35.0366 12.6191 34.9965 12.4814C34.9566 12.3444 34.9299 12.2066 34.9163 12.0732C34.9018 11.9383 34.9009 11.8063 34.9114 11.6787C34.926 11.5049 34.9641 11.337 35.0246 11.1802C35.0851 11.0234 35.1672 10.8769 35.2703 10.7431C35.3734 10.6093 35.4984 10.4895 35.6432 10.3852C35.788 10.2818 35.9534 10.1946 36.1381 10.1274C36.4574 10.0098 36.8073 9.96273 37.1649 9.97791C37.5224 9.99309 37.8868 10.0713 38.2396 10.2028C38.5917 10.335 38.9307 10.5213 39.2376 10.7548C39.5436 10.9883 39.8175 11.2689 40.0355 11.5879C40.1289 11.7239 40.2084 11.8614 40.2751 11.9983C40.3418 12.1351 40.3953 12.2735 40.436 12.4104C40.4759 12.5467 40.504 12.6836 40.5191 12.817C40.5343 12.9511 40.5374 13.0822 40.5269 13.2105Z" fill="white"/>
<path d="M42.9954 18.4282C42.9878 18.5163 42.9711 18.6005 42.9421 18.681C42.9131 18.7616 42.874 18.8354 42.8226 18.9041C42.7712 18.9729 42.7111 19.0349 42.6392 19.088C42.5674 19.1419 42.4852 19.1877 42.3934 19.2231C42.2344 19.2851 42.0601 19.3116 41.8819 19.3061C41.7038 19.3007 41.5195 19.2628 41.3427 19.1967C41.1653 19.1313 40.9939 19.0372 40.8386 18.9195C40.6848 18.8016 40.5463 18.6596 40.4353 18.4976C40.3878 18.4289 40.3477 18.3591 40.3142 18.2888C40.2807 18.2193 40.2539 18.1494 40.2339 18.0798C40.213 18.0095 40.199 17.941 40.1917 17.8728C40.1844 17.8047 40.1838 17.7376 40.188 17.6731C40.1955 17.5851 40.2138 17.5008 40.2428 17.421C40.2726 17.3411 40.3116 17.2658 40.3638 17.1977C40.4138 17.1298 40.4761 17.0685 40.548 17.0153C40.6199 16.9621 40.7021 16.9171 40.7939 16.8817C40.9538 16.8211 41.1274 16.7954 41.3057 16.8023C41.484 16.8092 41.6668 16.8472 41.8435 16.9125C42.0201 16.9779 42.1907 17.0714 42.3445 17.1892C42.4982 17.3056 42.6352 17.447 42.7461 17.6075C42.7936 17.6762 42.8337 17.7453 42.8672 17.8148C42.9006 17.8844 42.9273 17.9536 42.9489 18.0231C42.9689 18.0927 42.983 18.1612 42.991 18.2293C42.9975 18.2968 42.9995 18.3631 42.9954 18.4282Z" fill="white"/>
<path d="M104.607 79.3727C104.608 79.4207 104.607 79.4697 104.602 79.5166C104.597 79.5635 104.591 79.6113 104.581 79.6571C104.571 79.7029 104.558 79.7481 104.543 79.7928C104.527 79.8368 104.509 79.8794 104.487 79.9215C104.411 80.0689 104.305 80.1861 104.177 80.2703C104.048 80.3545 103.899 80.4078 103.739 80.4276C103.578 80.4474 103.405 80.4336 103.231 80.3857C103.056 80.3371 102.879 80.255 102.71 80.136C102.588 80.0522 102.479 79.9544 102.383 79.8486C102.287 79.7428 102.205 79.6281 102.138 79.5082C102.07 79.389 102.018 79.2638 101.982 79.1376C101.945 79.0122 101.926 78.8858 101.922 78.7613C101.921 78.7133 101.923 78.6643 101.927 78.6174C101.931 78.5698 101.939 78.5227 101.949 78.4769C101.959 78.4311 101.972 78.3858 101.988 78.3419C102.003 78.2979 102.022 78.2552 102.043 78.2139C102.121 78.0671 102.228 77.9506 102.357 77.8671C102.485 77.7836 102.635 77.731 102.796 77.7119C102.957 77.6936 103.129 77.7074 103.303 77.7561C103.477 77.8048 103.653 77.8869 103.821 78.0052C103.941 78.0898 104.05 78.1869 104.145 78.292C104.241 78.3972 104.322 78.5112 104.389 78.6296C104.457 78.7488 104.509 78.8725 104.545 78.998C104.583 79.1226 104.604 79.2489 104.607 79.3727Z" fill="white"/>
<path d="M111.882 83.7371C111.886 83.8346 111.884 83.9316 111.876 84.0268C111.868 84.122 111.856 84.2168 111.838 84.309C111.819 84.4019 111.795 84.493 111.765 84.5815C111.735 84.67 111.7 84.7567 111.658 84.8408C111.51 85.1382 111.3 85.3745 111.049 85.5469C110.796 85.7194 110.501 85.8288 110.182 85.8697C109.862 85.9121 109.519 85.8873 109.172 85.7929C108.824 85.6992 108.471 85.5351 108.133 85.2994C107.89 85.1302 107.671 84.9355 107.479 84.7225C107.287 84.5102 107.122 84.2795 106.987 84.039C106.851 83.7993 106.745 83.5498 106.671 83.2976C106.597 83.0448 106.556 82.7907 106.549 82.5418C106.546 82.4443 106.549 82.3472 106.557 82.252C106.565 82.1567 106.578 82.0627 106.598 81.9704C106.617 81.8774 106.643 81.787 106.673 81.6984C106.704 81.6106 106.741 81.5246 106.783 81.4404C106.935 81.1449 107.147 80.9122 107.402 80.7418C107.655 80.5729 107.951 80.4678 108.269 80.4284C108.587 80.3898 108.928 80.4161 109.273 80.5107C109.618 80.6061 109.967 80.7689 110.301 81.0034C110.542 81.1713 110.758 81.3639 110.949 81.5741C111.139 81.7851 111.304 82.0121 111.439 82.2504C111.574 82.488 111.68 82.736 111.755 82.9859C111.83 83.2359 111.873 83.4891 111.882 83.7371Z" fill="white"/>
<path d="M23.6061 43.798C23.5884 43.98 23.5277 44.1442 23.4354 44.2833C23.3433 44.4237 23.218 44.5392 23.069 44.6255C22.9192 44.7117 22.7458 44.7702 22.5571 44.7931C22.3684 44.8161 22.1645 44.8049 21.954 44.7539C21.7434 44.703 21.5474 44.6176 21.3718 44.5062C21.1961 44.3948 21.0424 44.258 20.9179 44.1041C20.7919 43.9504 20.6945 43.781 20.6351 43.6036C20.5743 43.4262 20.5494 43.2416 20.5685 43.0588C20.5876 42.8759 20.6491 42.7125 20.7421 42.5734C20.8359 42.4342 20.9611 42.3188 21.1109 42.2325C21.2614 42.1469 21.4342 42.0899 21.6229 42.067C21.8116 42.0441 22.0141 42.0568 22.2246 42.107C22.433 42.1581 22.6283 42.2442 22.8038 42.3542C22.978 42.4657 23.1309 42.6018 23.2561 42.7549C23.3805 42.9073 23.4779 43.0759 23.5386 43.2525C23.5994 43.4292 23.6244 43.6152 23.6061 43.798Z" fill="white"/>
<path d="M17.6711 42.4395C17.6307 42.8053 17.5078 43.1337 17.3175 43.415C17.1278 43.6955 16.8721 43.9282 16.5667 44.1032C16.262 44.2775 15.9083 44.3934 15.5249 44.4396C15.1408 44.4866 14.7262 44.4646 14.2983 44.3624C13.8724 44.2587 13.4735 44.0869 13.1182 43.8622C12.7637 43.6374 12.4522 43.3612 12.2 43.0516C11.9478 42.7426 11.7549 42.3995 11.6367 42.0418C11.5171 41.6848 11.4724 41.3139 11.5157 40.9465C11.5598 40.5798 11.6879 40.2519 11.8814 39.9726C12.0748 39.6933 12.3352 39.4632 12.6424 39.2924C12.9496 39.1216 13.3028 39.0094 13.6864 38.9661C14.0701 38.9228 14.4812 38.9479 14.9047 39.0511C15.3284 39.155 15.7221 39.3271 16.0735 39.5498C16.4249 39.7726 16.7317 40.0454 16.9829 40.3522C17.2326 40.6577 17.4245 40.9972 17.5446 41.3504C17.6632 41.7045 17.7115 42.073 17.6711 42.4395Z" fill="white"/>
<path d="M75.8632 95.6624C75.8607 95.8273 75.8292 95.983 75.7734 96.1227C75.7178 96.2631 75.6364 96.3883 75.5342 96.4928C75.4321 96.598 75.3091 96.6827 75.1686 96.7421C75.0289 96.8022 74.871 96.8364 74.7004 96.8407C74.5022 96.8445 74.3055 96.8074 74.1189 96.7361C73.9323 96.6648 73.7557 96.5594 73.5988 96.4273C73.4418 96.2959 73.3045 96.1379 73.1963 95.962C73.0881 95.7862 73.009 95.5926 72.9684 95.3872C72.9626 95.3584 72.9575 95.3302 72.9532 95.3021C72.9489 95.2746 72.9453 95.2464 72.9432 95.2188C72.9412 95.1912 72.9391 95.1636 72.9379 95.1367C72.9366 95.1098 72.936 95.0821 72.937 95.0558C72.9403 94.8901 72.9733 94.735 73.0299 94.5961C73.0863 94.4563 73.1685 94.3319 73.2715 94.2287C73.3737 94.1242 73.4975 94.041 73.638 93.9816C73.7779 93.9237 73.9351 93.8903 74.1051 93.8874C74.3025 93.8837 74.4992 93.9208 74.6858 93.9921C74.8717 94.0627 75.0475 94.1681 75.2043 94.2988C75.3605 94.4295 75.4977 94.5861 75.6059 94.7612C75.714 94.9356 75.7931 95.1299 75.8342 95.3331C75.8401 95.3612 75.8451 95.3893 75.8495 95.4175C75.8537 95.4449 75.8565 95.4725 75.8593 95.5C75.8621 95.5276 75.8634 95.5545 75.8646 95.5814C75.8637 95.6091 75.8635 95.6354 75.8632 95.6624Z" fill="white"/>
<path d="M78.7532 103.142C78.7485 103.478 78.6873 103.795 78.5756 104.081C78.4639 104.368 78.3026 104.626 78.0979 104.842C77.8933 105.059 77.6471 105.235 77.3642 105.359C77.0822 105.484 76.7651 105.557 76.421 105.568C76.0206 105.581 75.6221 105.509 75.2443 105.367C74.8658 105.224 74.509 105.013 74.1919 104.747C73.8741 104.482 73.5961 104.162 73.3777 103.805C73.1586 103.448 72.9984 103.053 72.9146 102.637C72.9036 102.579 72.8934 102.522 72.8855 102.465C72.8775 102.408 72.8711 102.352 72.8662 102.296C72.8605 102.24 72.8579 102.185 72.8553 102.13C72.8527 102.074 72.853 102.02 72.8542 101.965C72.861 101.628 72.9266 101.31 73.0413 101.025C73.1561 100.74 73.3213 100.484 73.5284 100.27C73.7354 100.057 73.9834 99.8829 74.2664 99.7618C74.5487 99.64 74.8654 99.5709 75.2081 99.5621C75.605 99.5523 75.9999 99.6257 76.374 99.7682C76.748 99.9106 77.1011 100.121 77.4158 100.384C77.7297 100.647 78.0052 100.963 78.2239 101.315C78.442 101.669 78.6027 102.06 78.687 102.473C78.6987 102.53 78.7089 102.587 78.7175 102.643C78.7254 102.7 78.7326 102.756 78.7382 102.812C78.7431 102.867 78.7473 102.923 78.7499 102.978C78.7525 103.033 78.7536 103.088 78.7532 103.142Z" fill="white"/>
<path d="M38.0049 79.7732C37.999 79.8524 37.9861 79.9297 37.9672 80.0053C37.9476 80.0809 37.9203 80.154 37.8868 80.2238C37.8534 80.2944 37.8139 80.3616 37.765 80.4251C37.7185 80.4884 37.6634 80.5479 37.6021 80.6026C37.4562 80.7302 37.2859 80.8191 37.1024 80.8716C36.9183 80.9242 36.7208 80.9389 36.5223 80.9179C36.3237 80.8969 36.1231 80.8388 35.9319 80.7473C35.7421 80.6551 35.561 80.5287 35.4026 80.3689C35.3117 80.2766 35.2338 80.1791 35.1674 80.0758C35.101 79.9733 35.0463 79.8678 35.0041 79.7602C34.9627 79.6532 34.9344 79.5426 34.9166 79.4342C34.8996 79.3251 34.8952 79.2159 34.9037 79.1104C34.9111 79.0312 34.9232 78.9531 34.9429 78.8783C34.9633 78.8027 34.9898 78.7296 35.024 78.6597C35.0581 78.5891 35.0993 78.5225 35.1481 78.459C35.1962 78.3963 35.2513 78.3376 35.3134 78.2828C35.4586 78.156 35.6289 78.0671 35.8132 78.016C35.9975 77.9649 36.1942 77.951 36.3921 77.9727C36.5907 77.9937 36.7898 78.0519 36.9787 78.1428C37.1685 78.2358 37.3481 78.3615 37.5058 78.5213C37.5958 78.613 37.6745 78.7104 37.74 78.8115C37.8064 78.9141 37.8603 79.0188 37.9024 79.1257C37.9439 79.2327 37.9736 79.3418 37.9913 79.4502C38.0075 79.5586 38.0119 79.6671 38.0049 79.7732Z" fill="white"/>
<path d="M34.3317 84.6599C34.3192 84.8211 34.2923 84.9788 34.2525 85.1329C34.2119 85.287 34.1569 85.4368 34.0873 85.581C34.0177 85.7252 33.9357 85.8621 33.8375 85.9919C33.7394 86.1225 33.6273 86.2436 33.5018 86.3561C33.2047 86.6203 32.857 86.8051 32.4822 86.915C32.1067 87.0241 31.7046 87.0576 31.2978 87.0176C30.8924 86.9762 30.4832 86.8627 30.0945 86.6766C29.7066 86.4911 29.3394 86.2337 29.0191 85.9064C28.8349 85.7197 28.6757 85.5199 28.542 85.312C28.409 85.104 28.3 84.8881 28.2168 84.6692C28.1335 84.4502 28.076 84.2269 28.0438 84.0042C28.0116 83.7815 28.0047 83.5602 28.0235 83.3432C28.0375 83.1819 28.0652 83.0235 28.1072 82.8693C28.1501 82.7157 28.2066 82.5665 28.277 82.423C28.3474 82.2795 28.4324 82.1432 28.5321 82.0147C28.6311 81.8856 28.7456 81.7657 28.8719 81.6546C29.1716 81.3947 29.5202 81.2127 29.896 81.1072C30.2719 81.0024 30.672 80.972 31.076 81.015C31.4777 81.0574 31.8834 81.1725 32.2668 81.3575C32.6502 81.5425 33.0127 81.7973 33.3305 82.1197C33.5131 82.305 33.6705 82.502 33.8033 82.7078C33.9369 82.9135 34.0458 83.1273 34.1289 83.344C34.2135 83.5614 34.2708 83.7819 34.3051 84.003C34.3394 84.2241 34.3484 84.4438 34.3317 84.6599Z" fill="white"/>
<mask id="mask0" mask-type="alpha" maskUnits="userSpaceOnUse" x="3" y="17" width="96" height="98">
<path fill-rule="evenodd" clip-rule="evenodd" d="M98.305 103.79C86.4351 112.106 75.4353 114.36 69.6175 114.496C39.8387 115.187 10.772 91.8664 4.69296 62.4013C3.17789 55.0558 3.23492 48.0216 4.63465 41.5902C6.16957 34.5401 11.7133 25.2983 20.1879 17.0477L98.305 103.79Z" fill="white"/>
</mask>
<g mask="url(#mask0)">
<path d="M34.9434 97.9465L26.6953 108.54L55.8817 120.957L65.3792 110.292L34.9434 97.9465Z" fill="#C9C9C9"/>
<path d="M88.8762 107.682L80.651 118.235L100.383 105.623L104.705 94.8147L88.8762 107.682Z" fill="#C9C9C9"/>
<path d="M7.41322 50.9458L-0.68042 61.4202L7.40804 89.8978L16.7276 79.3521L7.41322 50.9458Z" fill="#C9C9C9"/>
<path d="M21.482 16.426L9.26142 24.4097L2.33072 40.3827L11.777 29.7834L21.482 16.426Z" fill="#C9C9C9"/>
</g>
<mask id="mask1" mask-type="alpha" maskUnits="userSpaceOnUse" x="7" y="4" width="112" height="107">
<path fill-rule="evenodd" clip-rule="evenodd" d="M117.008 56.2141C123.092 85.7005 103.862 110.163 74.0596 110.86C44.2542 111.552 15.1628 88.2138 9.07835 58.7275C2.99478 29.2432 22.2222 4.77838 52.0275 4.08447C81.8306 3.39068 110.924 26.7313 117.008 56.2141Z" fill="white"/>
</mask>
<g mask="url(#mask1)">
<path d="M89.0516 107.751C86.1545 92.9254 91.1383 91.4767 93.4851 90.0568C95.4425 88.8726 98.4414 87.8108 109.089 93.6205L110.333 97.4352L97.2392 112.355L89.0516 107.751Z" fill="white"/>
<path d="M34.9944 98.0258C40.8254 93.1465 45.2817 89.3162 54.002 92.7034C62.586 96.0389 64.1644 105.703 65.4018 110.351L63.3778 118.789L24.9981 106.846L34.9944 98.0258Z" fill="white"/>
<path d="M7.49309 50.8596C11.4675 52.118 20.2545 54.7792 23.1061 61.5919C26.9497 70.7772 21.8394 73.643 16.8996 79.3433C16.8996 79.3433 11.5949 86.8466 10.3045 87.0546C9.01421 87.2627 -1.52819 54.0065 -1.52819 54.0065L7.49309 50.8596Z" fill="white"/>
<path d="M26.9488 12.0704C31.8604 20.2377 31.7005 24.628 27.788 28.5876C23.8755 32.5471 17.2884 30.4558 11.8349 29.8992L4.3171 29.4915C4.3171 29.4915 23.5641 6.36302 23.5572 6.27415C23.5502 6.18454 26.9488 12.0704 26.9488 12.0704Z" fill="white"/>
<path d="M71.3846 7.05109C68.7426 12.547 67.3593 16.001 59.8941 15.0215C52.4282 14.0427 49.4415 8.78899 46.1393 4.79951L45.7521 -0.156304L70.8252 -0.106506L71.3846 7.05109Z" fill="white"/>
<path d="M108.85 34.8079C103.918 34.9165 99.6378 35.9339 94.2391 31.0941C88.0606 25.5542 89.7846 19.9035 90.2645 15.6987C90.2645 15.6987 92.5036 8.97757 93.2593 9.67164C94.015 10.3664 107.493 22.6443 107.493 22.6443L112.818 34.5815L108.85 34.8086L108.85 34.8079Z" fill="white"/>
<path d="M117.704 75.8858C111.567 71.3329 108.561 68.1135 108.269 61.8922C107.977 55.6723 111.354 54.417 116.743 52.7238C116.743 52.7238 124.054 53.6411 124.2 54.8592C124.347 56.0773 123.693 82.315 123.693 82.315L117.704 75.8858Z" fill="white"/>
</g>
</svg>
