<svg width="176" height="37" viewBox="0 0 176 37" fill="none" xmlns="http://www.w3.org/2000/svg">
<g clip-path="url(#clip0)">
<path d="M8.60536 13.9078C8.47497 12.4735 9.51807 11.1696 10.9523 11.0392C12.3866 10.9089 13.647 11.952 13.7774 13.3862C13.9078 14.8205 12.8647 16.1243 11.4304 16.2547C9.99615 16.4286 8.73575 15.342 8.60536 13.9078ZM26.9464 23.0783C26.6422 30.1626 20.9052 35.9431 13.9078 36.1604C13.3862 36.1604 12.8212 36.1604 12.2996 36.117C12.2127 36.117 12.1258 35.9866 12.1693 35.8996L14.0816 32.5096C14.3424 32.0315 14.5597 31.51 14.6031 30.9449C14.6901 30.2061 14.9943 27.9895 14.9943 27.9895C15.0378 27.4245 15.342 26.816 15.8636 26.6422L16.8197 26.3814C17.3413 26.2076 17.7759 26.3814 18.0367 26.903C18.2105 27.2507 18.6886 28.2503 18.9059 28.6414C19.0363 28.9022 18.9928 29.163 18.8624 29.3368C18.167 30.1192 17.7324 30.5972 17.124 31.2926C16.7328 31.7707 16.3851 32.4227 17.0805 33.0311C17.7324 33.5961 18.3409 32.9877 18.7321 32.5965C19.2536 32.075 19.9925 31.1623 20.4705 30.5972C20.9052 30.1192 21.1225 29.728 21.1659 29.163C21.2094 28.9022 21.1659 28.6414 21.079 28.3807C20.9052 27.7722 19.4709 24.3387 18.4713 21.6006C17.602 19.2536 17.1674 16.8197 17.4282 14.2989L17.9063 9.73538C17.9063 9.69192 17.9932 9.64845 18.0367 9.64845C23.426 11.6043 27.2072 16.9066 26.9464 23.0783ZM11.9085 31.7273C12.1693 31.2057 12.3431 30.5103 12.3866 29.9453C12.3866 29.9453 12.6908 26.5118 12.6908 25.3818C12.6908 24.5995 11.9954 22.8175 11.6477 21.9483C10.9523 20.2532 9.56153 20.0359 7.38842 19.0363C6.30186 18.5147 3.52028 17.5151 3.52028 17.5151C3.04219 17.2978 2.86834 16.7763 3.04219 16.2547C3.2595 15.7332 3.91144 15.5159 4.43298 15.6897C5.9107 16.2113 7.30149 16.8197 9.86576 17.8194C11.5173 18.4713 12.2562 18.0367 13.3862 17.4282C14.1685 16.9936 14.9943 16.6893 15.1682 15.2551C15.2985 14.3858 15.7766 10.3439 15.907 9.17037C15.907 9.12691 15.8636 9.08345 15.8201 9.08345C15.0378 8.95306 14.2554 8.86613 13.4297 8.86613C5.99762 8.86613 -0.0436249 14.9943 -0.0436249 22.5133C-0.00016265 28.7718 4.17221 34.0308 9.86576 35.6389C9.95269 35.6823 10.0396 35.6389 10.0831 35.5519L11.9085 31.7273ZM19.9925 5.95416L17.7759 7.12765C17.5586 7.25803 17.2543 7.17111 17.1674 6.91033L14.5597 1.82525C14.4293 1.60794 14.5162 1.30371 14.777 1.21678L16.9501 0.0433021C17.1674 -0.0870845 17.4717 -0.000160089 17.5586 0.260613L20.1663 5.34569C20.2967 5.56301 20.2098 5.86724 19.9925 5.95416Z" fill="#2C2C2C"/>
<path d="M154.204 13.4297L153.248 18.2106H148.684V31.8577H143.469V18.2106H138.905L137.949 13.4297H154.204ZM54.6755 13.4297H70.4088L69.4526 18.2106H64.8891V31.8577H59.7171V18.2106H54.6755V13.4297ZM40.3764 22.383C40.3764 26.2946 42.9407 26.7726 45.8092 26.7726C47.3738 26.7726 49.0689 26.4684 50.3727 26.1207L50.4596 31.0319C48.7646 31.5969 46.7219 31.9446 44.6792 31.9446C39.4202 31.9446 34.9871 29.1631 34.9871 22.5568C34.9871 17.0806 38.551 13.082 44.6792 13.082C46.8088 13.082 49.0689 13.5167 50.8508 14.4728L49.1123 18.9929C47.9388 18.5583 46.2873 18.254 44.853 18.254C41.8541 18.2106 40.3764 19.6448 40.3764 22.383ZM82.274 27.2507C79.7097 27.2507 77.8843 25.4253 77.8843 22.6437C77.8843 19.8621 79.7097 18.0367 82.274 18.0367C84.8383 18.0367 86.6637 19.8621 86.6637 22.6437C86.7071 25.4253 84.8383 27.2507 82.274 27.2507ZM82.274 13.0386C76.9281 13.0386 72.6688 16.8198 72.6688 22.6003C72.6688 28.3807 76.9716 32.162 82.274 32.162C87.5764 32.162 91.8791 28.3807 91.8791 22.6003C91.9226 16.8198 87.6198 13.0386 82.274 13.0386ZM98.2246 13.4297H112.002V31.8577H106.83V18.2106H102.745L102.31 24.4691C101.962 28.2938 101.832 31.8577 96.5731 31.8577H94.313L94.965 27.3811C97.8769 27.3376 97.5727 26.7292 98.2246 13.4297ZM126.345 27.2507C123.78 27.2507 121.955 25.4253 121.955 22.6437C121.955 19.8621 123.78 18.0367 126.345 18.0367C128.909 18.0367 130.734 19.8621 130.734 22.6437C130.734 25.4253 128.909 27.2507 126.345 27.2507ZM126.345 13.0386C120.999 13.0386 116.74 16.8198 116.74 22.6003C116.74 28.3807 121.042 32.162 126.345 32.162C131.691 32.162 135.95 28.3807 135.95 22.6003C135.95 16.8198 131.647 13.0386 126.345 13.0386ZM165.808 27.2507C163.244 27.2507 161.419 25.4253 161.419 22.6437C161.419 19.8621 163.244 18.0367 165.808 18.0367C168.373 18.0367 170.198 19.8621 170.198 22.6437C170.242 25.4253 168.373 27.2507 165.808 27.2507ZM165.808 13.0386C160.463 13.0386 156.203 16.8198 156.203 22.6003C156.203 28.3807 160.506 32.162 165.808 32.162C171.154 32.162 175.414 28.3807 175.414 22.6003C175.457 16.8198 171.154 13.0386 165.808 13.0386Z" fill="#2C2C2C"/>
</g>
<defs>
<clipPath id="clip0">
<rect width="175.457" height="36.1606" fill="white"/>
</clipPath>
</defs>
</svg>
