<svg width="143" height="30" viewBox="0 0 143 30" fill="none" xmlns="http://www.w3.org/2000/svg">
<mask id="mask0" mask-type="alpha" maskUnits="userSpaceOnUse" x="0" y="0" width="22" height="31">
<path fill-rule="evenodd" clip-rule="evenodd" d="M0 0.6875H21.9685V30.0001H0V0.6875Z" fill="white"/>
</mask>
<g mask="url(#mask0)">
<path fill-rule="evenodd" clip-rule="evenodd" d="M7.01916 11.9647C6.90651 10.7951 7.75731 9.75448 8.91825 9.64142C10.0778 9.52798 11.1091 10.3854 11.222 11.5559C11.3344 12.728 10.4836 13.7684 9.32307 13.8803C8.16368 13.9926 7.13124 13.1363 7.01916 11.9647ZM21.9586 19.3947C21.7202 25.1547 17.0502 29.8133 11.3378 29.9944C10.8979 30.0082 10.4637 29.9961 10.0362 29.9593C9.95372 29.9521 9.90657 29.8599 9.94715 29.7872L11.4899 27.0219C11.7146 26.6196 11.8727 26.2128 11.9287 25.7541C12.002 25.1549 12.2375 23.3745 12.2375 23.3745C12.27 22.9138 12.5059 22.4218 12.9393 22.2762L13.704 22.069C14.1374 21.923 14.4837 22.0688 14.7005 22.476C14.8446 22.7463 15.2471 23.5636 15.4125 23.8922C15.5207 24.1082 15.484 24.3154 15.3723 24.4435C14.8089 25.0926 14.4512 25.4734 13.9718 26.0262C13.6501 26.3997 13.382 26.9542 13.9229 27.431C14.4527 27.8978 14.9635 27.3996 15.2771 27.0872C15.6848 26.6811 16.3103 25.9177 16.6985 25.4621C17.0432 25.0579 17.2361 24.7721 17.2828 24.2833C17.3014 24.0831 17.2826 23.8745 17.2146 23.6509C17.0668 23.1687 15.8941 20.3761 15.0862 18.1698C14.389 16.2661 14.0346 14.2791 14.2441 12.2605L14.6268 8.56715C14.6319 8.51764 14.6823 8.48568 14.7285 8.50263C19.0897 10.0982 22.1656 14.3981 21.9586 19.3947ZM9.69388 26.4052C9.89368 25.9908 10.0562 25.4106 10.0894 24.9503C10.0894 24.9503 10.3323 22.1691 10.3511 21.2391C10.3636 20.6095 9.79243 19.1507 9.50277 18.4648C8.9283 17.1045 7.78513 16.9008 6.04662 16.1162C5.14346 15.7087 2.9095 14.8801 2.9095 14.8801C2.4726 14.7142 2.33077 14.2904 2.4898 13.8567C2.64999 13.4252 3.18427 13.2626 3.61827 13.4125C4.83969 13.8339 5.95696 14.3368 8.03498 15.1311C9.38645 15.6477 9.99822 15.3044 10.9095 14.7978C11.552 14.4407 12.2179 14.1901 12.3773 13.0439C12.4733 12.3547 12.8747 9.07967 12.9941 8.10196C12.9993 8.06103 12.9715 8.0238 12.9311 8.01639C12.299 7.90217 11.649 7.8396 10.9843 7.8396C4.91776 7.8396 0 12.8005 0 18.92C0 24.005 3.39644 28.2879 8.02513 29.5914C8.09508 29.6109 8.16928 29.5767 8.20097 29.5109L9.69388 26.4052ZM16.2798 5.52578L14.4735 6.46782C14.2895 6.56372 14.0635 6.49102 13.9684 6.30565L11.8548 2.18019C11.7597 1.99483 11.8318 1.76677 12.0156 1.67087L13.8215 0.729218C14.0053 0.633513 14.2314 0.706023 14.3264 0.891585L16.4406 5.01646C16.5357 5.20202 16.4638 5.43007 16.2798 5.52578Z" fill="white"/>
</g>
<mask id="mask1" mask-type="alpha" maskUnits="userSpaceOnUse" x="28" y="11" width="115" height="16">
<path fill-rule="evenodd" clip-rule="evenodd" d="M28.5037 11.2744H143V26.7839H28.5037V11.2744Z" fill="white"/>
</mask>
<g mask="url(#mask1)">
<path fill-rule="evenodd" clip-rule="evenodd" d="M125.682 11.5583L124.9 15.4357H121.181V26.5004H116.939V15.4357H113.22L112.439 11.5583H125.682ZM44.5484 11.5583H57.3611L56.5798 15.4357H52.8611V26.5002H48.6422V15.4357H44.5484V11.5583ZM32.9099 18.84C32.9099 22.0238 35.0036 22.4021 37.3475 22.4021C38.6288 22.4021 40.0037 22.1501 41.0663 21.8663L41.1289 25.8382C39.7538 26.3112 38.0663 26.5948 36.4099 26.5948C32.1287 26.5948 28.5037 24.3252 28.5037 18.9661C28.5037 14.5214 31.4099 11.2744 36.4099 11.2744C38.1287 11.2744 39.9726 11.6214 41.4413 12.4094L40.0352 16.0659C39.0663 15.7193 37.7226 15.4671 36.5663 15.4671C34.0975 15.4671 32.9099 16.6019 32.9099 18.84ZM67.0621 22.7807C64.9684 22.7807 63.4684 21.2992 63.4684 19.0295C63.4684 16.7599 64.9684 15.2783 67.0621 15.2783C69.156 15.2783 70.6558 16.7599 70.6558 19.0295C70.6558 21.2992 69.156 22.7807 67.0621 22.7807ZM67.0619 11.2747C62.7181 11.2747 59.218 14.3323 59.218 19.0295C59.218 23.7265 62.7181 26.7841 67.0619 26.7841C71.4058 26.7841 74.9058 23.7265 74.9058 19.0295C74.9058 14.3323 71.4058 11.2747 67.0619 11.2747ZM80.0754 11.5583H91.2948V26.5002H87.0758V15.4357H83.7549L83.4114 20.511C83.13 23.6002 83.0363 26.5002 78.7237 26.5002H76.8567L77.3808 22.8595C79.7591 22.8595 79.5239 22.3619 80.0754 11.5583ZM102.964 22.7807C100.871 22.7807 99.3707 21.2992 99.3707 19.0295C99.3707 16.7599 100.871 15.2783 102.964 15.2783C105.058 15.2783 106.558 16.7599 106.558 19.0295C106.558 21.2992 105.058 22.7807 102.964 22.7807ZM102.964 11.2747C98.6203 11.2747 95.1203 14.3323 95.1203 19.0295C95.1203 23.7265 98.6203 26.7841 102.964 26.7841C107.308 26.7841 110.808 23.7265 110.808 19.0295C110.808 14.3323 107.308 11.2747 102.964 11.2747ZM135.156 22.7807C133.062 22.7807 131.562 21.2992 131.562 19.0295C131.562 16.7599 133.062 15.2783 135.156 15.2783C137.25 15.2783 138.75 16.7599 138.75 19.0295C138.75 21.2992 137.25 22.7807 135.156 22.7807ZM135.156 11.2747C130.812 11.2747 127.312 14.3323 127.312 19.0295C127.312 23.7265 130.812 26.7841 135.156 26.7841C139.5 26.7841 143 23.7265 143 19.0295C143 14.3323 139.5 11.2747 135.156 11.2747Z" fill="white"/>
</g>
</svg>
