<svg width="122" height="46" viewBox="0 0 122 46" fill="none" xmlns="http://www.w3.org/2000/svg">
<path d="M117.124 11.433H109.342C110.153 14.4473 110.658 18.6009 110.658 23.1874C110.658 27.8253 110.143 32.0172 109.315 35.0385H117.124C119.045 35.0385 121.722 33.6157 121.722 23.2368C121.722 12.8559 119.045 11.433 117.124 11.433Z" fill="#F45727"/>
<mask id="mask0" mask-type="alpha" maskUnits="userSpaceOnUse" x="109" y="11" width="13" height="25">
<path fill-rule="evenodd" clip-rule="evenodd" d="M117.124 11.433H109.342C110.153 14.4473 110.658 18.6009 110.658 23.1874C110.658 27.8253 110.143 32.0172 109.315 35.0385H117.124C119.045 35.0385 121.722 33.6157 121.722 23.2368C121.722 12.8559 119.045 11.433 117.124 11.433Z" fill="white"/>
</mask>
<g mask="url(#mask0)">
<path opacity="0.25" d="M121.885 27.6097V35.0379L108.968 36.9088V8.96204H113.554C113.554 8.96204 116.536 16.1561 115.595 27.6097C118.778 27.6077 121.885 27.6097 121.885 27.6097Z" fill="black"/>
</g>
<path d="M8.594 45.5777C3.86978 45.5777 0.0397949 35.5459 0.0397949 23.0438C0.0397949 10.5398 3.86978 0.507019 8.594 0.507019H105.038C109.764 0.507019 113.591 10.5387 113.591 23.0438C113.591 35.5459 109.763 45.5777 105.038 45.5777H8.594Z" fill="#F45727"/>
<mask id="mask1" mask-type="alpha" maskUnits="userSpaceOnUse" x="0" y="0" width="114" height="46">
<path fill-rule="evenodd" clip-rule="evenodd" d="M8.594 45.5777C3.86978 45.5777 0.0397949 35.5459 0.0397949 23.0438C0.0397949 10.5398 3.86978 0.507019 8.594 0.507019H105.038C109.764 0.507019 113.591 10.5387 113.591 23.0438C113.591 35.5459 109.763 45.5777 105.038 45.5777H8.594Z" fill="white"/>
</mask>
<g mask="url(#mask1)">
<path d="M43.2484 49.7798L-12.7991 55.5489V-27.2792L72.1431 -26.6717L50.1946 24.8765L59.0613 25.7161L43.2484 49.7798Z" fill="#0782D6"/>
</g>
<path opacity="0.4" d="M108.267 13.8346C107.679 10.2279 106.717 7.78888 106.088 6.47903C105.749 5.77971 105.037 5.33771 104.259 5.33771H9.37119C8.5939 5.33771 7.88215 5.77971 7.54441 6.47903C6.91432 7.78888 5.95253 10.2279 5.36579 13.8346C5.16416 15.0758 6.11283 16.208 7.36899 16.208H106.262C107.519 16.208 108.468 15.0768 108.267 13.8346Z" fill="white"/>
<path d="M57.3513 24.0398L64.3479 9.10575L64.3257 4.34772L51.4314 23.0448" fill="#B6401D"/>
<mask id="mask2" mask-type="alpha" maskUnits="userSpaceOnUse" x="0" y="0" width="114" height="46">
<path fill-rule="evenodd" clip-rule="evenodd" d="M8.594 45.5777C3.86978 45.5777 0.0397949 35.5459 0.0397949 23.0438C0.0397949 10.5398 3.86978 0.507019 8.594 0.507019H105.038C109.764 0.507019 113.591 10.5387 113.591 23.0438C113.591 35.5459 109.763 45.5777 105.038 45.5777H8.594Z" fill="white"/>
</mask>
<g mask="url(#mask2)">
<path opacity="0.25" d="M125.177 32.7608H61.5493L69.0984 25.2751V23.0439L57.3513 24.0389L51.4314 23.0439L42.8087 26.7191V28.5618H56.816L52.9386 32.7608H-6.24921V56.2623H125.388L125.177 32.7608Z" fill="black"/>
</g>
<path d="M48.2446 4.32336L64.3257 4.34758L55.5669 23.0447H69.0983L46.8574 43.6662L53.8762 26.7199H42.8087L48.2446 4.32336Z" fill="white"/>
<path d="M7.63702 18.6524L13.1022 16.1134V35.2778H18.2217V9.10101L8.36895 13.6229L7.63702 18.6524Z" fill="white"/>
<path d="M39.7348 17.6189C39.7348 13.1403 36.5934 9.04834 30.5706 9.04834C25.3212 9.04834 21.837 12.4511 21.837 18.5674H26.6116C26.6116 15.7247 27.9887 13.7872 30.5706 13.7872C33.1092 13.7872 34.3573 15.5522 34.3573 17.749C34.3573 19.3445 33.6687 20.505 32.464 21.8824L20.974 35.2776H39.5624V30.5831H31.5596L35.8211 25.8473C38.529 22.7008 39.7348 20.4616 39.7348 17.6189Z" fill="white"/>
<path d="M84.0817 17.6634C84.0817 13.1586 80.9241 9.04541 74.8661 9.04541C69.5894 9.04541 66.0841 12.4674 66.0841 18.617H70.8869C70.8869 15.7581 72.2711 13.8095 74.8661 13.8095C77.4198 13.8095 78.6719 15.5856 78.6719 17.7935C78.6719 19.395 77.9813 20.5646 76.7695 21.9521L65.2201 35.4169H83.9083V30.6962H75.8632L80.1458 25.9342C82.8699 22.7736 84.0817 20.5232 84.0817 17.6634Z" fill="white"/>
<path fill-rule="evenodd" clip-rule="evenodd" d="M99.1809 9.35028H103.152V25.7597H107.519V30.1787H103.152V35.417H98.4459V30.1787H85.8127V25.6315L99.1809 9.35028ZM91.0461 25.7161H98.446V16.754L91.0461 25.7161Z" fill="white"/>
</svg>
