<svg width="198" height="62" viewBox="0 0 198 62" fill="none" xmlns="http://www.w3.org/2000/svg">
<path fill-rule="evenodd" clip-rule="evenodd" d="M145.694 25.8271C143.596 25.8271 141.529 26.2991 139.43 27.2755L140.588 31.0695C141.71 30.3664 143.475 29.8654 145.115 29.8654C147.732 29.8654 150.132 30.7453 150.65 34.0594H141.71V38.0386H150.62C150.287 40.6916 148.886 42.3968 145.422 42.3968C142.716 42.3968 140.832 41.5758 139.917 41.1L139.159 45.0498C140.739 45.8334 143.203 46.4645 145.783 46.4645C152.264 46.4645 154.88 41.9547 154.88 35.7014C154.88 29.7689 152.113 25.8271 145.694 25.8271Z" fill="white"/>
<path fill-rule="evenodd" clip-rule="evenodd" d="M189.166 42.0772H186.859V35.8281H189.166C191.656 35.8281 192.9 36.7797 192.9 38.9523C192.9 41.1341 191.656 42.0772 189.166 42.0772ZM189.588 31.8235H186.859V26.0123H182.782V46.0901H190.013C194.818 46.0901 197.065 43.1171 197.065 38.9526C197.066 34.7881 194.819 31.8235 189.588 31.8235Z" fill="white"/>
<path fill-rule="evenodd" clip-rule="evenodd" d="M162.956 26.5175C162.828 29.6421 162.828 32.295 162.403 35.6091C162.104 37.8827 161.496 41.9845 158.79 41.9845H158.484V46.0896H159.761C165.873 46.0896 166.571 36.9648 166.875 30.0547H171.649V46.0896H175.754V26.0118H162.956V26.5175H162.956Z" fill="white"/>
<path fill-rule="evenodd" clip-rule="evenodd" d="M127.324 36.1775L122.794 26.0081H117.835L125.257 41.1929C124.828 41.9171 124.252 42.3339 123.492 42.3339C123.034 42.3339 122.488 42.1782 121.881 41.8245L120.634 45.2985C121.605 45.8711 122.701 46.2122 123.798 46.2122C126.441 46.1869 127.964 44.5448 129.27 41.4161L135.809 26.0081H131.43L127.324 36.1775Z" fill="white"/>
<path fill-rule="evenodd" clip-rule="evenodd" d="M107.462 42.1404H100.372C101.984 39.0162 102.323 34.1903 102.504 29.9874H107.463V42.1404H107.462ZM111.507 26.007H98.6717V26.5164C98.55 29.641 98.55 32.2897 98.1217 35.608C97.9112 37.3763 97.1223 40.8508 95.8426 42.1392H93.7148V49.723H97.5157V46.089H110.259V49.723H114.059V42.1392H111.507V26.007Z" fill="white"/>
<path d="M19.3393 57.123C24.581 57.123 33.1258 61.9439 56.9649 61.9439C71.8279 61.9439 81.809 54.5648 81.809 35.8895C81.809 18.3927 72.4355 15.7313 69.0754 15.7313C67.7057 15.7313 66.1944 16.0222 65.3232 16.37C67.0657 14.957 68.9067 13.008 68.7404 10.2156C68.5425 6.89864 64.5757 0.525757 53.3023 0.525757C42.0293 0.525757 25.831 9.70362 19.3024 15.1999C17.3693 18.4908 16.2373 23.2397 15.7128 28.3836C15.5108 30.3637 2.24225 33.9282 2.24225 33.9282V37.5399C2.24225 37.5399 15.4715 40.2106 15.5429 41.2653C16.0462 48.7018 17.5141 55.1058 19.3393 57.123Z" fill="#E01462"/>
<path d="M50.3969 20.6229C53.6178 23.0944 57.2719 26.3735 58.4486 28.8808C63.8987 22.4515 65.0531 16.9514 63.8987 16.0862C59.9351 17.1152 52.1929 16.7375 50.3969 20.6229Z" fill="#871041"/>
<mask id="mask0" mask-type="alpha" maskUnits="userSpaceOnUse" x="2" y="0" width="80" height="62">
<path fill-rule="evenodd" clip-rule="evenodd" d="M19.3393 57.123C24.581 57.123 33.1258 61.9439 56.9649 61.9439C71.8279 61.9439 81.809 54.5648 81.809 35.8895C81.809 18.3927 72.4355 15.7313 69.0754 15.7313C67.7057 15.7313 66.1944 16.0222 65.3232 16.37C67.0657 14.957 68.9067 13.008 68.7404 10.2156C68.5425 6.89864 64.5757 0.525757 53.3023 0.525757C42.0293 0.525757 25.831 9.70362 19.3024 15.1999C17.3693 18.4908 16.2373 23.2397 15.7128 28.3836C15.5108 30.3637 2.24225 33.9282 2.24225 33.9282V37.5399C2.24225 37.5399 15.4715 40.2106 15.5429 41.2653C16.0462 48.7018 17.5141 55.1058 19.3393 57.123Z" fill="white"/>
</mask>
<g mask="url(#mask0)">
<path d="M20.6299 14.1347C21.9648 17.0593 28.3803 21.5775 33.1554 23.0743C37.931 24.5711 52.7802 21.0954 58.0653 19.5034C61.7161 18.4037 63.4343 17.725 65.3232 16.37C68.8195 13.8615 69.2945 11.7003 68.4585 8.77319C68.867 15.7343 58.754 17.4635 48.1701 14.0013C37.7514 10.5929 28.8658 10.4986 20.6299 14.1347Z" fill="#B21B59"/>
</g>
<mask id="mask1" mask-type="alpha" maskUnits="userSpaceOnUse" x="2" y="0" width="80" height="62">
<path fill-rule="evenodd" clip-rule="evenodd" d="M19.3393 57.123C24.581 57.123 33.1258 61.9439 56.9649 61.9439C71.8279 61.9439 81.809 54.5648 81.809 35.8895C81.809 18.3927 72.4355 15.7313 69.0754 15.7313C67.7057 15.7313 66.1944 16.0222 65.3232 16.37C67.0657 14.957 68.9067 13.008 68.7404 10.2156C68.5425 6.89864 64.5757 0.525757 53.3023 0.525757C42.0293 0.525757 25.831 9.70362 19.3024 15.1999C17.3693 18.4908 16.2373 23.2397 15.7128 28.3836C15.5108 30.3637 2.24225 33.9282 2.24225 33.9282V37.5399C2.24225 37.5399 15.4715 40.2106 15.5429 41.2653C16.0462 48.7018 17.5141 55.1058 19.3393 57.123Z" fill="white"/>
</mask>
<g mask="url(#mask1)">
<path fill-rule="evenodd" clip-rule="evenodd" d="M17.1625 60.139C16.4178 50.9426 16.5244 48.0816 16.5244 48.0816L1.61115 38.2393V33.7443L18.3245 14.1718L20.6304 12.8472C20.6304 12.8472 20.6304 42.9108 20.6304 51.3203C41.1143 56.582 51.8125 53.4571 60.0276 42.579C65.8071 45.3128 77.8743 49.6348 68.7826 60.7444C59.6906 71.8545 17.1625 60.139 17.1625 60.139Z" fill="#871041"/>
</g>
<path fill-rule="evenodd" clip-rule="evenodd" d="M41.1142 55.964C51.5597 55.964 60.0276 47.1739 60.0276 36.3308C60.0276 25.4877 51.5597 16.6976 41.1142 16.6976C30.6686 16.6976 22.2008 25.4877 22.2008 36.3308C22.2008 47.1739 30.6686 55.964 41.1142 55.964Z" fill="white"/>
<mask id="mask2" mask-type="alpha" maskUnits="userSpaceOnUse" x="22" y="16" width="39" height="40">
<path fill-rule="evenodd" clip-rule="evenodd" d="M41.1142 55.964C51.5597 55.964 60.0276 47.1739 60.0276 36.3308C60.0276 25.4877 51.5597 16.6976 41.1142 16.6976C30.6686 16.6976 22.2008 25.4877 22.2008 36.3308C22.2008 47.1739 30.6686 55.964 41.1142 55.964Z" fill="white"/>
</mask>
<g mask="url(#mask2)">
<path opacity="0.3" d="M24.8997 46.4442C28.7217 50.6011 40.161 51.5362 47.8639 47.0134C53.6823 43.5979 59.7656 35.1691 58.1683 27.8312C66.181 45.0303 53.4839 58.1011 46.9719 61.6299C40.4591 65.1586 29.2628 56.3332 24.8997 46.4442Z" fill="#872D49"/>
</g>
<path fill-rule="evenodd" clip-rule="evenodd" d="M44.1436 32.0239C44.1436 33.3843 43.2501 34.6116 42.4344 35.5977L34.5044 45.1701H47.728V41.4704H42.2568L45.1361 37.9955C46.544 36.2958 47.7077 34.3379 47.7077 32.0235C47.7077 28.2371 44.7504 25.1672 41.1028 25.1672C37.439 25.1672 34.5004 28.256 34.5004 32.0235H38.0636C38.0636 30.2762 39.4264 28.8665 41.1028 28.8665C42.7828 28.8669 44.1436 30.2791 44.1436 32.0239Z" fill="#020000"/>
<path fill-rule="evenodd" clip-rule="evenodd" d="M17.972 35.4364H3.49672C1.56564 35.4364 0 33.8116 0 31.8071V15.0454C0 14.4686 0.450222 14.0012 1.00631 14.0012H18.3334C18.889 14.0012 19.3393 14.469 19.3393 15.0454V34.0163C19.3393 34.8007 18.7268 35.4364 17.972 35.4364Z" fill="#E01462"/>
<path fill-rule="evenodd" clip-rule="evenodd" d="M17.972 36.6288H3.49672C1.56564 36.6288 0 38.2536 0 40.2582V57.616C0 58.1924 0.450222 58.6602 1.00631 58.6602H18.3334C18.889 58.6602 19.3393 58.1924 19.3393 57.616V38.0485C19.3393 37.2641 18.7268 36.6288 17.972 36.6288Z" fill="#E01462"/>
<mask id="mask3" mask-type="alpha" maskUnits="userSpaceOnUse" x="0" y="36" width="20" height="23">
<path fill-rule="evenodd" clip-rule="evenodd" d="M17.972 36.6288H3.49672C1.56564 36.6288 0 38.2536 0 40.2582V57.616C0 58.1924 0.450222 58.6602 1.00631 58.6602H18.3334C18.889 58.6602 19.3393 58.1924 19.3393 57.616V38.0485C19.3393 37.2641 18.7268 36.6288 17.972 36.6288Z" fill="white"/>
</mask>
<g mask="url(#mask3)">
<path d="M-0.727051 50.7156H19.799V58.8067H-0.727051V50.7156Z" fill="#BA174D"/>
</g>
<path d="M11.4387 36.0401L15.388 31.0171C15.8768 30.3952 15.7876 29.4803 15.1885 28.973C14.5894 28.4656 13.7084 28.5582 13.2193 29.1801L9.63169 33.7425L6.12037 29.2765C5.63161 28.6551 4.75064 28.5624 4.15075 29.0698C3.55167 29.5772 3.46284 30.4925 3.9516 31.114L7.82513 36.0406L3.9516 40.9667C3.46284 41.5886 3.55208 42.5035 4.15075 43.0109C4.41115 43.2307 4.72387 43.3381 5.03497 43.3381C5.44098 43.3381 5.84375 43.1553 6.12037 42.8033L9.63169 38.3382L13.2193 42.9006C13.4963 43.2526 13.8987 43.4349 14.3043 43.4349C14.6154 43.4349 14.9285 43.3279 15.1885 43.1073C15.7876 42.6004 15.8764 41.6855 15.388 41.0636L11.4387 36.0401Z" fill="white"/>
<path opacity="0.35" d="M58.2519 13.0082C60.7778 13.0082 62.8255 11.9842 62.8255 10.7211C62.8255 9.45793 60.7778 8.43396 58.2519 8.43396C55.726 8.43396 53.6783 9.45793 53.6783 10.7211C53.6783 11.9842 55.726 13.0082 58.2519 13.0082Z" fill="white"/>
<path opacity="0.35" fill-rule="evenodd" clip-rule="evenodd" d="M16.0102 20.624H3.33013C2.424 20.624 1.68945 19.8613 1.68945 18.9204V18.255C1.68945 17.3142 2.424 16.5515 3.33013 16.5515H16.0102C16.9163 16.5515 17.6508 17.3142 17.6508 18.255V18.9204C17.6508 19.8617 16.9163 20.624 16.0102 20.624Z" fill="white"/>
<path d="M56.965 61.9441C71.828 61.9441 81.8091 54.5649 81.8091 35.8897C81.8091 18.3928 72.4356 15.7314 69.0755 15.7314C67.7058 15.7314 66.1945 16.0224 65.3233 16.3702C58.2519 19.6547 56.3407 29.6839 56.2458 35.5735C56.0248 49.3297 67.1351 59.6448 56.965 61.9441Z" fill="#E01462"/>
<mask id="mask4" mask-type="alpha" maskUnits="userSpaceOnUse" x="56" y="15" width="26" height="47">
<path fill-rule="evenodd" clip-rule="evenodd" d="M56.965 61.9441C71.828 61.9441 81.8091 54.5649 81.8091 35.8897C81.8091 18.3928 72.4356 15.7314 69.0755 15.7314C67.7058 15.7314 66.1945 16.0224 65.3233 16.3702C58.2519 19.6547 56.3407 29.6839 56.2458 35.5735C56.0248 49.3297 67.1351 59.6448 56.965 61.9441Z" fill="white"/>
</mask>
<g mask="url(#mask4)">
<path fill-rule="evenodd" clip-rule="evenodd" d="M59.1435 49.5991C64.5802 57.3875 83.217 48.8669 81.4429 30.299C84.4391 40.268 80.901 54.2634 74.5561 58.3155C68.212 62.3676 57.1353 66.8546 55.4622 63.381C54.3034 60.9748 57.5681 58.4081 59.1435 49.5991Z" fill="#B21B59"/>
</g>
<path opacity="0.35" d="M68.9898 26.9453C71.7614 24.829 73.0505 21.7623 71.8692 20.0956C70.6878 18.429 67.4834 18.7935 64.7118 20.9098C61.9403 23.0262 60.6511 26.0929 61.8325 27.7596C63.0138 29.4262 66.2183 29.0617 68.9898 26.9453Z" fill="white"/>
</svg>
