<svg width="138" height="72" viewBox="0 0 138 72" fill="none" xmlns="http://www.w3.org/2000/svg">
<path fill-rule="evenodd" clip-rule="evenodd" d="M79.1372 15.9575C80.1492 15.9575 81.1255 16.3164 81.8937 17.0008C82.6619 17.6575 83.2024 18.6281 83.3473 19.6576C83.529 20.6732 83.3128 21.7742 82.8011 22.6641C82.172 23.7143 81.1474 24.4633 79.9675 24.6999C79.7179 24.7519 79.4615 24.768 79.1763 24.768H79.1762C79.0026 24.768 78.8451 24.768 78.6289 24.7519H78.6093H78.5944C77.4915 24.6099 76.4692 24.0178 75.7723 23.1107C75.1547 22.2936 74.8224 21.2329 74.8695 20.2046C74.8994 19.2109 75.2985 18.2022 75.916 17.4613C76.5991 16.6488 77.5341 16.1213 78.5668 15.9967C78.7462 15.9644 78.944 15.9575 79.1372 15.9575ZM79.4834 22.2832C80.0377 22.1874 80.5368 21.8204 80.8381 21.3599C81.0991 20.9294 81.1635 20.3812 81.052 19.9126C80.9347 19.4741 80.6679 19.0782 80.3068 18.8128C79.7985 18.4146 79.0958 18.3292 78.4668 18.5369C77.9631 18.7239 77.5479 19.1094 77.3432 19.5941C77.1638 19.968 77.1282 20.4054 77.211 20.8025C77.3191 21.2191 77.5479 21.5977 77.8895 21.855C78.2264 22.147 78.6784 22.3144 79.1338 22.3144C79.2545 22.3144 79.3718 22.3017 79.4834 22.2832Z" fill="#004683"/>
<path fill-rule="evenodd" clip-rule="evenodd" d="M113.996 15.9575C115.01 15.9575 115.983 16.3164 116.751 17.0008C117.516 17.6575 118.047 18.6281 118.214 19.6576C118.373 20.6732 118.182 21.7742 117.661 22.6641C117.034 23.7143 116.002 24.4633 114.822 24.6999C114.576 24.7519 114.324 24.768 114.029 24.768H114.029C113.865 24.768 113.706 24.768 113.497 24.7519H113.478H113.457C112.365 24.6099 111.337 24.0178 110.638 23.1107C110.007 22.2936 109.69 21.2329 109.738 20.2046C109.752 19.2109 110.15 18.2022 110.793 17.4613C111.474 16.6488 112.393 16.1213 113.413 15.9967C113.607 15.9644 113.791 15.9575 113.996 15.9575ZM114.339 22.2832C114.916 22.1874 115.428 21.8204 115.692 21.3599C115.957 20.9294 116.03 20.3812 115.902 19.9126C115.804 19.4741 115.521 19.0782 115.164 18.8128C114.655 18.4146 113.95 18.3292 113.34 18.5369C112.836 18.7239 112.414 19.1094 112.195 19.5941C112.041 19.968 111.989 20.4054 112.086 20.8025C112.172 21.2191 112.414 21.5977 112.755 21.855C113.105 22.147 113.549 22.3144 114.004 22.3144C114.122 22.3144 114.233 22.3017 114.339 22.2832Z" fill="#004683"/>
<path fill-rule="evenodd" clip-rule="evenodd" d="M133.794 17.0008C134.554 17.6586 135.102 18.6281 135.248 19.6564C135.426 20.6732 135.213 21.7742 134.695 22.6641C134.063 23.7143 133.033 24.4633 131.866 24.6999C131.623 24.7519 131.36 24.768 131.072 24.768H131.072C130.915 24.768 130.731 24.768 130.534 24.7519H130.515H130.494C129.398 24.6099 128.374 24.0178 127.668 23.1107C127.046 22.2936 126.714 21.2329 126.768 20.2046C126.783 19.2109 127.18 18.2022 127.812 17.4613C128.486 16.6488 129.438 16.1213 130.454 15.9967C130.638 15.9644 130.842 15.9575 131.042 15.9575C132.045 15.9575 133.033 16.3164 133.794 17.0008ZM131.39 22.2832C131.954 22.1874 132.461 21.8204 132.734 21.3599C132.993 20.9294 133.074 20.3812 132.958 19.9126C132.821 19.4741 132.568 19.0782 132.211 18.8128C131.699 18.4146 130.98 18.3292 130.387 18.5369C129.864 18.7239 129.444 19.1094 129.238 19.5941C129.068 19.968 129.023 20.4054 129.126 20.8025C129.214 21.2191 129.461 21.5977 129.775 21.855C130.13 22.147 130.575 22.3144 131.045 22.3144C131.153 22.3144 131.275 22.3017 131.39 22.2832Z" fill="#004683"/>
<path d="M58.6223 18.9466C59.0099 18.6292 59.4768 18.4642 59.9977 18.4642H60.1668C60.6969 18.5011 61.2466 18.7816 61.6422 19.2282C61.955 19.5594 62.2954 19.7614 62.7635 19.7614C63.5029 19.7614 64.3643 18.9258 63.7076 17.8894C63.212 17.1092 62.4472 16.5391 61.5813 16.2194C61.0833 16.0278 60.5474 15.9517 60.0092 15.9517C59.6148 15.9517 59.2272 15.9978 58.8535 16.0844C57.6575 16.396 56.6351 17.1993 56.0394 18.2634C55.7232 18.8485 55.5484 19.5467 55.515 20.2935L55.5081 20.4066C55.5081 20.4066 55.5081 20.4158 55.515 20.4158C55.5472 21.6334 56.0958 22.8406 56.9905 23.622C57.7978 24.3675 58.888 24.7818 60.0092 24.7818C60.7556 24.7818 61.4858 24.6006 62.1459 24.2567C62.6657 23.9601 63.1108 23.7027 63.5029 23.1199C63.7375 22.746 63.7007 22.1493 63.4673 21.8077C63.1591 21.3149 62.2713 21.0748 61.4065 21.743C60.9867 22.0431 60.4945 22.2843 60.0092 22.2843C59.9483 22.2843 59.8908 22.2682 59.8183 22.2682C59.2042 22.2208 58.6223 21.885 58.2819 21.3922C58.0634 21.0748 57.93 20.6432 57.9657 20.2461C57.9979 19.7614 58.2348 19.2755 58.6223 18.9466Z" fill="#004683"/>
<path d="M109.082 23.1973C108.544 21.9139 107.094 18.5761 106.42 17.2281C106.152 16.6961 105.648 16.3291 105.113 16.2829C104.653 16.2344 104.157 16.4179 103.835 16.7434C103.614 16.9581 103.494 17.1716 103.398 17.3874V17.3955C103.364 17.452 101.095 22.6329 100.633 23.5562C100.465 23.8886 100.582 24.3191 100.916 24.5095C101.145 24.6376 101.401 24.6988 101.67 24.6988C102.259 24.6988 102.811 24.3837 103.081 23.8436C103.338 23.3715 104.778 19.9265 104.944 19.5595C105.049 19.8238 106.513 23.2769 106.821 23.8586C107.071 24.3895 107.616 24.6999 108.211 24.6999C108.481 24.6999 108.744 24.6387 108.973 24.5037C109.283 24.3202 109.404 23.9209 109.267 23.5977C109.231 23.54 109.159 23.3808 109.082 23.1973Z" fill="#004683"/>
<path d="M73.3205 17.8121C73.3055 16.9257 72.5776 16.2183 71.707 16.2183H66.2733C66.0939 16.2183 65.9237 16.2979 65.788 16.4433C65.6638 16.5668 65.5948 16.7422 65.5948 16.9257C65.5948 16.9257 65.5948 21.7557 65.5982 23.5215C65.5982 24.1725 66.0985 24.6999 66.7586 24.6999C67.3842 24.6999 67.8902 24.1736 67.8902 23.5215V23.4581C67.8902 22.9514 67.9005 19.9438 67.8902 18.6165H71.017C71.017 18.6165 71.017 22.9803 71.0285 23.4765V23.5215C71.0285 24.1725 71.5403 24.6999 72.19 24.6999C72.8099 24.6999 73.3331 24.1736 73.3331 23.5215C73.3331 23.4765 73.3216 23.4269 73.3216 23.3946C73.3216 22.5775 73.3331 18.5173 73.3331 18.5173C73.3331 18.2945 73.3331 18.0487 73.3205 17.8121Z" fill="#004683"/>
<path fill-rule="evenodd" clip-rule="evenodd" d="M89.4182 16.2194C90.2623 16.2194 91.0604 16.4237 91.694 16.9269C92.2173 17.3655 92.7946 18.0903 92.7946 19.2905C92.7946 20.5658 92.4036 21.2814 91.5652 21.8215C90.9086 22.2324 90.1726 22.5036 89.1905 22.5221H87.2297V23.5227C87.2297 24.1748 86.7214 24.6999 86.0728 24.6999C85.4369 24.6999 84.932 24.1736 84.932 23.5227V17.8894C84.8918 17.2466 85.2736 16.6338 85.8624 16.3556H85.898C86.1924 16.2379 86.5639 16.2194 86.8755 16.2194H86.902H89.4182ZM88.8539 20.3679C89.1246 20.365 89.3321 20.3627 89.3917 20.3627C90.0932 20.3627 90.567 20.0707 90.567 19.4337C90.567 19.0136 90.3589 18.4954 89.4182 18.4954C89.3535 18.4954 89.196 18.4939 88.9935 18.4921C88.3458 18.4862 87.2378 18.476 87.2378 18.4954C87.2263 19.0251 87.2263 19.8261 87.2263 20.3812C87.6184 20.3812 88.3469 20.3734 88.8539 20.3679Z" fill="#004683"/>
<path d="M101.317 17.0007C101.317 16.8069 101.255 16.6337 101.119 16.4895C100.994 16.3556 100.812 16.2667 100.631 16.2667H93.8894C93.5271 16.2667 93.2247 16.5691 93.1936 16.943C93.1752 17.3654 93.3213 17.7809 93.6065 18.1052C93.9032 18.4469 94.3206 18.6292 94.7392 18.6396H96.102V23.51V23.5238C96.102 24.1748 96.6034 24.701 97.2497 24.701C97.8695 24.701 98.3767 24.2117 98.4089 23.5815V23.5238V18.6408H99.8199C100.631 18.5969 101.313 17.8571 101.317 17.0007Z" fill="#004683"/>
<path d="M125.865 16.2656H119.111C118.759 16.2656 118.456 16.568 118.418 16.9419C118.395 17.3643 118.538 17.7798 118.833 18.1041C119.125 18.4458 119.552 18.6281 119.971 18.6385H121.328V23.5089V23.5227C121.328 24.1737 121.854 24.6999 122.485 24.6999C123.098 24.6999 123.612 24.2106 123.633 23.5804C123.651 23.5631 123.651 18.6397 123.651 18.6397H125.037C125.865 18.5981 126.548 17.8583 126.56 17.002C126.56 16.8081 126.482 16.6349 126.347 16.4907C126.233 16.3556 126.05 16.2656 125.865 16.2656Z" fill="#004683"/>
<path d="M15.3479 19.526C15.1466 19.3056 15.0132 19.0159 15.0132 18.6835C15.0132 18.3615 15.1466 18.0476 15.3479 17.8352L18.132 14.9695C18.6104 14.479 18.8669 13.8443 18.8669 13.1679C18.8669 12.4709 18.6104 11.8084 18.132 11.3398C17.6479 10.8505 17.0361 10.5712 16.3725 10.5712C15.6986 10.5712 15.0719 10.8505 14.6015 11.3398L11.8174 14.2066C11.5931 14.4121 11.3171 14.5471 10.994 14.5471C10.6731 14.5471 10.3856 14.4121 10.1625 14.2066L7.38296 11.3398C6.92066 10.8505 6.28586 10.5712 5.61886 10.5712C4.95876 10.5712 4.32511 10.8505 3.86051 11.3398C3.40166 11.8084 3.12566 12.4709 3.12566 13.1679C3.12566 13.8443 3.40166 14.479 3.86051 14.9695L6.63316 17.8352C6.84591 18.0487 6.98046 18.3615 6.98046 18.6835C6.98046 19.0159 6.84591 19.3056 6.64236 19.526L3.85936 22.4021C3.40051 22.8822 3.12451 23.5331 3.12451 24.2175C3.12451 24.9042 3.40051 25.539 3.85936 26.0375C4.32511 26.5154 4.95876 26.7877 5.61771 26.7877C6.28471 26.7877 6.91951 26.5154 7.38181 26.0375L10.1614 23.1707C10.3845 22.948 10.672 22.8279 10.9928 22.8279C11.3171 22.8279 11.592 22.948 11.8243 23.1776L14.6015 26.0387C15.0719 26.5165 15.6986 26.7889 16.3725 26.7889C17.0361 26.7889 17.6479 26.5165 18.132 26.0387C19.1015 25.0381 19.1015 23.4085 18.132 22.4032L15.3479 19.526Z" fill="#7CCE34"/>
<path d="M10.9939 11.8419C12.4878 11.8419 13.693 10.5966 13.693 9.07312C13.693 7.51967 12.4889 6.29169 10.9939 6.29169C9.50697 6.29169 8.29602 7.51967 8.29602 9.07312C8.29602 10.5966 9.50697 11.8419 10.9939 11.8419Z" fill="#7CCE34"/>
<path d="M48.0101 19.7972C47.8089 19.5756 47.6824 19.2871 47.6824 18.9536C47.6824 18.6316 47.8089 18.3176 48.0101 18.1053L50.7977 15.2408C51.2727 14.7491 51.536 14.1155 51.536 13.438C51.536 12.7409 51.2727 12.0796 50.7977 11.6099C50.3182 11.1229 49.6845 10.8412 49.0313 10.8412C48.3609 10.8412 47.7307 11.1229 47.273 11.6099L44.4727 14.4779C44.268 14.6833 43.9771 14.8184 43.6493 14.8184C43.3435 14.8184 43.0525 14.6833 42.8363 14.4779L40.051 11.6099C39.5738 11.1229 38.9666 10.8412 38.28 10.8412C37.613 10.8412 36.9794 11.1229 36.5217 11.6099C36.0398 12.0796 35.7868 12.7398 35.7868 13.438C35.7868 14.1155 36.0398 14.7491 36.5217 15.2408L39.3024 18.1053C39.5105 18.3188 39.6336 18.6316 39.6336 18.9536C39.6336 19.2871 39.5105 19.5756 39.3093 19.7972L36.5217 22.6721C36.0398 23.1523 35.7868 23.8032 35.7868 24.4876C35.7868 25.1743 36.0398 25.8102 36.5217 26.3076C36.9794 26.7866 37.613 27.0578 38.28 27.0578C38.9654 27.0578 39.5807 26.7866 40.051 26.3076L42.8363 23.4408C43.056 23.2192 43.3423 23.1003 43.6493 23.1003C43.9771 23.1003 44.2749 23.2192 44.4911 23.4489L47.273 26.3088C47.7307 26.7877 48.362 27.059 49.0313 27.059C49.6845 27.059 50.3182 26.7877 50.7977 26.3088C51.7637 25.3093 51.7637 23.6808 50.7977 22.6733L48.0101 19.7972Z" fill="#1A9ED9"/>
<path d="M43.6482 11.8419C45.1536 11.8419 46.3588 10.5966 46.3588 9.07312C46.3588 7.51967 45.1536 6.29169 43.6482 6.29169C42.1751 6.29169 40.9561 7.51967 40.9561 9.07312C40.9561 10.5966 42.1751 11.8419 43.6482 11.8419Z" fill="#1A9ED9"/>
<path d="M31.6744 14.0243C31.4778 13.7923 31.3547 13.5026 31.3547 13.1818C31.3547 12.8263 31.4766 12.5355 31.6905 12.3139L34.4632 9.46206C34.9404 8.96578 35.1934 8.32986 35.1934 7.64662C35.1934 6.94953 34.9393 6.324 34.4632 5.82773C34.0124 5.33261 33.3753 5.06831 32.7037 5.06831C32.0298 5.06831 31.403 5.33261 30.9407 5.82773L28.1485 8.69456C27.9438 8.90231 27.6379 9.02464 27.3171 9.02464C27.0043 9.02464 26.657 8.80882 26.3338 8.59531C26.1061 8.40834 25.5242 7.82436 25.2379 7.49543C23.2955 5.36262 22.3111 3.3833 21.8925 2.19917C21.7511 1.83562 21.528 1.53209 21.2186 1.34281C20.7299 1.01735 19.9962 0.934252 19.3798 1.48131C18.262 2.46462 18.0458 4.87096 20.0663 8.4395C20.5988 9.41358 21.0691 10.1003 21.7373 10.9405C22.0006 11.2729 22.9701 12.3289 22.9701 12.3289C23.1794 12.5424 23.3093 12.8263 23.3093 13.1806C23.3093 13.5015 23.1863 13.7912 22.9804 14.0231L20.1767 16.8807C19.719 17.377 19.4534 18.0118 19.4534 18.6996C19.4534 19.3921 19.7179 20.0384 20.1767 20.5151C20.654 21.0137 21.2865 21.278 21.9546 21.278C22.6216 21.278 23.2484 21.0137 23.721 20.5151L26.5098 17.6425C26.7145 17.4417 27.002 17.3124 27.3148 17.3124C27.6356 17.3124 27.9415 17.4417 28.1543 17.6748L30.9384 20.5151C31.4007 21.0137 32.0263 21.278 32.7014 21.278C33.373 21.278 34.0101 21.0137 34.4609 20.5151C35.4338 19.5087 35.4338 17.8964 34.4609 16.8807L31.6744 14.0243Z" fill="#FF8C3E"/>
<path d="M27.3171 6.37475C28.8236 6.37475 30.0345 5.13292 30.0345 3.58871C30.0345 2.06642 28.8236 0.81189 27.3171 0.81189C25.837 0.81189 24.6261 2.06642 24.6261 3.58871C24.6261 5.13292 25.837 6.37475 27.3171 6.37475Z" fill="#FF8C3E"/>
<path d="M123.814 29.9731H111.184C106.518 29.9731 102.453 32.1532 99.9246 35.5752C98.8873 32.2963 95.7835 29.9731 92.0207 29.9731C87.3804 29.9731 83.7464 33.5035 83.7464 38.0046V42.6984H80.4609V38.0046C80.4609 33.5035 76.8269 29.9731 72.1866 29.9731C69.4094 29.9731 66.9921 31.2392 65.5005 33.2196C64.0515 31.2345 61.7504 29.9731 59.1134 29.9731H50.7242C44.9155 29.9731 39.6704 32.4383 35.9651 36.3727C35.6293 34.9323 34.9128 33.6051 33.8629 32.5122C32.2897 30.8745 30.1748 29.9731 27.907 29.9731C25.7531 29.9731 23.713 30.8006 22.1616 32.3033L17.1327 37.1736C16.7164 33.0742 13.2503 29.9742 8.8987 29.9742C4.25845 29.9742 0.624451 33.5047 0.624451 38.0058V62.7259C0.624451 67.227 4.25845 70.7551 8.8987 70.7551C13.0893 70.7551 16.4588 67.8802 17.0729 64.0058L23.2196 68.9374C24.6813 70.1088 26.5155 70.754 28.3831 70.754V70.754C30.9143 70.754 33.2706 69.6172 34.8496 67.6344C35.5522 66.7526 36.0444 65.7705 36.3365 64.7479C40.0177 68.455 45.1076 70.754 50.7219 70.754H59.1111C61.7481 70.754 64.0492 69.4914 65.4982 67.5074C66.9909 69.4902 69.4082 70.754 72.1843 70.754C76.8246 70.754 80.4586 67.2258 80.4586 62.7224V57.9374H83.7441V62.7224C83.7441 67.2258 87.3781 70.754 92.0184 70.754C95.7812 70.754 98.885 68.4319 99.9223 65.1519C102.451 68.5738 106.515 70.754 111.182 70.754H123.811C131.662 70.754 137.814 64.5794 137.814 56.6991V44.0268C137.816 36.1488 131.665 29.9731 123.814 29.9731Z" fill="#00813D"/>
<path d="M31.6192 58.3887L22.3122 50.9204L31.5019 42.0198C33.5615 40.0255 33.6202 36.734 31.6318 34.6669C29.6446 32.5987 26.3637 32.541 24.304 34.5365L14.0771 44.44V38.0058C14.0771 35.1343 11.7564 33.0789 8.89406 33.0789C6.03286 33.0789 3.71216 35.1332 3.71216 38.0058V62.7259C3.71216 65.5974 6.03286 67.654 8.89406 67.654C11.7564 67.654 14.0771 65.5985 14.0771 62.7259V57.6339L25.1458 66.5149C26.1015 67.2789 27.2434 67.6517 28.3785 67.6517C29.8999 67.6517 31.4064 66.9812 32.4299 65.6989C34.217 63.4565 33.8536 60.1822 31.6192 58.3887Z" fill="#7CCE34"/>
<path d="M59.1088 33.0789H50.7196C41.2217 33.0789 33.4937 40.8346 33.4937 50.3664C33.4937 59.8983 41.2206 67.654 50.7196 67.654H59.1088C61.97 67.654 64.0182 65.3227 64.0182 62.4524C64.0182 59.5821 61.9712 57.2508 59.1088 57.2508H50.7196C46.9361 57.2508 43.8587 54.1623 43.8587 50.3664C43.8587 46.5682 46.9372 43.4798 50.7196 43.4798H59.1088C61.97 43.4798 64.0182 41.1496 64.0182 38.2793C64.0182 35.4079 61.9712 33.0789 59.1088 33.0789Z" fill="#7CCE34"/>
<path d="M59.4182 46.0408H50.7058C48.3264 46.0408 46.3967 47.9774 46.3967 50.3641C46.3967 52.7497 48.3264 54.6874 50.7058 54.6874H59.4182C61.7975 54.6874 63.4731 52.7497 63.4731 50.3641C63.4731 47.9774 61.7975 46.0408 59.4182 46.0408Z" fill="#7CCE34"/>
<path d="M92.0206 33.0789C89.1594 33.0789 86.8376 35.1332 86.8376 38.0058V45.803H77.3673V38.0058C77.3673 35.1343 75.0466 33.0789 72.1854 33.0789C69.3242 33.0789 67.0047 35.1332 67.0047 38.0058V62.7259C67.0047 65.5974 69.3242 67.654 72.1854 67.654C75.0466 67.654 77.3673 65.5985 77.3673 62.7259V54.8364H86.8376V62.7259C86.8376 65.5974 89.1594 67.654 92.0206 67.654C94.8818 67.654 97.2025 65.5985 97.2025 62.7259V38.0046C97.1991 35.1332 94.8818 33.0789 92.0206 33.0789Z" fill="#7CCE34"/>
<path fill-rule="evenodd" clip-rule="evenodd" d="M111.184 33.0789H123.814C129.979 33.0789 134.722 37.8385 134.722 44.0269V56.7026C134.722 62.8898 129.979 67.6517 123.814 67.6517H111.184C105.019 67.6517 100.275 62.8898 100.275 56.7026V44.0269C100.275 37.8385 105.019 33.0789 111.184 33.0789ZM122.771 57.2496C123.646 57.2496 124.36 56.5329 124.36 55.6546V45.0736C124.36 44.1942 123.646 43.4775 122.771 43.4775H112.226C111.352 43.4775 110.637 44.1942 110.637 45.0736V55.6546C110.637 56.5329 111.352 57.2496 112.226 57.2496H122.771Z" fill="#7CCE34"/>
<mask id="mask0" mask-type="alpha" maskUnits="userSpaceOnUse" x="3" y="33" width="132" height="35">
<path fill-rule="evenodd" clip-rule="evenodd" d="M32.4311 65.6989C31.4076 66.98 29.9011 67.6506 28.3797 67.6506C27.2458 67.6506 26.1027 67.2789 25.147 66.5126L14.0783 57.6328V62.7236C14.0783 65.5951 11.7576 67.6529 8.89522 67.6529C6.03402 67.6529 3.71332 65.5985 3.71332 62.7236V38.0046C3.71332 35.1332 6.03402 33.0777 8.89522 33.0777C11.7576 33.0777 14.0783 35.132 14.0783 38.0046V44.4412L24.3052 34.5365C26.3649 32.541 29.6458 32.5987 31.633 34.6669C33.6214 36.734 33.5627 40.0278 31.5031 42.0198L22.3134 50.9204L31.6204 58.3876C33.8537 60.1822 34.2171 63.4565 32.4311 65.6989ZM59.1088 33.0789H50.7196C41.2217 33.0789 33.4937 40.8346 33.4937 50.3664C33.4937 59.8983 41.2206 67.654 50.7196 67.654H59.1088C61.97 67.654 64.0182 65.3227 64.0182 62.4524C64.0182 59.5821 61.9712 57.2508 59.1088 57.2508H50.7196C46.9361 57.2508 43.8587 54.1623 43.8587 50.3664C43.8587 46.5682 46.9372 43.4798 50.7196 43.4798H59.1088C61.97 43.4798 64.0182 41.1496 64.0182 38.2793C64.0182 35.4079 61.9712 33.0789 59.1088 33.0789ZM59.4182 46.0408H50.7058C48.3264 46.0408 46.3967 47.9774 46.3967 50.3641C46.3967 52.7497 48.3264 54.6875 50.7058 54.6875H59.4182C61.7975 54.6875 63.4731 52.7497 63.4731 50.3641C63.4731 47.9774 61.7975 46.0408 59.4182 46.0408ZM92.0206 33.0789C89.1594 33.0789 86.8376 35.1332 86.8376 38.0058V45.803H77.3673V38.0058C77.3673 35.1343 75.0466 33.0789 72.1854 33.0789C69.3242 33.0789 67.0047 35.1332 67.0047 38.0058V62.7259C67.0047 65.5974 69.3242 67.654 72.1854 67.654C75.0466 67.654 77.3673 65.5985 77.3673 62.7259V54.8363H86.8376V62.7259C86.8376 65.5974 89.1594 67.654 92.0206 67.654C94.8818 67.654 97.2025 65.5985 97.2025 62.7259V38.0046C97.1991 35.1332 94.8818 33.0789 92.0206 33.0789ZM134.722 44.0269V56.7026C134.722 62.8898 129.979 67.6517 123.814 67.6517H111.184C105.019 67.6517 100.275 62.8898 100.275 56.7026V44.0269C100.275 37.8385 105.019 33.0789 111.184 33.0789H123.814C129.979 33.0789 134.722 37.8385 134.722 44.0269ZM124.36 45.0736C124.36 44.1942 123.646 43.4775 122.77 43.4775H112.226C111.352 43.4775 110.637 44.1942 110.637 45.0736V55.6546C110.637 56.5329 111.352 57.2496 112.226 57.2496H122.77C123.646 57.2496 124.36 56.5329 124.36 55.6546V45.0736Z" fill="white"/>
</mask>
<g mask="url(#mask0)">
<path d="M37.26 60.3888C36.8586 60.3888 36.4665 60.1938 36.2307 59.8325C34.3953 57.0142 33.427 53.7422 33.427 50.3676C33.427 40.7965 41.1849 33.0119 50.7195 33.0119H59.1088C60.6279 33.0119 62.0332 33.6951 62.9624 34.8873C63.3799 35.4229 63.2867 36.1984 62.752 36.6151C62.2184 37.0352 61.4467 36.9417 61.0281 36.405C60.5612 35.806 59.8793 35.476 59.1088 35.476H50.7195C42.5373 35.476 35.8811 42.1537 35.8811 50.3653C35.8811 53.2598 36.7137 56.0666 38.2869 58.4845C38.6572 59.0523 38.4973 59.8164 37.9292 60.1903C37.7223 60.3253 37.49 60.3888 37.26 60.3888Z" fill="#AFE240"/>
<path d="M62.2368 61.394C61.8263 61.394 61.4238 61.1863 61.1915 60.8112C60.7361 60.0679 59.9759 59.6444 59.1088 59.6444H50.7196C47.5513 59.6444 44.6361 58.039 42.9237 55.3522C42.5592 54.7798 42.7248 54.018 43.2963 53.651C43.8667 53.2852 44.6257 53.4502 44.9914 54.025C46.2507 55.9997 48.3931 57.1792 50.7196 57.1792H59.1088C60.8189 57.1792 62.3783 58.0517 63.2787 59.5105C63.6364 60.0899 63.4581 60.8493 62.882 61.2082C62.6807 61.3352 62.4588 61.394 62.2368 61.394Z" fill="#AFE240"/>
<path d="M87.998 48.1978H78.116C77.4375 48.1978 76.889 47.645 76.889 46.9664C76.889 46.2866 77.4398 45.7372 78.116 45.7372H86.7698V38.0058C86.7698 35.1574 89.0261 33.0107 92.0172 33.0107C93.5559 33.0107 94.9486 33.5843 95.9353 34.6277C96.4022 35.1193 96.3838 35.8995 95.8916 36.3681C95.3994 36.8367 94.6231 36.8182 94.1562 36.3242C93.6364 35.7772 92.8774 35.4759 92.0172 35.4759C90.398 35.4759 89.2227 36.5412 89.2227 38.0058V46.9675C89.225 47.645 88.673 48.1978 87.998 48.1978Z" fill="#AFE240"/>
<path d="M68.7194 65.9228C68.3123 65.9228 67.9132 65.7185 67.6798 65.3492C67.1933 64.5737 66.9346 63.6665 66.9346 62.7271V38.0058C66.9346 35.1574 69.192 33.0107 72.1843 33.0107C73.6034 33.0107 74.9225 33.5116 75.8931 34.4188C76.3899 34.8816 76.4163 35.6618 75.9552 36.1615C75.494 36.6578 74.7166 36.6843 74.2198 36.2227C73.7058 35.7414 72.9824 35.4771 72.1843 35.4771C70.5651 35.4771 69.3875 36.5424 69.3875 38.0069V62.7271C69.3875 63.2072 69.5117 63.6492 69.7555 64.0347C70.1155 64.6117 69.9453 65.3712 69.3726 65.737C69.1702 65.8628 68.9436 65.9228 68.7194 65.9228Z" fill="#AFE240"/>
<path d="M88.6695 66.0948C88.2877 66.0948 87.9105 65.9148 87.6702 65.5789C87.0814 64.7514 86.7709 63.7658 86.7709 62.7236V55.7239C86.7709 55.0441 87.3206 54.4948 87.9979 54.4948C88.6741 54.4948 89.2238 55.0464 89.2238 55.7239V62.7236C89.2238 63.2488 89.3768 63.7393 89.6666 64.1444C90.0599 64.6972 89.9334 65.467 89.3814 65.8628C89.1663 66.021 88.9156 66.0948 88.6695 66.0948Z" fill="#AFE240"/>
<path d="M32.3771 63.243C31.7595 63.243 31.2282 62.7744 31.1592 62.1454C31.0776 61.3987 30.7107 60.7293 30.1288 60.263L21.2554 53.1421C20.7264 52.7162 20.6402 51.9407 21.0634 51.4109C21.4877 50.8789 22.2605 50.7958 22.7884 51.2193L31.6606 58.338C32.7566 59.2151 33.4454 60.4742 33.5984 61.873C33.6731 62.5494 33.1867 63.1564 32.5128 63.2338C32.4679 63.2407 32.4219 63.243 32.3771 63.243Z" fill="#AFE240"/>
<path d="M15.0017 46.3974C14.6809 46.3974 14.3589 46.2716 14.1185 46.0212C13.647 45.5307 13.662 44.7505 14.1484 44.2784L24.2569 34.488C25.2413 33.5359 26.5351 33.0107 27.9013 33.0107C29.3399 33.0107 30.682 33.5832 31.6802 34.6219C32.1505 35.1124 32.1367 35.8914 31.6491 36.3635C31.1615 36.8367 30.3841 36.8205 29.9138 36.3323C29.3825 35.7795 28.6672 35.4771 27.9013 35.4771C27.1745 35.4771 26.4856 35.7552 25.9612 36.2619L15.8527 46.0535C15.6158 46.2797 15.3088 46.3974 15.0017 46.3974Z" fill="#AFE240"/>
<path d="M62.537 61.9873C62.054 61.9873 61.5951 61.6988 61.4008 61.2209C60.9983 60.2353 60.1427 59.6479 59.11 59.6479H50.7207C48.737 59.6479 46.8452 59.0235 45.249 57.844C44.7028 57.4424 44.5866 56.6702 44.988 56.1209C45.3905 55.5738 46.1587 55.4561 46.7038 55.8601C47.8756 56.7256 49.2648 57.1827 50.7207 57.1827H59.11C61.1443 57.1827 62.8923 58.3726 63.6732 60.2873C63.9296 60.9163 63.6295 61.6364 63.0016 61.8961C62.8486 61.9573 62.6922 61.9873 62.537 61.9873Z" fill="#AFE240"/>
<path d="M61.9965 50.0859C61.5342 50.0859 61.0914 49.8216 60.8833 49.375C60.6061 48.7772 60.0725 48.4367 59.4182 48.4367H50.7058C50.0296 48.4367 49.3936 48.7991 49.0498 49.39C48.7048 49.9763 47.9515 50.1702 47.3685 49.8228C46.7854 49.4777 46.5922 48.7229 46.9372 48.1366C47.7215 46.8025 49.1659 45.9727 50.7069 45.9727H59.4193C61.0443 45.9727 62.4243 46.8567 63.1085 48.3328C63.3949 48.9503 63.1292 49.6832 62.514 49.9717C62.3461 50.0479 62.1701 50.0859 61.9965 50.0859Z" fill="#AFE240"/>
<path fill-rule="evenodd" clip-rule="evenodd" d="M102.183 63.1587C102.424 63.5015 102.803 63.6838 103.189 63.6838C103.432 63.6838 103.679 63.6123 103.893 63.4588C104.45 63.0675 104.583 62.3 104.195 61.7449C103.191 60.3092 102.66 58.5653 102.66 56.7025V44.0257C102.66 39.1507 106.323 35.4736 111.182 35.4736H123.811C126.691 35.4736 129.238 36.7512 130.8 38.9833C131.191 39.5431 131.956 39.6781 132.509 39.2845C133.064 38.8933 133.199 38.1246 132.808 37.5707C130.783 34.6715 127.502 33.0096 123.811 33.0096H111.181C104.922 33.0096 100.203 37.7461 100.203 44.0268V56.7002C100.203 59.0754 100.889 61.3086 102.183 63.1587ZM112.226 59.6444H122.77C124.962 59.6444 126.746 57.8578 126.744 55.6581V45.0748C126.744 44.3973 126.194 43.8456 125.518 43.8456C124.842 43.8456 124.291 44.3939 124.291 45.0748V55.6581C124.291 56.4971 123.609 57.1838 122.77 57.1838H112.226C111.551 57.1838 111 57.7332 111 58.4141C111 59.0916 111.549 59.6444 112.226 59.6444Z" fill="#AFE240"/>
<path d="M5.77761 66.3893C5.43836 66.3893 5.10026 66.2485 4.85761 65.9738C4.07561 65.0863 3.64551 63.9321 3.64551 62.7272V38.006C3.64551 35.1576 5.90181 33.0109 8.89411 33.0109C10.3144 33.0109 11.6323 33.5118 12.6029 34.419C13.0985 34.8818 13.1261 35.6619 12.665 36.1617C12.2027 36.6579 11.4253 36.6845 10.9296 36.2228C10.4156 35.7416 9.69221 35.4773 8.89411 35.4773C7.27491 35.4773 6.09846 36.5425 6.09846 38.0071V62.7272C6.09846 63.3401 6.30546 63.8998 6.69646 64.343C7.14611 64.8497 7.09781 65.6299 6.59066 66.0811C6.35606 66.2877 6.06741 66.3893 5.77761 66.3893Z" fill="#AFE240"/>
</g>
</svg>
