<svg width="191" height="62" viewBox="0 0 191 62" fill="none" xmlns="http://www.w3.org/2000/svg">
<path d="M55.4883 12.5896C59.5385 19.3464 60.3895 25.3882 60.2774 28.5411C59.7006 44.6796 46.3631 59.4652 30.484 61.5668C26.5254 62.0904 22.7825 61.7761 19.403 60.7597C15.6984 59.6453 10.9543 56.2737 6.83083 51.3564L55.4883 12.5896Z" fill="#C1069E"/>
<path d="M30.7745 0.68188C46.6536 -1.41967 59.0578 9.96022 58.4837 26.0974C57.9069 42.2363 44.5694 57.0215 28.6903 59.123C12.8124 61.2242 0.407002 49.8459 0.982661 33.7071C1.55832 17.5695 14.8974 2.78303 30.7745 0.68188Z" fill="#FF00C8"/>
<path d="M28.8366 10.2887C38.6395 8.99138 46.2972 16.0167 45.9426 25.9786C45.5865 35.9422 37.3524 45.0694 27.5499 46.3668C17.7478 47.6645 10.0893 40.6397 10.4446 30.6769C10.7999 20.7141 19.0349 11.5857 28.8366 10.2887Z" fill="white"/>
<path d="M28.6588 11.3063C37.8317 10.0922 44.9976 16.6661 44.6659 25.9886C44.3331 35.312 36.6277 43.8533 27.4548 45.067C18.2826 46.2812 11.116 39.708 11.4484 30.3847C11.7809 21.0621 19.4867 12.5201 28.6588 11.3063Z" fill="#FF00C8"/>
<path d="M28.5161 13.114C36.6642 12.0357 43.0294 17.8749 42.7346 26.1554C42.4382 34.437 35.5947 42.0237 27.4467 43.102C19.299 44.1803 12.9334 38.3415 13.229 30.0602C13.5242 21.7798 20.3689 14.1923 28.5161 13.114Z" fill="white"/>
<path d="M8.20204 18.8825C8.22454 18.8845 8.24665 18.8873 8.26876 18.8905C8.29087 18.8942 8.31259 18.8982 8.33432 18.903C8.35604 18.9078 8.37738 18.9135 8.39832 18.9199C8.41966 18.9267 8.4406 18.9336 8.46155 18.9416C8.60857 18.9983 8.72843 19.0883 8.8192 19.2028C8.91036 19.3178 8.97282 19.4576 9.00424 19.6128C9.03527 19.7683 9.03566 19.9391 9.00346 20.116C8.97088 20.2932 8.90571 20.4769 8.80563 20.6573C8.71951 20.8129 8.61478 20.9531 8.49724 21.0757C8.3797 21.1983 8.25014 21.3028 8.11399 21.386C7.97783 21.4696 7.83547 21.5315 7.6931 21.5696C7.55074 21.6074 7.40838 21.6215 7.27183 21.6086C7.24934 21.6062 7.22761 21.6034 7.2055 21.5998C7.18339 21.5962 7.16206 21.5917 7.14033 21.5869C7.11861 21.5821 7.09766 21.5761 7.07672 21.5696C7.05538 21.5628 7.03482 21.5556 7.01426 21.5475C6.86763 21.4893 6.74855 21.3976 6.65894 21.2815C6.56894 21.1653 6.50804 21.0251 6.47817 20.8695C6.4483 20.7144 6.44908 20.544 6.48244 20.3675C6.5158 20.1915 6.58136 20.009 6.68144 19.8298C6.76717 19.6759 6.87074 19.5368 6.98672 19.4154C7.10309 19.2945 7.23149 19.1904 7.3661 19.1076C7.50109 19.0244 7.6419 18.9621 7.7831 18.9235C7.9243 18.8853 8.06588 18.8705 8.20204 18.8825Z" fill="white"/>
<path d="M25.1879 3.72587C25.3062 3.73069 25.4176 3.75239 25.5192 3.79017C25.6212 3.82835 25.7132 3.88221 25.7927 3.95093C25.8722 4.01966 25.9393 4.10285 25.9905 4.19971C26.0417 4.29657 26.0774 4.40669 26.0941 4.52847C26.1178 4.69847 26.1022 4.87531 26.0541 5.04933C26.006 5.22336 25.9265 5.39497 25.8202 5.55493C25.7143 5.71448 25.582 5.86198 25.4304 5.98778C25.2787 6.11317 25.1076 6.21727 24.9234 6.29001C24.8714 6.3101 24.8202 6.32779 24.7698 6.34226C24.7193 6.35673 24.6685 6.36838 24.6193 6.37682C24.5696 6.38566 24.5207 6.39169 24.4726 6.39491C24.4245 6.39812 24.3776 6.39852 24.3318 6.39611C24.2131 6.39049 24.1018 6.36758 24.0002 6.32859C23.8985 6.28961 23.807 6.23455 23.7282 6.16502C23.6499 6.09549 23.5839 6.01149 23.5339 5.91383C23.4838 5.81657 23.4493 5.70604 23.4338 5.58387C23.4121 5.41466 23.4284 5.23903 23.4765 5.06621C23.5246 4.89299 23.6045 4.72299 23.71 4.56504C23.8151 4.40709 23.9458 4.2612 24.096 4.13621C24.2465 4.01122 24.416 3.90793 24.5991 3.83478C24.6507 3.81429 24.7015 3.7966 24.7519 3.78213C24.8024 3.76767 24.8524 3.75561 24.9017 3.74637C24.9513 3.73752 24.9998 3.73109 25.0475 3.72748C25.0952 3.72506 25.1422 3.72386 25.1879 3.72587Z" fill="white"/>
<path d="M10.5843 20.5716C10.5955 20.5725 10.6071 20.5741 10.618 20.5757C10.6289 20.5773 10.6405 20.5797 10.651 20.5821C10.6622 20.5845 10.6731 20.5877 10.6836 20.5909C10.694 20.5942 10.7053 20.5978 10.7154 20.6018C10.7902 20.6307 10.8519 20.6769 10.8988 20.7352C10.9454 20.7939 10.9772 20.8646 10.9935 20.9434C11.0098 21.0222 11.0102 21.1086 10.9943 21.1982C10.9784 21.2878 10.9458 21.3807 10.8954 21.4719C10.8527 21.5503 10.7999 21.621 10.7406 21.6825C10.682 21.7444 10.6164 21.7967 10.5474 21.8389C10.4787 21.8807 10.4066 21.9124 10.3344 21.9313C10.2619 21.9502 10.1897 21.9574 10.1199 21.9506C10.1091 21.9498 10.0974 21.9482 10.0862 21.9462C10.0753 21.9446 10.0637 21.9421 10.0532 21.9393C10.0423 21.9369 10.0311 21.9341 10.0206 21.9309C10.0101 21.9273 9.9989 21.9237 9.98881 21.9196C9.91395 21.8903 9.85266 21.8441 9.80649 21.7854C9.75995 21.7267 9.72852 21.6556 9.71262 21.5768C9.69672 21.498 9.69633 21.4116 9.71262 21.3224C9.72891 21.2328 9.7615 21.1407 9.81154 21.0499C9.8546 20.9719 9.90696 20.9016 9.96593 20.8405C10.0245 20.779 10.0897 20.7268 10.1583 20.6846C10.227 20.6428 10.2984 20.6114 10.3705 20.5921C10.4427 20.5729 10.5148 20.5656 10.5843 20.5716Z" fill="white"/>
<path d="M25.3737 7.39848C25.4331 7.40129 25.4897 7.41335 25.5413 7.43304C25.5929 7.45273 25.6394 7.48087 25.6794 7.51664C25.7197 7.552 25.7531 7.59461 25.7791 7.64444C25.8051 7.69428 25.8229 7.75055 25.8315 7.81244C25.8431 7.89845 25.8357 7.98847 25.8113 8.07649C25.7872 8.16491 25.7473 8.25172 25.6934 8.3321C25.6398 8.41248 25.5731 8.48684 25.4971 8.55034C25.4203 8.61384 25.3338 8.66568 25.2411 8.70226C25.2151 8.7123 25.1895 8.72115 25.1639 8.72798C25.1386 8.73521 25.113 8.74084 25.0886 8.74486C25.0638 8.74928 25.0389 8.75209 25.0153 8.7533C24.9912 8.7545 24.9672 8.75491 24.9439 8.7537C24.8842 8.75048 24.8275 8.73843 24.7763 8.71833C24.7247 8.69824 24.6786 8.6697 24.6386 8.63433C24.5987 8.59897 24.5653 8.55556 24.5397 8.50613C24.5141 8.45669 24.497 8.40002 24.4889 8.33773C24.4776 8.25132 24.4854 8.1621 24.5095 8.07408C24.5335 7.98606 24.5738 7.89965 24.627 7.81967C24.6805 7.73929 24.7469 7.66574 24.8225 7.60264C24.8985 7.53955 24.9843 7.4877 25.077 7.45113C25.1026 7.44108 25.1286 7.43264 25.1538 7.425C25.179 7.41817 25.2046 7.41214 25.229 7.40812C25.2539 7.4037 25.2787 7.40089 25.3023 7.39928C25.3268 7.39767 25.3504 7.39767 25.3737 7.39848Z" fill="white"/>
<path d="M5.19039 40.3859C5.28232 40.3999 5.36999 40.4265 5.45184 40.4638C5.53369 40.5012 5.60933 40.5506 5.67799 40.6109C5.74626 40.6712 5.80716 40.7419 5.85875 40.8235C5.90996 40.9055 5.95224 40.998 5.98327 41.1C6.03758 41.2777 6.05271 41.469 6.03409 41.6623C6.01547 41.8556 5.9631 42.0513 5.88125 42.2382C5.79979 42.4251 5.68924 42.6028 5.55424 42.7603C5.41886 42.9183 5.25982 43.0553 5.08138 43.1614C5.00574 43.2064 4.92932 43.2438 4.85329 43.2743C4.77765 43.3049 4.70201 43.3278 4.62753 43.3439C4.55344 43.3599 4.47935 43.3688 4.40797 43.3708C4.33582 43.3732 4.26561 43.3684 4.19811 43.3575C4.10618 43.3427 4.01812 43.3153 3.93666 43.2763C3.8552 43.2374 3.77995 43.1871 3.71206 43.126C3.64418 43.0649 3.58444 42.9926 3.53362 42.9102C3.4832 42.8278 3.44208 42.735 3.41221 42.6325C3.35984 42.4553 3.34588 42.2644 3.36527 42.0718C3.38467 41.8793 3.43781 41.6856 3.51888 41.5003C3.60034 41.3155 3.71012 41.1398 3.84395 40.9835C3.97778 40.8276 4.13566 40.6909 4.31216 40.586C4.38741 40.541 4.46305 40.5036 4.53792 40.4731C4.61279 40.4425 4.68804 40.4192 4.76213 40.4027C4.83584 40.3867 4.90954 40.377 4.98091 40.3742C5.05268 40.3714 5.1225 40.375 5.19039 40.3859Z" fill="white"/>
<path d="M8.08225 39.2527C8.1288 39.2603 8.17302 39.2727 8.21491 39.2916C8.25681 39.3105 8.29482 39.3346 8.32973 39.3652C8.36465 39.3957 8.39568 39.4307 8.42167 39.4717C8.44805 39.5127 8.46977 39.5589 8.48567 39.6099C8.5136 39.6984 8.52214 39.7936 8.5136 39.8897C8.50507 39.9857 8.47908 40.0838 8.43835 40.1766C8.39801 40.2699 8.34253 40.3587 8.27504 40.4379C8.20754 40.5162 8.12763 40.5854 8.03802 40.6388C8.00001 40.6617 7.96161 40.6806 7.9232 40.6959C7.88519 40.7112 7.84717 40.7228 7.80954 40.7308C7.77153 40.7393 7.73468 40.7441 7.69821 40.7453C7.66175 40.7465 7.62606 40.7441 7.59193 40.7393C7.54538 40.7317 7.50115 40.7184 7.45965 40.6995C7.41814 40.6802 7.37935 40.6561 7.34483 40.6251C7.3103 40.5954 7.27966 40.5592 7.25367 40.5182C7.22768 40.4772 7.20634 40.431 7.19044 40.38C7.16328 40.2912 7.15514 40.1963 7.16445 40.1003C7.17376 40.0042 7.19975 39.9069 7.24009 39.8141C7.28043 39.7213 7.33552 39.6329 7.40301 39.5545C7.46973 39.4761 7.54925 39.4078 7.63809 39.3543C7.6761 39.3314 7.71412 39.3125 7.75213 39.2973C7.79015 39.282 7.82778 39.2703 7.8654 39.2615C7.90303 39.2535 7.93988 39.2486 7.97635 39.247C8.01242 39.2462 8.04772 39.2478 8.08225 39.2527Z" fill="white"/>
<path d="M42.9476 8.39879C42.9732 8.39999 42.9992 8.40281 43.0241 8.40723C43.0489 8.41165 43.0741 8.41687 43.0982 8.42411C43.1222 8.43134 43.1459 8.44018 43.1691 8.45023C43.192 8.46068 43.2141 8.47234 43.2359 8.4856C43.3119 8.53262 43.3709 8.59492 43.4116 8.66766C43.4523 8.74081 43.476 8.8232 43.4814 8.91081C43.4868 8.99883 43.474 9.09167 43.443 9.18411C43.4116 9.27655 43.3623 9.36898 43.2937 9.45539C43.2452 9.51809 43.1897 9.57315 43.1303 9.62098C43.071 9.6684 43.0074 9.70819 42.9414 9.73994C42.8759 9.77169 42.8076 9.795 42.7393 9.80947C42.6715 9.82394 42.6036 9.82956 42.5372 9.82635C42.5116 9.82514 42.4856 9.82193 42.4608 9.81791C42.4356 9.81389 42.4108 9.80786 42.3867 9.80063C42.3627 9.79339 42.339 9.78455 42.3161 9.7741C42.2932 9.76405 42.2711 9.752 42.2498 9.73873C42.1742 9.69091 42.1156 9.62821 42.0752 9.55506C42.0349 9.48232 42.0116 9.39913 42.0066 9.31151C42.0019 9.22349 42.0147 9.13106 42.0461 9.03902C42.0776 8.94698 42.1268 8.85495 42.1951 8.76894C42.244 8.70705 42.2991 8.65199 42.358 8.60496C42.417 8.55754 42.4802 8.51815 42.5454 8.4864C42.6109 8.45465 42.6784 8.43134 42.7463 8.41687C42.8138 8.4016 42.8817 8.39557 42.9476 8.39879Z" fill="white"/>
<path d="M45.5404 4.64955C45.5924 4.65156 45.644 4.65638 45.6944 4.66442C45.7448 4.67246 45.7949 4.68291 45.8434 4.69657C45.8922 4.71064 45.94 4.72712 45.9861 4.74681C46.0323 4.7665 46.0773 4.78901 46.1207 4.81513C46.2743 4.90717 46.3934 5.03015 46.4772 5.17323C46.561 5.31671 46.6099 5.48068 46.6215 5.65511C46.6339 5.82954 46.6099 6.01401 46.5486 6.19808C46.4877 6.38256 46.3892 6.56663 46.253 6.74025C46.1552 6.86484 46.0447 6.97536 45.9252 7.07061C45.8061 7.16586 45.6781 7.24584 45.5458 7.30934C45.4139 7.37284 45.2778 7.42027 45.1412 7.45001C45.0043 7.47975 44.8678 7.49181 44.7351 7.48578C44.6831 7.48337 44.6315 7.47774 44.5811 7.4697C44.5307 7.46126 44.481 7.45041 44.4325 7.43594C44.3837 7.42188 44.3363 7.40459 44.2902 7.3845C44.2444 7.3644 44.1998 7.34109 44.1563 7.31457C44.0039 7.22052 43.8867 7.09633 43.8041 6.95205C43.7223 6.80817 43.6757 6.64379 43.6649 6.47017C43.6544 6.29655 43.6792 6.11328 43.7405 5.93041C43.8022 5.74795 43.8999 5.56549 44.0353 5.39428C44.1323 5.27089 44.2417 5.16157 44.3596 5.06713C44.4779 4.97268 44.604 4.8927 44.7351 4.8292C44.8658 4.7657 45.0012 4.71827 45.1366 4.68773C45.272 4.65759 45.4081 4.64432 45.5404 4.64955Z" fill="white"/>
<path d="M20.9895 50.55C21.0857 50.5668 21.1711 50.6062 21.2421 50.6617C21.3138 50.7172 21.3712 50.7895 21.4124 50.8735C21.4535 50.9579 21.4791 51.054 21.4853 51.1568C21.4915 51.2597 21.4791 51.3694 21.4453 51.4812C21.4116 51.5929 21.36 51.6954 21.2952 51.7858C21.2304 51.8762 21.1528 51.9538 21.0671 52.0149C20.9814 52.0768 20.8883 52.1226 20.7921 52.1475C20.6959 52.1733 20.597 52.1793 20.5004 52.1616C20.4038 52.1439 20.3188 52.1041 20.2478 52.0483C20.1769 51.992 20.1194 51.9197 20.0783 51.8353C20.0376 51.7505 20.0128 51.6548 20.0066 51.5519C20.0004 51.449 20.0135 51.3401 20.0469 51.2284C20.0807 51.1179 20.1326 51.0158 20.1966 50.9253C20.2614 50.8357 20.3386 50.7586 20.424 50.6971C20.5089 50.636 20.6016 50.5902 20.6974 50.5644C20.7932 50.5387 20.8929 50.5327 20.9895 50.55Z" fill="white"/>
<path d="M20.0423 53.678C20.2355 53.7146 20.4062 53.7942 20.5497 53.9083C20.6928 54.022 20.8084 54.1695 20.8918 54.3416C20.9748 54.5132 21.0253 54.7089 21.0377 54.9179C21.0505 55.1273 21.0256 55.3503 20.9578 55.5774C20.8891 55.8033 20.7851 56.0119 20.6544 56.1947C20.5237 56.3772 20.367 56.5343 20.1944 56.6581C20.0221 56.7819 19.8336 56.8723 19.6396 56.9218C19.4461 56.972 19.2475 56.9813 19.0535 56.9431C18.8599 56.9045 18.6896 56.8221 18.5473 56.7064C18.4049 56.5906 18.2909 56.4407 18.2098 56.2679C18.1287 56.0951 18.0802 55.8997 18.0694 55.6908C18.0585 55.4818 18.0849 55.2607 18.1532 55.0361C18.2218 54.8114 18.3258 54.6056 18.4553 54.4248C18.5849 54.2439 18.7397 54.0892 18.9108 53.9658C19.081 53.8432 19.2676 53.7532 19.4593 53.7025C19.6513 53.6527 19.8487 53.6414 20.0423 53.678Z" fill="white"/>
<path d="M50.6542 24.3865C50.7419 24.3946 50.8237 24.4179 50.8963 24.4537C50.9692 24.4894 51.0332 24.5385 51.0856 24.5979C51.1383 24.6574 51.1794 24.7274 51.2066 24.8057C51.2341 24.8837 51.2473 24.9705 51.2442 25.0629C51.24 25.1703 51.214 25.2752 51.1701 25.3732C51.1263 25.4713 51.0646 25.5625 50.9894 25.6421C50.9145 25.7217 50.8261 25.7896 50.7291 25.841C50.6321 25.8925 50.5266 25.9274 50.416 25.9411C50.4005 25.9431 50.3854 25.9447 50.3703 25.9459C50.3555 25.9471 50.3404 25.9479 50.3257 25.9479C50.3109 25.9479 50.2962 25.9479 50.2818 25.9475C50.2675 25.9471 50.2527 25.9463 50.2388 25.9447C50.1507 25.9363 50.0692 25.9122 49.9971 25.876C49.9246 25.8398 49.8609 25.7904 49.8093 25.7305C49.757 25.671 49.7166 25.6007 49.6895 25.5223C49.6631 25.4444 49.6503 25.3579 49.6542 25.2659C49.6585 25.159 49.6844 25.0541 49.7283 24.956C49.7717 24.8584 49.8334 24.7675 49.9079 24.688C49.9824 24.6088 50.07 24.5409 50.1666 24.4894C50.2628 24.438 50.3687 24.403 50.4781 24.389C50.4932 24.3869 50.5084 24.3853 50.5235 24.3841C50.5382 24.3829 50.553 24.3825 50.5677 24.3821C50.5825 24.3817 50.5968 24.3821 50.6112 24.3825C50.6259 24.3841 50.6399 24.3853 50.6542 24.3865Z" fill="white"/>
<path d="M54.7598 23.0984C54.9386 23.1145 55.1051 23.1603 55.254 23.2322C55.403 23.3042 55.5353 23.4018 55.6439 23.5212C55.7525 23.6406 55.8386 23.7808 55.8956 23.9388C55.953 24.0963 55.9821 24.2707 55.9767 24.4572C55.9709 24.6742 55.9201 24.8869 55.8324 25.0854C55.7447 25.2843 55.621 25.4688 55.4693 25.6296C55.318 25.7907 55.1392 25.9282 54.9421 26.0319C54.7455 26.136 54.5302 26.2067 54.306 26.2352C54.2745 26.2389 54.2439 26.2421 54.2136 26.2441C54.183 26.2461 54.1531 26.2473 54.1229 26.2477C54.093 26.2485 54.0635 26.2477 54.034 26.2469C54.0046 26.2461 53.9755 26.2437 53.9464 26.2409C53.7672 26.2236 53.6004 26.1754 53.4522 26.1018C53.304 26.0283 53.1729 25.9286 53.0658 25.808C52.9588 25.6874 52.8742 25.5464 52.8187 25.3884C52.7629 25.2309 52.7361 25.0569 52.7423 24.8712C52.7497 24.6562 52.8013 24.4456 52.8889 24.249C52.9766 24.0525 53.0996 23.87 53.2497 23.7105C53.3998 23.5513 53.5763 23.4151 53.771 23.311C53.9662 23.2073 54.1795 23.1362 54.4018 23.1072C54.4324 23.1032 54.4631 23.1 54.4933 23.0976C54.5236 23.0956 54.5538 23.094 54.5837 23.0932C54.6132 23.0928 54.6431 23.0928 54.6725 23.0936C54.702 23.0944 54.7311 23.096 54.7598 23.0984Z" fill="white"/>
<path d="M40.7869 44.1135C40.8288 44.1199 40.8696 44.13 40.9091 44.1433C40.9487 44.1569 40.9867 44.1746 41.0228 44.1955C41.0593 44.2164 41.0938 44.2405 41.126 44.2695C41.1582 44.2972 41.188 44.3293 41.2152 44.3647C41.2784 44.4487 41.3203 44.5444 41.3424 44.6456C41.3645 44.7473 41.3661 44.8546 41.3486 44.9611C41.3312 45.0676 41.2939 45.1737 41.2392 45.2734C41.1842 45.3723 41.1112 45.4651 41.0212 45.5443C40.9693 45.5897 40.915 45.6279 40.8579 45.6596C40.8013 45.6914 40.7435 45.7167 40.6849 45.7352C40.6267 45.7533 40.567 45.7641 40.5088 45.7693C40.4502 45.7742 40.392 45.7722 40.3362 45.7633C40.2943 45.7561 40.2532 45.7464 40.214 45.7328C40.1744 45.7187 40.1364 45.7014 40.1003 45.6801C40.0639 45.6588 40.0297 45.6339 39.9975 45.605C39.9657 45.5764 39.9363 45.5443 39.9091 45.5085C39.8463 45.4249 39.8044 45.3293 39.783 45.2276C39.7617 45.1259 39.7605 45.019 39.7784 44.9129C39.7958 44.8064 39.8331 44.7011 39.8874 44.6026C39.9428 44.5038 40.0154 44.4117 40.1054 44.333C40.157 44.2879 40.2113 44.2494 40.2671 44.218C40.3238 44.1863 40.3812 44.1613 40.4394 44.1429C40.4976 44.1248 40.5565 44.1131 40.6147 44.1079C40.6729 44.1035 40.7307 44.1055 40.7869 44.1135Z" fill="white"/>
<path d="M43.268 46.2511C43.3533 46.2643 43.4364 46.2852 43.517 46.3129C43.5977 46.3411 43.6757 46.3768 43.7502 46.4203C43.8247 46.4637 43.8949 46.5135 43.9608 46.5718C44.0271 46.63 44.088 46.6956 44.1439 46.7679C44.275 46.9391 44.3623 47.1344 44.4089 47.3414C44.455 47.5488 44.4601 47.7674 44.4259 47.9857C44.391 48.2031 44.3177 48.4197 44.2064 48.6223C44.0954 48.8244 43.9469 49.0125 43.7626 49.1725C43.6575 49.2645 43.5461 49.3425 43.4313 49.4064C43.3165 49.4699 43.1982 49.5201 43.0791 49.5563C42.96 49.5925 42.8394 49.6146 42.7199 49.623C42.6004 49.6315 42.4825 49.6262 42.3677 49.6074C42.2823 49.5933 42.1989 49.572 42.1182 49.543C42.0379 49.5137 41.9604 49.4771 41.8863 49.4333C41.8122 49.3895 41.7424 49.3381 41.6772 49.279C41.6116 49.2203 41.5515 49.1536 41.4964 49.0809C41.3676 48.9084 41.2819 48.7127 41.2377 48.5053C41.1939 48.2979 41.1904 48.0805 41.2261 47.8639C41.2614 47.6485 41.3354 47.4339 41.446 47.2341C41.5566 47.0344 41.7036 46.8487 41.8851 46.6899C41.9895 46.5987 42.0992 46.5215 42.2129 46.458C42.3266 46.3941 42.4437 46.3439 42.5616 46.3077C42.6799 46.2707 42.799 46.2486 42.9177 46.239C43.0364 46.2293 43.1536 46.2334 43.268 46.2511Z" fill="white"/>
<mask id="mask0" mask-type="alpha" maskUnits="userSpaceOnUse" x="6" y="12" width="55" height="50">
<path fill-rule="evenodd" clip-rule="evenodd" d="M55.4883 12.5896C59.5385 19.3464 60.3895 25.3882 60.2774 28.5411C59.7006 44.6796 46.3631 59.4652 30.484 61.5668C26.5254 62.0904 22.7825 61.7761 19.403 60.7597C15.6984 59.6453 10.9543 56.2737 6.83083 51.3564L55.4883 12.5896Z" fill="white"/>
</mask>
<g mask="url(#mask0)">
<path d="M50.5828 46.3796L55.9235 51.2828L63.3578 36.0386L58.0171 30.4574L50.5828 46.3796Z" fill="#C9C9C9"/>
<path d="M57.5811 17.8746L62.9218 22.7774L56.8394 11.5543L51.245 8.755L57.5811 17.8746Z" fill="#C9C9C9"/>
<path d="M24.3007 59.3628L29.6415 64.2656L45.0876 61.0259L39.7465 55.4451L24.3007 59.3628Z" fill="#C9C9C9"/>
<path d="M6.25941 50.5673L10.1273 57.5443L18.3983 61.9873L13.0572 56.4061L6.25941 50.5673Z" fill="#C9C9C9"/>
</g>
<path fill-rule="evenodd" clip-rule="evenodd" d="M36.2922 22.4314C36.1677 21.5605 35.8151 20.8021 35.2464 20.1743C34.6448 19.5124 33.8565 19.0454 32.848 18.7387C32.2673 18.5623 31.6362 18.455 30.9267 18.4075C30.4705 18.369 24.4866 17.8143 24.3912 17.8143C24.2872 17.8143 24.2046 17.8316 24.1216 17.8702C23.8725 17.9775 23.7069 18.1857 23.582 18.588C23.3329 19.3749 18.4907 35.0881 18.4907 35.0881C18.4697 35.1569 18.4573 35.2284 18.4492 35.2859C18.4158 35.615 18.5198 35.7372 18.8518 35.7915C18.8518 35.7915 20.6983 36.0981 21.4655 36.2211C21.528 36.2315 21.5901 36.2384 21.6525 36.2384C21.9551 36.2384 22.1502 36.0921 22.2957 35.7485C22.3368 35.6299 23.6856 31.133 23.6856 31.133C23.8101 30.7395 24.1755 30.3163 24.7023 30.3163C24.7562 30.3163 26.52 30.5571 26.8928 30.6105C27.3494 30.6817 27.6605 31.0189 27.7311 31.52C27.7431 31.6318 28.4281 36.0595 28.5402 36.7114C28.6233 37.1672 28.8017 37.3882 29.1334 37.4529C29.1954 37.4638 32.2665 37.9802 32.3204 37.9802C32.5485 37.9802 32.6816 37.8874 32.7351 37.7045C32.7642 37.5759 32.7766 37.4425 32.7642 37.3352C32.7145 36.9843 31.8429 31.4216 31.7475 30.8472C31.6854 30.4494 31.8514 30.0885 32.1835 29.9164C32.2576 29.8734 32.4861 29.7661 32.5357 29.7404C33.7394 29.1343 34.6312 28.3538 35.2662 27.3503C35.9594 26.2623 36.3116 24.9682 36.3737 23.3132C36.3749 23.3128 36.3749 22.8184 36.2922 22.4314ZM32.2584 24.2584C32.2044 25.0754 31.9267 25.8278 31.4038 26.4769C31.0221 26.9628 30.5035 27.2787 29.8475 27.4145C29.6318 27.4615 29.1337 27.5524 28.8521 27.5367C28.8521 27.5367 26.2089 27.214 25.9389 27.1927C25.6484 27.1609 25.4079 27.0363 25.2833 26.8269C25.1507 26.6276 25.1173 26.3651 25.2003 26.0902C25.2003 26.0902 26.0925 23.0868 26.3001 22.3887C26.4242 21.9764 26.8311 21.5608 27.3707 21.5608C27.4118 21.5608 29.4662 21.7758 29.8479 21.8252C30.3789 21.8899 31.1551 22.0551 31.7401 22.7066C32.1133 23.1298 32.2878 23.6455 32.2584 24.2584Z" fill="#FF00C8"/>
<mask id="mask1" mask-type="alpha" maskUnits="userSpaceOnUse" x="0" y="0" width="59" height="60">
<path fill-rule="evenodd" clip-rule="evenodd" d="M30.7745 0.68188C46.6536 -1.41967 59.0578 9.96022 58.4837 26.0974C57.9069 42.2363 44.5694 57.0215 28.6903 59.123C12.8124 61.2242 0.407002 49.8459 0.982661 33.7071C1.55832 17.5695 14.8974 2.78303 30.7745 0.68188Z" fill="white"/>
</mask>
<g mask="url(#mask1)">
<path d="M57.6281 17.8729C49.6713 18.8162 49.0537 16.0491 48.3714 14.7147C47.8023 13.6019 47.3298 11.9287 50.7369 6.39494L52.7994 5.88171L60.3206 13.6236L57.6281 17.8729Z" fill="white"/>
<path d="M50.5828 46.3796C48.1805 43.0201 46.291 40.4483 48.345 35.8759C50.3675 31.3749 55.5229 30.93 58.0171 30.4574L62.4153 31.9087L54.9418 52.1582L50.5828 46.3796Z" fill="white"/>
<path d="M24.3008 59.3627C25.0917 57.2487 26.776 52.5697 30.4887 51.3045C35.4943 49.5992 36.8636 52.5082 39.7466 55.4449C39.7466 55.4449 43.578 58.6573 43.6493 59.3699C43.7207 60.0825 25.7004 64.4166 25.7004 64.4166L24.3008 59.3627Z" fill="white"/>
<path d="M4.09727 47.525C8.57569 45.2088 10.8981 45.4817 12.8784 47.7705C14.8587 50.0594 13.5502 53.5415 13.0898 56.4741L12.6456 60.5322C12.6456 60.5322 0.96916 49.1177 0.921835 49.1177C0.874122 49.1177 4.09727 47.525 4.09727 47.525Z" fill="white"/>
<path d="M2.93705 23.5776C5.7587 25.2375 7.54037 26.1309 6.79752 30.1238C6.05507 34.1171 3.19113 35.5093 0.985084 37.1254H-1.64301L-0.858652 23.5776H2.93705Z" fill="white"/>
<path d="M19.1163 4.56477C19.024 7.25109 19.4344 9.62152 16.6985 12.3512C13.5669 15.4752 10.6168 14.2977 8.3972 13.858C8.3972 13.858 4.89399 12.3549 5.28578 11.9735C5.67795 11.5921 12.6118 4.78541 12.6118 4.78541L19.1167 2.39771V4.56477H19.1163Z" fill="white"/>
<path d="M41.5229 1.30726C38.9087 4.47265 37.1011 5.98139 33.7767 5.87609C30.4531 5.7708 29.8875 3.86859 29.1501 0.846678C29.1501 0.846678 29.8627 -3.11649 30.5163 -3.14462C31.1699 -3.17276 45.1324 -1.69697 45.1324 -1.69697L41.5229 1.30726Z" fill="white"/>
</g>
<path fill-rule="evenodd" clip-rule="evenodd" d="M181.005 19.6047C175.804 19.6047 171.656 23.7608 171.656 29.4574C171.656 35.3867 175.761 39.4957 181.005 39.4957C186.25 39.4957 190.352 35.3871 190.352 29.4574C190.352 23.7608 186.205 19.6047 181.005 19.6047ZM75.103 20.2354H81.4224C85.4819 20.2354 88.5751 22.57 88.5755 27.0524C88.5755 30.9975 85.4819 33.4258 81.1381 33.4258H78.723V37.5349C78.723 38.4464 78.3064 38.7265 77.6698 38.7265H75.103C74.4653 38.7265 74.0494 38.4464 74.0494 37.5349V21.4266C74.0494 20.5147 74.4653 20.2354 75.103 20.2354ZM78.723 29.504H81.2906C83.3314 29.504 84.0117 28.3831 84.0117 26.7955C83.9454 25.3487 82.9365 24.4609 81.2681 24.4609H78.723V29.504ZM175.98 29.5282C176.024 32.7253 178.196 34.8972 181.005 34.8972C183.814 34.8972 185.986 32.7249 186.03 29.5282C185.963 26.2346 183.769 24.1809 181.005 24.1809C178.24 24.1809 176.044 26.235 175.98 29.5282ZM99.9436 21.2627C99.5483 20.3753 99.3287 20.1884 98.4513 20.1884H96.6071C95.7301 20.1884 95.5101 20.3757 95.1149 21.2627L88.6631 37.2789C88.2461 38.3054 88.378 38.7266 89.2116 38.7266H91.8673C92.5919 38.7266 92.7447 38.4465 92.9643 37.9087L93.7762 35.6685H101.281L102.093 37.9087C102.314 38.4465 102.467 38.7266 103.191 38.7266H105.846C106.679 38.7266 106.811 38.3054 106.395 37.2789L99.9436 21.2627ZM97.5288 25.2313L95.137 31.8386H99.8986L97.5288 25.2313ZM145.521 20.2354H143.921C143.372 20.2587 143.063 20.3057 142.603 20.8893L135.185 30.9047V21.4266C135.185 20.5147 134.769 20.2354 134.132 20.2354H131.564C130.93 20.2354 130.512 20.5147 130.512 21.4266V37.5349C130.512 38.4681 130.93 38.7265 131.564 38.7265H133.166C133.716 38.7028 134.023 38.6562 134.483 38.071L141.9 28.0789V37.5349C141.9 38.4464 142.316 38.7265 142.955 38.7265H145.521C146.159 38.7265 146.575 38.4464 146.575 37.5349V21.4266C146.576 20.4918 146.159 20.2354 145.521 20.2354ZM167.047 34.431H168.212C168.915 34.384 169.199 34.8735 169.222 35.6202V42.0177C169.222 42.9276 168.803 43.2086 168.169 43.2086H166.126C165.491 43.2086 165.073 42.9276 165.073 42.0177V38.7265H153.727V42.0177C153.727 42.9276 153.313 43.2086 152.674 43.2086H150.633C149.998 43.2086 149.58 42.9276 149.58 42.0177V35.6202C149.602 34.8735 149.889 34.3836 150.592 34.431H151.534C153.464 30.8577 153.882 25.2314 153.882 21.4266C153.882 20.4918 154.3 20.2354 154.935 20.2354H165.995C166.631 20.2354 167.047 20.4918 167.047 21.4266V34.431ZM162.375 34.4309H156.142C157.107 31.9789 157.655 28.3601 157.854 24.5079H162.375V34.4309ZM110.345 20.2354H124.3C124.938 20.2354 125.355 20.5147 125.355 21.4266V37.5349C125.355 38.4464 124.938 38.7265 124.3 38.7265H121.733C121.097 38.7265 120.679 38.4464 120.679 37.5349V24.5317H113.966V37.5349C113.966 38.4464 113.548 38.7265 112.913 38.7265H110.345C109.707 38.7265 109.291 38.4464 109.291 37.5349V21.4266C109.291 20.5147 109.707 20.2354 110.345 20.2354Z" fill="white"/>
</svg>
