<svg width="219" height="79" viewBox="0 0 219 79" fill="none" xmlns="http://www.w3.org/2000/svg">
<path d="M70.7553 28.9081C70.137 27.3571 69.3204 25.6921 68.2237 23.9701L67.3487 24.6315L26.2476 55.5254L26.0959 55.6394C26.1192 55.6622 26.1426 55.6964 26.1659 55.7192C26.1892 55.742 26.2125 55.7762 26.2359 55.7991C28.6158 58.4448 31.2175 60.5204 33.6208 61.8775C34.7991 62.5389 35.9308 63.0293 36.9808 63.3258C39.0224 63.9074 41.2274 64.2039 43.5373 64.1925C44.529 64.1811 45.544 64.1127 46.5823 63.9872C50.0706 63.5539 53.4189 62.4477 56.4755 60.8283C60.0804 58.9238 63.2887 56.3008 65.867 53.2103C69.0287 49.4127 71.2336 44.9195 72.0503 40.1754C72.2253 39.1262 72.342 38.077 72.377 37.005C72.4353 35.226 72.1086 32.3293 70.7553 28.9081Z" fill="#038E7D"/>
<path d="M70.0324 28.281C69.5891 26.7414 68.9824 25.3045 68.2241 23.9588C67.8274 23.2518 67.3724 22.5675 66.8824 21.9289C66.0541 20.8341 65.1091 19.8305 64.0591 18.941C61.8191 17.0251 59.1125 15.611 56.0792 14.8013C53.2442 14.0486 50.1176 13.8205 46.816 14.2311C46.3493 14.2881 45.8943 14.3565 45.4277 14.4364C42.3594 14.9838 39.4194 16.0329 36.7128 17.4927C33.1895 19.3858 30.0512 21.9745 27.5196 25.008C25.5129 27.4143 23.8913 30.1056 22.7713 32.9681C21.733 35.6024 21.1146 38.3737 21.0096 41.2019C20.9746 42.137 20.998 43.0608 21.068 43.9503C21.3363 47.0864 22.258 49.9489 23.7163 52.435C24.3113 53.4385 24.9879 54.3851 25.7346 55.2518C25.7929 55.3202 25.8629 55.3886 25.9213 55.4571L25.9329 55.4685C26.0029 55.5483 26.0613 55.6167 26.1313 55.6851C26.1546 55.708 26.1779 55.7422 26.2012 55.765C27.6946 57.3616 29.4562 58.6958 31.4512 59.7336C34.2978 61.2162 37.5995 62.0715 41.1811 62.1513C42.4177 62.1741 43.6894 62.1171 44.9843 61.9574C48.356 61.5355 51.5876 60.4977 54.5626 58.9581C58.1442 57.1107 61.3525 54.5675 63.9424 51.5568C67.1857 47.7935 69.4724 43.3002 70.3707 38.5447C70.5924 37.3701 70.7324 36.1841 70.779 34.9866C70.9074 32.6146 70.6274 30.3679 70.0324 28.281Z" fill="#00BEAA"/>
<path d="M45.1484 22.0884C53.6417 21.0279 60.2682 26.7641 59.9649 34.9067C59.6616 43.0493 52.5217 50.5076 44.0401 51.5682C35.5585 52.6287 28.9203 46.8925 29.2236 38.7499C29.5269 30.5959 36.6552 23.149 45.1484 22.0884Z" fill="white"/>
<path d="M44.9847 22.9097C52.9296 21.9175 59.1362 27.2889 58.8446 34.9068C58.5529 42.5248 51.8797 49.5041 43.9464 50.4963C36.0015 51.4885 29.7949 46.1171 30.0866 38.4991C30.3783 30.8812 37.0515 23.9018 44.9847 22.9097Z" fill="#00BEAA"/>
<path d="M44.8683 24.3921C51.9265 23.514 57.4331 28.2809 57.1765 35.0435C56.9198 41.8062 50.9932 48.0101 43.935 48.8882C36.8767 49.7663 31.3701 44.9994 31.6268 38.2367C31.8834 31.474 37.81 25.2702 44.8683 24.3921Z" fill="white"/>
<path d="M27.2748 29.1021C27.2981 29.1021 27.3098 29.1021 27.3331 29.1135C27.3565 29.1135 27.3681 29.1249 27.3915 29.1249C27.4148 29.1249 27.4265 29.1363 27.4498 29.1363C27.4731 29.1363 27.4848 29.1477 27.5081 29.1591C27.6364 29.2047 27.7414 29.2845 27.8231 29.3758C27.9048 29.467 27.9514 29.581 27.9864 29.7065C28.0098 29.8319 28.0098 29.9688 27.9864 30.117C27.9631 30.2653 27.9048 30.4135 27.8114 30.5618C27.7414 30.6872 27.6481 30.8013 27.5431 30.9039C27.4381 31.0065 27.3331 31.0864 27.2165 31.1548C27.0998 31.2232 26.9714 31.2688 26.8548 31.3031C26.7264 31.3373 26.6098 31.3487 26.4931 31.3373C26.4698 31.3373 26.4581 31.3373 26.4348 31.3259C26.4114 31.3259 26.3998 31.3145 26.3764 31.3145C26.3531 31.3145 26.3414 31.3031 26.3181 31.3031C26.2948 31.3031 26.2831 31.2916 26.2598 31.2802C26.1314 31.2346 26.0265 31.1548 25.9565 31.0636C25.8748 30.9723 25.8281 30.8583 25.8048 30.7328C25.7815 30.6074 25.7815 30.4706 25.8048 30.3223C25.8281 30.174 25.8865 30.0258 25.9798 29.8775C26.0498 29.7521 26.1431 29.638 26.2481 29.5354C26.3531 29.4328 26.4581 29.3529 26.5748 29.2845C26.6915 29.2161 26.8081 29.1705 26.9364 29.1363C27.0414 29.1021 27.1581 29.0907 27.2748 29.1021Z" fill="white"/>
<path d="M41.986 16.7171C42.091 16.7171 42.1843 16.7399 42.2777 16.7741C42.371 16.8083 42.441 16.8539 42.511 16.911C42.581 16.968 42.6393 17.0364 42.686 17.1162C42.7326 17.1961 42.756 17.2873 42.7793 17.3899C42.8026 17.5268 42.791 17.675 42.7443 17.8119C42.6976 17.9487 42.6393 18.097 42.546 18.2224C42.4527 18.3479 42.336 18.4733 42.2077 18.576C42.0793 18.6786 41.9277 18.7584 41.7643 18.8269C41.7177 18.8383 41.671 18.8611 41.636 18.8725C41.5893 18.8839 41.5427 18.8953 41.5077 18.8953C41.461 18.9067 41.426 18.9067 41.3793 18.9067C41.3327 18.9067 41.2977 18.9067 41.2627 18.9067C41.1577 18.9067 41.0643 18.8839 40.971 18.8497C40.8777 18.8155 40.8077 18.7698 40.7377 18.7128C40.6677 18.6558 40.6094 18.5874 40.5744 18.5075C40.5277 18.4277 40.5043 18.3365 40.4927 18.2338C40.4693 18.097 40.4927 17.9487 40.5277 17.8119C40.5743 17.675 40.6327 17.5268 40.726 17.4013C40.8193 17.2759 40.936 17.1505 41.0643 17.0478C41.1927 16.9452 41.3443 16.8653 41.496 16.7969C41.5427 16.7855 41.5893 16.7627 41.6243 16.7513C41.671 16.7399 41.706 16.7285 41.7527 16.7171C41.7993 16.7057 41.8343 16.7057 41.881 16.7057C41.9043 16.7171 41.9393 16.7171 41.986 16.7171Z" fill="white"/>
<path d="M29.3402 30.4819C29.3519 30.4819 29.3635 30.4819 29.3752 30.4819C29.3869 30.4819 29.3985 30.4819 29.3985 30.4819C29.4102 30.4819 29.4219 30.4819 29.4219 30.4933C29.4335 30.4933 29.4452 30.4933 29.4452 30.5047C29.5152 30.5276 29.5619 30.5618 29.6085 30.6188C29.6435 30.6644 29.6785 30.7214 29.6902 30.7898C29.7019 30.8583 29.7019 30.9267 29.6902 30.9951C29.6785 31.0635 29.6435 31.1434 29.6085 31.2232C29.5735 31.2916 29.5269 31.3486 29.4802 31.3943C29.4335 31.4399 29.3752 31.4855 29.3169 31.5197C29.2585 31.5539 29.2002 31.5767 29.1302 31.5995C29.0719 31.6109 29.0019 31.6223 28.9435 31.6109C28.9319 31.6109 28.9202 31.6109 28.9085 31.6109C28.8969 31.6109 28.8852 31.6109 28.8852 31.6109C28.8735 31.6109 28.8619 31.6109 28.8619 31.5995C28.8502 31.5995 28.8385 31.5881 28.8385 31.5881C28.7685 31.5653 28.7219 31.5311 28.6752 31.4741C28.6402 31.4285 28.6052 31.3715 28.5935 31.303C28.5819 31.2346 28.5819 31.1662 28.5935 31.0978C28.6052 31.0293 28.6402 30.9495 28.6752 30.8697C28.7102 30.8013 28.7569 30.7442 28.8035 30.6986C28.8502 30.653 28.9085 30.6074 28.9669 30.5732C29.0252 30.539 29.0835 30.5162 29.1535 30.4933C29.2119 30.4819 29.2819 30.4819 29.3402 30.4819Z" fill="white"/>
<path d="M42.1488 19.7278C42.1955 19.7278 42.2538 19.7392 42.2888 19.7506C42.3355 19.762 42.3705 19.7849 42.4055 19.8191C42.4405 19.8533 42.4638 19.8875 42.4872 19.9217C42.5105 19.9673 42.5222 20.0129 42.5338 20.0586C42.5455 20.127 42.5338 20.2068 42.5222 20.2752C42.4988 20.3437 42.4638 20.4235 42.4172 20.4805C42.3705 20.5489 42.3122 20.606 42.2422 20.663C42.1722 20.72 42.1022 20.7542 42.0205 20.7884C41.9972 20.7998 41.9738 20.7998 41.9505 20.8112C41.9272 20.8226 41.9038 20.8226 41.8805 20.8226C41.8572 20.8226 41.8338 20.834 41.8222 20.834C41.7988 20.834 41.7755 20.834 41.7638 20.834C41.7172 20.834 41.6589 20.8226 41.6239 20.7998C41.5772 20.7884 41.5422 20.7656 41.5072 20.7314C41.4722 20.6972 41.4488 20.663 41.4255 20.6288C41.4022 20.5831 41.3905 20.5375 41.3788 20.4919C41.3672 20.4235 41.3788 20.3437 41.4022 20.2752C41.4255 20.2068 41.4605 20.1384 41.5072 20.07C41.5539 20.0015 41.6122 19.9445 41.6705 19.8875C41.7405 19.8305 41.8105 19.7963 41.8922 19.762C41.9155 19.7506 41.9388 19.7506 41.9622 19.7392C41.9855 19.7278 42.0089 19.7278 42.0322 19.7278C42.0555 19.7278 42.0789 19.7164 42.0905 19.7164C42.1022 19.7164 42.1255 19.7164 42.1488 19.7278Z" fill="white"/>
<path d="M24.6731 46.6758C24.7547 46.6872 24.8247 46.71 24.8947 46.7442C24.9647 46.7784 25.0347 46.8126 25.093 46.8697C25.1514 46.9153 25.2097 46.9723 25.2447 47.0407C25.2914 47.1091 25.3264 47.1776 25.3497 47.2688C25.3964 47.4171 25.4081 47.5653 25.3964 47.725C25.3847 47.8846 25.338 48.0443 25.268 48.1925C25.198 48.3408 25.1047 48.489 24.9881 48.6145C24.8714 48.7399 24.7314 48.854 24.5797 48.9452C24.5097 48.9794 24.4514 49.0136 24.3814 49.0364C24.3114 49.0593 24.2531 49.0821 24.1831 49.0935C24.1131 49.1049 24.0547 49.1163 23.9964 49.1163C23.9381 49.1163 23.8681 49.1163 23.8097 49.1049C23.7281 49.0935 23.6581 49.0707 23.5881 49.0364C23.5181 49.0022 23.4481 48.968 23.3898 48.911C23.3314 48.8654 23.2847 48.797 23.2381 48.7399C23.1914 48.6715 23.1564 48.5917 23.1331 48.5119C23.0864 48.3636 23.0748 48.2154 23.0981 48.0557C23.1098 47.896 23.1564 47.7364 23.2264 47.5881C23.2964 47.4399 23.3898 47.2916 23.5064 47.1662C23.6231 47.0407 23.7631 46.9267 23.9147 46.8469C23.9847 46.8126 24.0431 46.7784 24.1131 46.7556C24.1831 46.7328 24.2414 46.71 24.3114 46.6986C24.3697 46.6872 24.4397 46.6758 24.4981 46.6758C24.5447 46.6644 24.6147 46.6644 24.6731 46.6758Z" fill="white"/>
<path d="M27.17 45.7407C27.205 45.7521 27.2516 45.7521 27.2866 45.7749C27.3216 45.7863 27.3567 45.8092 27.3917 45.832C27.4267 45.8548 27.45 45.889 27.4733 45.9232C27.4966 45.9574 27.52 45.9916 27.5316 46.0372C27.555 46.1057 27.5666 46.1855 27.555 46.2653C27.5433 46.3451 27.52 46.425 27.485 46.5048C27.45 46.5846 27.4033 46.6531 27.345 46.7215C27.2866 46.7899 27.2166 46.8469 27.135 46.8811C27.1 46.9039 27.065 46.9153 27.03 46.9268C26.995 46.9382 26.96 46.9496 26.9366 46.961C26.9016 46.9724 26.8666 46.9724 26.8433 46.9724C26.8083 46.9724 26.785 46.9724 26.75 46.9724C26.715 46.961 26.6683 46.961 26.6333 46.9382C26.5983 46.9153 26.5633 46.9039 26.5283 46.8811C26.4933 46.8583 26.47 46.8241 26.4467 46.7899C26.4233 46.7557 26.4 46.7215 26.3883 46.6759C26.365 46.6074 26.3533 46.5276 26.365 46.4478C26.3767 46.368 26.4 46.2881 26.435 46.2083C26.47 46.1285 26.5167 46.06 26.575 45.9916C26.6333 45.9232 26.7033 45.8662 26.7733 45.832C26.8083 45.8092 26.8433 45.7977 26.8667 45.7863C26.9017 45.7749 26.9366 45.7635 26.96 45.7521C26.995 45.7407 27.03 45.7407 27.0533 45.7407C27.1116 45.7407 27.1466 45.7407 27.17 45.7407Z" fill="white"/>
<path d="M57.3633 20.5376C57.3867 20.5376 57.41 20.5376 57.4333 20.549C57.4567 20.549 57.48 20.5604 57.5033 20.5604C57.5266 20.5718 57.55 20.5718 57.5616 20.5832C57.585 20.5946 57.5966 20.606 57.62 20.6174C57.69 20.6516 57.7367 20.7087 57.7717 20.7657C57.8067 20.8227 57.83 20.8911 57.83 20.9595C57.83 21.028 57.8183 21.1078 57.795 21.1876C57.7716 21.2675 57.725 21.3359 57.6667 21.4043C57.62 21.4499 57.5733 21.4955 57.5266 21.5412C57.48 21.5754 57.4217 21.6096 57.3633 21.6438C57.305 21.678 57.2467 21.6894 57.1883 21.7008C57.13 21.7122 57.0717 21.7122 57.0133 21.7122C56.99 21.7122 56.9667 21.7122 56.9433 21.7008C56.92 21.7008 56.8967 21.6894 56.885 21.6894C56.8617 21.678 56.8383 21.678 56.8267 21.6666C56.8033 21.6552 56.7917 21.6438 56.7683 21.6324C56.6983 21.5982 56.6517 21.5412 56.6167 21.4841C56.5817 21.4271 56.5583 21.3587 56.5583 21.2903C56.5583 21.2218 56.57 21.142 56.5933 21.0622C56.6167 20.9824 56.6633 20.9139 56.7217 20.8455C56.7683 20.7999 56.815 20.7543 56.8617 20.7087C56.9083 20.6744 56.9667 20.6402 57.025 20.6174C57.0833 20.5946 57.1417 20.5718 57.2 20.5604C57.2467 20.5376 57.305 20.5376 57.3633 20.5376Z" fill="white"/>
<path d="M59.6028 17.4812C59.6495 17.4812 59.6962 17.4812 59.7312 17.4926C59.7778 17.504 59.8128 17.504 59.8595 17.5154C59.9062 17.5268 59.9412 17.5382 59.9878 17.561C60.0228 17.5724 60.0695 17.5952 60.1045 17.618C60.2328 17.6978 60.3378 17.7891 60.4078 17.9145C60.4778 18.0286 60.5245 18.1654 60.5362 18.3023C60.5478 18.4391 60.5245 18.5988 60.4778 18.747C60.4195 18.8953 60.3378 19.0435 60.2212 19.1918C60.1395 19.2944 60.0462 19.3857 59.9412 19.4655C59.8362 19.5453 59.7312 19.6137 59.6145 19.6594C59.4978 19.7164 59.3812 19.7506 59.2645 19.7734C59.1478 19.7962 59.0312 19.8076 58.9145 19.8076C58.8679 19.8076 58.8212 19.7962 58.7862 19.7962C58.7395 19.7848 58.7045 19.7848 58.6579 19.7734C58.6112 19.762 58.5762 19.7506 58.5295 19.7278C58.4945 19.7164 58.4479 19.6936 58.4129 19.6708C58.2845 19.5909 58.1795 19.4883 58.1095 19.3743C58.0395 19.2602 57.9928 19.1234 57.9928 18.9751C57.9812 18.8383 58.0045 18.6786 58.0629 18.5303C58.1212 18.3821 58.2028 18.2338 58.3195 18.097C58.4012 17.9944 58.4945 17.9031 58.5995 17.8347C58.7045 17.7549 58.8095 17.6978 58.9262 17.6408C59.0428 17.5838 59.1595 17.5496 59.2762 17.5268C59.3695 17.4812 59.4978 17.4698 59.6028 17.4812Z" fill="white"/>
<path d="M38.3464 54.9781C38.428 54.9895 38.498 55.0238 38.568 55.0694C38.6263 55.115 38.6847 55.172 38.7197 55.2404C38.7547 55.3089 38.778 55.3887 38.778 55.4685C38.778 55.5483 38.778 55.6396 38.743 55.7308C38.7197 55.822 38.673 55.9019 38.6147 55.9817C38.5564 56.0501 38.4864 56.1185 38.4164 56.1642C38.3464 56.2098 38.2647 56.2554 38.183 56.2782C38.1014 56.301 38.0197 56.301 37.9263 56.2896C37.8447 56.2782 37.7747 56.244 37.7047 56.1984C37.6464 56.1528 37.588 56.0957 37.553 56.0273C37.518 55.9589 37.4947 55.8791 37.4947 55.7992C37.4947 55.7194 37.4947 55.6282 37.5297 55.5369C37.5647 55.4457 37.5997 55.3659 37.658 55.286C37.7164 55.2176 37.7864 55.1492 37.8564 55.1036C37.9264 55.058 38.008 55.0123 38.0897 54.9895C38.183 54.9667 38.2647 54.9553 38.3464 54.9781Z" fill="white"/>
<path d="M37.5296 57.5326C37.6929 57.5668 37.8446 57.6238 37.9729 57.715C38.1013 57.8063 38.1946 57.9317 38.2646 58.0686C38.3346 58.2054 38.3812 58.3651 38.3929 58.5361C38.4046 58.7072 38.3813 58.8897 38.3229 59.0721C38.2646 59.2546 38.1713 59.4257 38.0663 59.5739C37.9496 59.7222 37.8213 59.8476 37.6696 59.9503C37.5179 60.0529 37.3546 60.1213 37.1913 60.1669C37.028 60.2125 36.8529 60.2126 36.6779 60.1783C36.5146 60.1441 36.3629 60.0757 36.2346 59.9845C36.1063 59.8932 36.0129 59.7678 35.9429 59.6309C35.8729 59.4941 35.8263 59.3344 35.8263 59.1634C35.8146 58.9923 35.838 58.8098 35.8963 58.6274C35.9546 58.4449 36.0479 58.2738 36.1529 58.1256C36.2696 57.9773 36.398 57.8519 36.5496 57.7493C36.7013 57.6466 36.8529 57.5782 37.0279 57.5326C37.1913 57.5098 37.3663 57.4984 37.5296 57.5326Z" fill="white"/>
<path d="M64.036 33.6068C64.1177 33.6182 64.1877 33.6296 64.246 33.6638C64.3043 33.6981 64.3627 33.7323 64.4093 33.7779C64.456 33.8235 64.491 33.8805 64.5143 33.9489C64.5377 34.0174 64.5493 34.0858 64.5493 34.1542C64.5493 34.2454 64.526 34.3253 64.4793 34.4051C64.4443 34.4849 64.386 34.5648 64.3277 34.6218C64.2577 34.6902 64.1877 34.7472 64.106 34.7814C64.0243 34.8271 63.931 34.8499 63.8377 34.8613C63.826 34.8613 63.8143 34.8613 63.8027 34.8613C63.791 34.8613 63.7793 34.8613 63.7677 34.8613C63.756 34.8613 63.7443 34.8613 63.7327 34.8613C63.721 34.8613 63.7093 34.8613 63.6977 34.8613C63.616 34.8499 63.546 34.8385 63.4877 34.8043C63.4293 34.77 63.371 34.7358 63.3243 34.6902C63.2777 34.6446 63.2427 34.5876 63.2193 34.5192C63.196 34.4507 63.1843 34.3823 63.1843 34.3139C63.1843 34.2226 63.2077 34.1428 63.2543 34.063C63.2893 33.9832 63.3477 33.9033 63.406 33.8463C63.476 33.7779 63.546 33.7209 63.6277 33.6867C63.7093 33.641 63.8027 33.6182 63.896 33.6068C63.9077 33.6068 63.9193 33.6068 63.931 33.6068C63.9427 33.6068 63.9543 33.6068 63.966 33.6068C63.9777 33.6068 63.9893 33.6068 64.001 33.6068C64.0127 33.5954 64.0243 33.5954 64.036 33.6068Z" fill="white"/>
<path d="M67.5941 32.5461C67.7458 32.5575 67.8974 32.5918 68.0257 32.6602C68.1541 32.7172 68.2708 32.797 68.3641 32.8997C68.4574 33.0023 68.5274 33.1163 68.5857 33.2418C68.6324 33.3672 68.6557 33.5155 68.6557 33.6637C68.6557 33.8462 68.6091 34.0173 68.5274 34.1769C68.4574 34.3366 68.3407 34.4848 68.2124 34.6217C68.0841 34.7585 67.9208 34.8612 67.7574 34.9524C67.5824 35.0322 67.3958 35.1007 67.2091 35.1235C67.1858 35.1235 67.1508 35.1235 67.1274 35.1349C67.1041 35.1349 67.0691 35.1349 67.0458 35.1349C67.0224 35.1349 66.9991 35.1349 66.9641 35.1349C66.9408 35.1349 66.9174 35.1349 66.8941 35.1349C66.7424 35.1235 66.5908 35.0779 66.4624 35.0208C66.3341 34.9638 66.2175 34.884 66.1241 34.7814C66.0308 34.6787 65.9608 34.5647 65.9141 34.4392C65.8675 34.3138 65.8441 34.1655 65.8441 34.0173C65.8558 33.8462 65.8908 33.6751 65.9725 33.5041C66.0425 33.3444 66.1591 33.1962 66.2874 33.0593C66.4158 32.9339 66.5674 32.8198 66.7424 32.7286C66.9058 32.6488 67.0924 32.5804 67.2908 32.5575C67.3141 32.5575 67.3491 32.5461 67.3724 32.5461C67.3958 32.5461 67.4191 32.5461 67.4541 32.5461C67.4774 32.5461 67.5008 32.5461 67.5358 32.5461C67.5358 32.5461 67.5591 32.5461 67.5941 32.5461Z" fill="white"/>
<path d="M55.4963 49.7207C55.5313 49.7207 55.5663 49.7321 55.6013 49.7435C55.6363 49.7549 55.6713 49.7663 55.6946 49.7891C55.7296 49.8119 55.753 49.8233 55.788 49.8462C55.8113 49.869 55.8463 49.8918 55.8696 49.926C55.928 49.9944 55.963 50.0742 55.9747 50.1541C55.998 50.2339 55.998 50.3251 55.9747 50.4164C55.963 50.5076 55.928 50.5874 55.8813 50.6673C55.8346 50.7471 55.7646 50.8269 55.6946 50.8839C55.648 50.9181 55.6013 50.9524 55.5546 50.9752C55.508 50.998 55.4496 51.0208 55.403 51.0322C55.3563 51.0436 55.298 51.055 55.2513 51.055C55.2046 51.055 55.1463 51.055 55.0997 51.055C55.0647 51.055 55.0296 51.0436 54.9946 51.0322C54.9596 51.0208 54.9246 51.0094 54.9013 50.9866C54.8663 50.9638 54.843 50.9524 54.808 50.9295C54.7847 50.9067 54.7496 50.8839 54.7263 50.8497C54.668 50.7813 54.633 50.7015 54.6213 50.6216C54.598 50.5418 54.598 50.4506 54.6213 50.3593C54.633 50.2681 54.668 50.1883 54.7147 50.1085C54.7613 50.0286 54.8196 49.9488 54.9013 49.8918C54.948 49.8576 54.9947 49.8233 55.0413 49.8005C55.088 49.7777 55.1346 49.7549 55.193 49.7435C55.2396 49.7321 55.298 49.7207 55.3446 49.7207C55.3913 49.7093 55.438 49.7093 55.4963 49.7207Z" fill="white"/>
<path d="M57.6428 51.4655C57.7128 51.477 57.7944 51.4884 57.8528 51.5112C57.9228 51.534 57.9928 51.5682 58.0511 51.6024C58.1211 51.6366 58.1794 51.6822 58.2378 51.7278C58.2961 51.7735 58.3428 51.8305 58.4011 51.8875C58.5178 52.0244 58.5878 52.184 58.6344 52.3551C58.6694 52.5261 58.6811 52.7086 58.6461 52.8797C58.6111 53.0621 58.5528 53.2332 58.4594 53.4043C58.3661 53.5639 58.2378 53.7236 58.0744 53.849C57.9811 53.9288 57.8878 53.9859 57.7828 54.0429C57.6778 54.0999 57.5844 54.1341 57.4794 54.1683C57.3744 54.2025 57.2695 54.2139 57.1645 54.2254C57.0595 54.2368 56.9544 54.2254 56.8611 54.214C56.7911 54.2025 56.7095 54.1797 56.6395 54.1569C56.5695 54.1341 56.4995 54.0999 56.4411 54.0657C56.3828 54.0315 56.3128 53.9859 56.2545 53.9403C56.1961 53.8946 56.1495 53.8376 56.1028 53.7806C55.9861 53.6437 55.9161 53.4841 55.8811 53.313C55.8461 53.142 55.8345 52.9709 55.8695 52.7884C55.9045 52.6174 55.9628 52.4349 56.0561 52.2752C56.1495 52.1156 56.2778 51.9559 56.4411 51.8305C56.5345 51.7507 56.6278 51.6936 56.7211 51.6366C56.8145 51.5796 56.9195 51.5454 57.0245 51.5112C57.1295 51.477 57.2344 51.4656 57.3278 51.4541C57.4444 51.4427 57.5378 51.4427 57.6428 51.4655Z" fill="white"/>
<path d="M72.0394 40.1641C71.2228 44.9083 69.0178 49.4015 65.8562 53.1991L63.9895 51.5797L63.9778 51.5683L70.4178 38.5562L72.0394 40.1641Z" fill="#C9C9C9"/>
<path d="M70.032 28.2811L67.337 24.6203L64.537 20.8228L66.8704 21.929C67.3603 22.579 67.8037 23.2518 68.212 23.9589C69.3087 25.6809 70.137 27.3459 70.7436 28.8969L70.032 28.2811Z" fill="#C9C9C9"/>
<path d="M56.4638 60.817C53.4072 62.4364 50.0589 63.5426 46.5706 63.976C45.544 64.1014 44.5173 64.1698 43.5256 64.1812L41.2157 62.1855L54.5855 58.981L54.5972 58.9924L56.4638 60.817Z" fill="#C9C9C9"/>
<path d="M33.6213 61.8662C31.2063 60.5091 28.6047 58.4336 26.2364 55.7878C26.0731 55.6167 25.9214 55.4457 25.7581 55.2632L25.5947 54.9895L26.2481 55.5141L31.4863 59.7564L33.6213 61.8662Z" fill="#C9C9C9"/>
<path fill-rule="evenodd" clip-rule="evenodd" d="M51.5993 31.9988C51.4943 31.2917 51.1909 30.6645 50.6893 30.1513C50.1643 29.6153 49.4876 29.2276 48.6126 28.9767C48.111 28.8284 47.5627 28.7486 46.9443 28.703C46.5477 28.6688 41.3677 28.224 41.2861 28.224C41.1927 28.224 41.1227 28.2354 41.0527 28.2696C40.8427 28.3609 40.6911 28.5319 40.5861 28.8512C40.3761 29.4899 36.1761 42.3309 36.1761 42.3309C36.1528 42.3879 36.1528 42.445 36.1411 42.4906C36.1178 42.7643 36.1995 42.8555 36.4911 42.9011C36.4911 42.9011 38.0894 43.152 38.7544 43.2547C38.8128 43.2661 38.8594 43.2661 38.9178 43.2661C39.1744 43.2661 39.3494 43.152 39.4778 42.8669C39.5128 42.7757 40.6794 39.0921 40.6794 39.0921C40.7844 38.7728 41.0994 38.4193 41.5544 38.4193C41.6011 38.4193 43.1294 38.6132 43.456 38.6588C43.8527 38.7158 44.121 38.9895 44.1794 39.4001C44.191 39.4913 44.786 43.1064 44.8794 43.6424C44.9494 44.0187 45.101 44.1898 45.3927 44.2468C45.451 44.2582 48.111 44.6802 48.1577 44.6802C48.356 44.6802 48.4726 44.6003 48.5193 44.4521C48.5426 44.3495 48.5543 44.2354 48.5426 44.1556C48.496 43.8705 47.7493 39.3202 47.6676 38.8527C47.6093 38.5333 47.761 38.2368 48.041 38.0886C48.111 38.0544 48.2976 37.9631 48.3443 37.9403C49.3826 37.45 50.1643 36.8113 50.7126 35.9902C51.3076 35.1007 51.6226 34.0401 51.6693 32.6944C51.6693 32.7286 51.6693 32.3181 51.5993 31.9988ZM48.111 33.4927C48.0643 34.1656 47.8193 34.77 47.376 35.306C47.0493 35.7051 46.5943 35.956 46.0343 36.07C45.8477 36.1043 45.416 36.1841 45.171 36.1727C45.171 36.1727 42.8844 35.9104 42.651 35.8876C42.3944 35.8648 42.1961 35.7621 42.0794 35.5911C41.9627 35.4314 41.9394 35.2147 42.0094 34.9867C42.0094 34.9867 42.7794 32.5348 42.9661 31.9646C43.0711 31.6224 43.421 31.2917 43.8877 31.2917C43.9227 31.2917 45.7077 31.4628 46.0343 31.5084C46.4893 31.5654 47.166 31.6909 47.6676 32.2269C47.9826 32.569 48.1343 32.9909 48.111 33.4927Z" fill="#00BEAA"/>
<path d="M70.0325 28.281C63.1609 29.0451 62.6242 26.787 62.0409 25.7036C61.5509 24.8027 61.1426 23.4342 64.0592 18.9524C66.8825 21.3587 68.9708 24.5518 70.0325 28.281Z" fill="white"/>
<path d="M70.4057 38.5562C69.5074 43.3117 67.2208 47.8049 63.9775 51.5797L63.9658 51.5683C61.8892 48.8199 60.2442 46.7215 62.0292 42.9924C63.7908 39.3088 68.2474 38.9439 70.4057 38.5562Z" fill="white"/>
<path d="M54.5981 58.981C51.6232 60.5092 48.3799 61.5584 45.0083 61.9803C43.7133 62.14 42.4416 62.2084 41.205 62.1742C41.8933 60.4522 43.3516 56.6204 46.5599 55.594C50.9115 54.2027 52.0898 56.5747 54.5981 58.981C54.5981 58.981 54.5865 58.9696 54.5981 58.981Z" fill="white"/>
<path d="M31.4866 59.7565C28.2316 58.0687 25.56 55.5598 23.7401 52.4464C27.59 50.5761 29.5966 50.8042 31.3 52.6631C33.0033 54.5334 31.8833 57.373 31.4866 59.7565Z" fill="white"/>
<path d="M26.0611 38.2938C25.4311 41.5211 22.9928 42.673 21.0912 43.973C21.0212 43.0721 20.9979 42.1598 21.0329 41.2246C21.1379 38.3964 21.7562 35.6252 22.7945 32.9908C25.1861 34.3137 26.7028 35.055 26.0611 38.2938Z" fill="white"/>
<path d="M36.7253 17.5042C36.6553 19.6595 36.9703 21.5754 34.637 23.7764C31.9654 26.2853 29.4454 25.3958 27.5438 25.0195C30.0637 21.986 33.202 19.3972 36.7253 17.5042Z" fill="white"/>
<path d="M56.0794 14.8013C53.8394 17.3444 52.2761 18.5647 49.4178 18.4734C46.5712 18.3822 46.0578 16.8654 45.4279 14.4364C45.8829 14.3565 46.3495 14.2881 46.8162 14.2311C50.1178 13.8205 53.2444 14.0486 56.0794 14.8013Z" fill="white"/>
<path d="M211.613 30.3508C207.666 30.3508 204.528 33.3613 204.528 37.4769C204.528 41.764 207.647 44.7364 211.613 44.7364C215.579 44.7364 218.697 41.764 218.697 37.4769C218.697 33.3613 215.559 30.3508 211.613 30.3508ZM211.613 41.402C209.476 41.402 207.84 39.8396 207.801 37.515C207.859 35.1333 209.514 33.6471 211.613 33.6471C213.711 33.6471 215.367 35.1333 215.425 37.515C215.386 39.8396 213.75 41.402 211.613 41.402Z" fill="#00BEAA"/>
<path d="M200.658 44.7385H190.589C190.243 44.7385 189.954 44.4527 189.954 44.1097V41.7852C189.954 38.6794 190.647 37.841 195.017 36.9265C197.578 36.3929 197.674 36.2786 197.674 34.9449C197.674 33.5158 197.173 33.3253 195.633 33.3253C193.881 33.3253 193.573 33.4777 193.573 35.002V35.0401C193.573 35.3831 193.284 35.6689 192.938 35.6689H190.589C190.243 35.6689 189.954 35.3831 189.954 35.0401V34.983C189.954 31.115 191.975 30.3719 195.633 30.3719C199.021 30.3719 201.293 30.8674 201.293 34.8686C201.293 38.0697 200.35 38.6794 197.347 39.4797C194.921 40.1275 193.92 39.956 193.65 40.9849C193.554 41.385 193.862 41.7661 194.286 41.7661H200.658C201.004 41.7661 201.293 42.0519 201.293 42.3949V44.0907C201.312 44.4527 201.024 44.7385 200.658 44.7385Z" fill="#00BEAA"/>
<path d="M204.566 41.7842H202.93C202.525 41.7842 202.256 41.9557 202.256 42.5082V42.9655V43.5562V44.0135C202.256 44.566 202.525 44.7375 202.93 44.7375H204.566C204.97 44.7375 205.24 44.566 205.24 44.0135V43.5562V42.9846V42.5273C205.24 41.9557 204.97 41.7842 204.566 41.7842Z" fill="#00BEAA"/>
<path fill-rule="evenodd" clip-rule="evenodd" d="M175.297 29.7031C170.851 29.7031 167.306 33.0906 167.306 37.7336C167.306 42.5663 170.815 45.9154 175.297 45.9154C179.78 45.9154 183.286 42.5666 183.286 37.7336C183.286 33.0906 179.742 29.7031 175.297 29.7031ZM84.7789 30.2176H90.1805C93.6503 30.2176 96.2942 32.1205 96.2945 35.7739C96.2945 38.9894 93.6503 40.9686 89.9374 40.9686H87.8731V44.3177C87.8731 45.0606 87.517 45.2889 86.9729 45.2889H84.7789C84.2339 45.2889 83.8784 45.0606 83.8784 44.3177V31.1885C83.8784 30.4453 84.2339 30.2176 84.7789 30.2176ZM87.8732 37.7714H90.0678C91.8121 37.7714 92.3937 36.8578 92.3937 35.5639C92.337 34.3846 91.4746 33.661 90.0486 33.661H87.8732V37.7714ZM171.003 37.7901C171.041 40.3959 172.897 42.1661 175.298 42.1661C177.699 42.1661 179.556 40.3956 179.593 37.7901C179.536 35.1056 177.66 33.4317 175.298 33.4317C172.935 33.4317 171.058 35.106 171.003 37.7901ZM106.012 31.054C105.674 30.3307 105.486 30.1784 104.736 30.1784H103.16C102.411 30.1784 102.223 30.331 101.885 31.054L96.3701 44.1081C96.0137 44.9447 96.1264 45.288 96.839 45.288H99.1089C99.7282 45.288 99.8589 45.0597 100.047 44.6214L100.74 42.7955H107.155L107.849 44.6214C108.038 45.0597 108.169 45.288 108.788 45.288H111.057C111.769 45.288 111.882 44.9447 111.526 44.1081L106.012 31.054ZM103.946 34.2889L101.902 39.6742H105.972L103.946 34.2889ZM144.968 30.2176H143.6C143.131 30.2366 142.867 30.2749 142.474 30.7506L136.133 38.9137V31.1885C136.133 30.4453 135.778 30.2176 135.233 30.2176H133.038C132.496 30.2176 132.139 30.4453 132.139 31.1885V44.3177C132.139 45.0783 132.496 45.2889 133.038 45.2889H134.408C134.877 45.2696 135.14 45.2316 135.534 44.7546L141.873 36.6105V44.3177C141.873 45.0606 142.228 45.2889 142.775 45.2889H144.968C145.513 45.2889 145.869 45.0606 145.869 44.3177V31.1885C145.869 30.4266 145.513 30.2176 144.968 30.2176ZM163.369 41.7878H164.364C164.965 41.7495 165.208 42.1485 165.227 42.7571V47.9714C165.227 48.713 164.87 48.942 164.327 48.942H162.582C162.039 48.942 161.681 48.713 161.681 47.9714V45.2889H151.983V47.9714C151.983 48.713 151.629 48.942 151.084 48.942H149.339C148.796 48.942 148.438 48.713 148.438 47.9714V42.7571C148.458 42.1485 148.703 41.7492 149.303 41.7878H150.109C151.759 38.8754 152.115 34.2897 152.115 31.1885C152.115 30.4266 152.473 30.2176 153.016 30.2176H162.469C163.013 30.2176 163.369 30.4266 163.369 31.1885V41.7878ZM159.374 41.7867H154.047C154.872 39.7882 155.34 36.8387 155.51 33.6989H159.374V41.7867ZM114.901 30.2176H126.83C127.375 30.2176 127.731 30.4453 127.731 31.1885V44.3177C127.731 45.0606 127.375 45.2889 126.83 45.2889H124.635C124.092 45.2889 123.735 45.0606 123.735 44.3177V33.7194H117.996V44.3177C117.996 45.0606 117.639 45.2889 117.096 45.2889H114.901C114.356 45.2889 114.001 45.0606 114.001 44.3177V31.1885C114.001 30.4453 114.356 30.2176 114.901 30.2176Z" fill="white"/>
</svg>
