<svg width="150" height="71" viewBox="0 0 150 71" fill="none" xmlns="http://www.w3.org/2000/svg">
<path fill-rule="evenodd" clip-rule="evenodd" d="M114.055 69.561C106.625 70.0347 98.1639 66.9314 94.6822 64.7412C83.1741 57.5023 81.1569 40.2362 87.2683 37.3527C93.3796 34.4693 96.2484 53.4446 114.055 69.561" fill="#33A7DA"/>
<path fill-rule="evenodd" clip-rule="evenodd" d="M99.4579 54.1813C91.1544 56.5946 82.7054 50.4402 84.5013 42.5293C86.297 34.618 92.4032 41.3998 99.4579 54.1813" fill="white" fill-opacity="0.44"/>
<path fill-rule="evenodd" clip-rule="evenodd" d="M86.1925 17.2431C89.6714 10.6606 96.6986 4.98509 100.426 3.24507C111.111 -1.74367 128.387 4.51982 127.651 11.2371C126.916 17.9545 109.239 10.484 86.1925 17.2431" fill="#33A7DA"/>
<path fill-rule="evenodd" clip-rule="evenodd" d="M106.933 12.8349C109.215 4.49444 118.878 0.507285 124.684 6.17254C130.491 11.8378 121.517 13.4998 106.933 12.8349" fill="white" fill-opacity="0.44"/>
<mask id="mask0" mask-type="alpha" maskUnits="userSpaceOnUse" x="127" y="20" width="23" height="41">
<path fill-rule="evenodd" clip-rule="evenodd" d="M127.289 20.416H149.141V60.038H127.289V20.416Z" fill="white"/>
</mask>
<g mask="url(#mask0)">
<path fill-rule="evenodd" clip-rule="evenodd" d="M144.189 20.416C148.112 26.7435 149.461 35.6753 149.08 39.7709C147.987 51.5129 133.855 63.258 128.429 59.2302C123.003 55.2021 138.38 43.7199 144.189 20.416" fill="#33A7DA"/>
</g>
<path fill-rule="evenodd" clip-rule="evenodd" d="M137.516 40.5425C143.561 46.7251 142.121 57.0781 134.299 59.2276C126.477 61.3768 129.575 52.7935 137.516 40.5425" fill="white" fill-opacity="0.44"/>
<path fill-rule="evenodd" clip-rule="evenodd" d="M80.4598 45.4157C80.5025 45.5667 80.5462 45.7198 80.5944 45.8716C80.6231 45.9628 80.6493 46.0556 80.6778 46.1479C81.6695 49.3223 83.1084 52.3392 84.9435 55.1086C84.9968 55.1904 85.051 55.2721 85.1059 55.3504C85.1945 55.4832 85.2826 55.6126 85.3707 55.7402C85.5013 55.9272 85.6343 56.1127 85.7649 56.2969C85.7857 56.3233 85.8058 56.3494 85.824 56.3766C86.3475 57.0933 86.8896 57.8086 87.4881 58.4818C89.1452 60.3401 91.1586 62.476 94.6721 64.7374C86.8233 59.4413 84.5941 50.6634 84.5014 47.2581C84.3759 42.6613 86.3155 40.8897 87.8459 41.6728C89.5656 42.483 90.928 45.3706 92.7851 48.6261C96.2635 54.7223 99.9857 61.0531 105.627 65.4069C107.226 66.6426 108.962 67.7185 110.82 68.521C112.873 69.4011 115.311 69.9666 117.55 70.0002C120.677 70.0453 123.702 69.5495 126.637 68.4401C128.834 67.6092 130.934 66.5375 132.938 65.3106C134.388 64.4203 135.775 63.4217 137.066 62.3134C137.755 61.7235 138.413 61.1131 139.048 60.4831C139.065 60.4686 139.08 60.4518 139.094 60.4373C139.264 60.2681 139.43 60.0952 139.596 59.9227C139.698 59.8174 139.798 59.7106 139.899 59.6028C139.973 59.5248 140.047 59.4456 140.12 59.3642C140.289 59.1834 140.455 58.9976 140.617 58.8125C140.62 58.809 140.621 58.809 140.622 58.8074C142.649 56.4974 144.369 53.9308 145.737 51.1801C145.784 51.0894 145.827 50.9997 145.869 50.9102C145.939 50.7702 146.007 50.6288 146.074 50.4863C146.166 50.2839 146.264 50.0754 146.354 49.8689C146.368 49.8373 146.383 49.8065 146.398 49.7733C146.756 48.96 147.119 48.1382 147.388 47.2759C148.604 43.3936 148.872 41.9172 149.08 39.771C147.778 48.3169 141.802 54.0074 139.204 55.5944C135.313 58.0448 132.757 57.1243 132.672 55.4023C132.517 53.5057 134.336 50.8772 136.228 47.6308C139.769 41.5513 143.388 35.1496 144.345 28.0713C144.616 26.0642 144.683 24.0185 144.451 22.0025C144.193 19.7831 143.465 17.3874 142.38 15.4268C140.863 12.691 138.925 10.3153 136.507 8.32993C134.692 6.84041 132.722 5.55677 130.662 4.43508C129.167 3.62489 127.613 2.92476 126.013 2.35901C125.164 2.05895 124.307 1.79419 123.448 1.56214C123.419 1.55466 123.389 1.54601 123.358 1.5383C123.136 1.47848 122.916 1.42169 122.692 1.36818C122.542 1.33055 122.392 1.2948 122.241 1.26092C122.144 1.23801 122.046 1.21394 121.949 1.19338C118.957 0.530178 115.89 0.259336 112.827 0.387863C112.818 0.388564 112.809 0.389733 112.799 0.389733C112.558 0.399781 112.319 0.414036 112.078 0.428525C111.961 0.435535 111.847 0.444649 111.732 0.453296C111.592 0.464045 111.454 0.473393 111.314 0.486245C111.068 0.508212 110.822 0.531113 110.578 0.556118C110.564 0.56009 110.549 0.560791 110.535 0.562193C109.647 0.659407 108.738 0.77812 107.779 0.978389C102.924 1.99119 101.664 2.71865 100.426 3.24491C105.209 1.07771 113.434 0.926043 119.135 3.88101C123.213 5.99353 123.672 8.70219 122.224 9.64044C120.661 10.7269 117.482 10.4686 113.733 10.4593C106.71 10.4399 99.3699 10.5135 92.7722 13.238C90.9006 14.0108 89.0956 14.9783 87.4706 16.1923C85.6773 17.5292 83.9683 19.3639 82.8132 21.2904C81.2033 23.9776 80.1148 26.8493 79.601 29.9452C79.2163 32.2648 79.0878 34.6199 79.1441 36.9691C79.185 38.6687 79.3544 40.3693 79.6626 42.0418C79.8272 42.9302 80.0239 43.804 80.2501 44.6619C80.2592 44.6957 80.2688 44.7306 80.2784 44.7649C80.3366 44.9841 80.3971 45.1993 80.4598 45.4157" fill="#E1001A"/>
<mask id="mask1" mask-type="alpha" maskUnits="userSpaceOnUse" x="79" y="0" width="71" height="71">
<path fill-rule="evenodd" clip-rule="evenodd" d="M112.827 0.388014C112.817 0.388715 112.809 0.38965 112.799 0.38965V0.38965C112.558 0.399698 112.319 0.413953 112.078 0.428675V0.428675C111.961 0.435219 111.847 0.444566 111.732 0.453212V0.453212C111.592 0.463962 111.454 0.473076 111.314 0.486162V0.486162C111.068 0.508129 110.822 0.53103 110.578 0.556034V0.556034C110.564 0.560007 110.549 0.560708 110.535 0.561877V0.561877C109.647 0.659324 108.738 0.778036 107.779 0.978306V0.978306C103.364 1.89926 101.922 2.58443 100.765 3.09691V3.09691C105.591 1.07248 113.566 0.994897 119.135 3.88092V3.88092C123.213 5.99345 123.672 8.70211 122.224 9.64059V9.64059C120.661 10.7268 117.482 10.4685 113.733 10.4592V10.4592C106.71 10.44 99.3699 10.5134 92.7722 13.238V13.238C90.9004 14.011 89.0956 14.9782 87.4706 16.1922V16.1922C85.6773 17.5291 83.9681 19.3638 82.8134 21.2903V21.2903C81.2033 23.9775 80.1151 26.8493 79.601 29.9451V29.9451C79.2163 32.2645 79.0878 34.6198 79.1441 36.9693V36.9693C79.185 38.6687 79.3542 40.3692 79.6626 42.0419V42.0419C79.8272 42.9302 80.0239 43.8039 80.2499 44.662V44.662C80.2592 44.6957 80.2688 44.7305 80.2784 44.7648V44.7648C80.3364 44.9843 80.3971 45.1993 80.4598 45.4156V45.4156C80.5023 45.5668 80.5462 45.7197 80.5946 45.8718V45.8718C80.6231 45.9627 80.6493 46.0555 80.6778 46.1476V46.1476C81.6693 49.3222 83.1084 52.3391 84.9435 55.1085V55.1085C84.9968 55.1903 85.0512 55.2721 85.1059 55.3504V55.3504C85.1945 55.4831 85.2826 55.6126 85.3707 55.7401V55.7401C85.5015 55.9273 85.634 56.1126 85.7649 56.2968V56.2968C85.7857 56.3232 85.8058 56.3494 85.824 56.3765V56.3765C86.3475 57.0932 86.8896 57.8085 87.4881 58.4818V58.4818C89.1452 60.34 91.1588 62.4759 94.6721 64.7373V64.7373C86.8235 59.4413 84.5944 50.6633 84.5014 47.258V47.258C84.3759 42.6612 86.3155 40.8896 87.8461 41.6727V41.6727C89.5656 42.4829 90.928 45.3705 92.7851 48.626V48.626C96.2635 54.7224 99.9857 61.053 105.627 65.4068V65.4068C107.226 66.6426 108.962 67.7184 110.82 68.5209V68.5209C112.873 69.401 115.311 69.9663 117.55 70.0002V70.0002C120.677 70.0455 123.702 69.5496 126.637 68.4401V68.4401C128.834 67.6091 130.934 66.5374 132.938 65.3105V65.3105C134.388 64.4202 135.775 63.4216 137.067 62.313V62.313C137.755 61.7237 138.413 61.1131 139.048 60.483V60.483C139.065 60.4686 139.08 60.4517 139.094 60.4372V60.4372C139.264 60.268 139.43 60.0954 139.596 59.9227V59.9227C139.698 59.8173 139.798 59.7105 139.899 59.6027V59.6027C139.973 59.5247 140.047 59.4455 140.12 59.3642V59.3642C140.289 59.1833 140.455 58.9975 140.617 58.8124V58.8124C140.62 58.8089 140.621 58.8089 140.622 58.8073V58.8073C142.649 56.4973 144.369 53.9309 145.737 51.18V51.18C145.784 51.0895 145.827 50.9996 145.869 50.9101V50.9101C145.939 50.7703 146.007 50.6287 146.074 50.4864V50.4864C146.166 50.2838 146.264 50.0756 146.354 49.8688V49.8688C146.368 49.8372 146.383 49.8064 146.398 49.7734V49.7734C146.756 48.96 147.119 48.1381 147.388 47.2758V47.2758C148.605 43.3936 148.872 41.9171 149.08 39.7707V39.7707C147.778 48.3169 141.802 54.0074 139.204 55.5943V55.5943C135.313 58.0448 132.757 57.1243 132.672 55.4022V55.4022C132.517 53.5056 134.336 50.8771 136.228 47.6308V47.6308C139.769 41.5512 143.388 35.1498 144.345 28.0712V28.0712C144.616 26.0643 144.683 24.0181 144.451 22.0024V22.0024C144.193 19.7833 143.465 17.3871 142.38 15.4267V15.4267C140.863 12.6909 138.925 10.3152 136.507 8.32985V8.32985C134.692 6.84033 132.722 5.55646 130.662 4.435V4.435C129.167 3.6248 127.613 2.92468 126.013 2.35893V2.35893C125.164 2.05887 124.307 1.7941 123.448 1.56205V1.56205C123.419 1.55434 123.389 1.54593 123.358 1.53822V1.53822C123.136 1.47839 122.916 1.42161 122.692 1.36809V1.36809C122.542 1.33047 122.392 1.29495 122.241 1.26083V1.26083C122.144 1.23793 122.046 1.21363 121.949 1.1933V1.1933C119.439 0.637124 116.877 0.356934 114.309 0.356934V0.356934C113.815 0.356934 113.321 0.367216 112.827 0.388014M100.426 3.24515C100.538 3.19724 100.65 3.14793 100.766 3.09699V3.09699C100.65 3.14513 100.537 3.19444 100.426 3.24515" fill="white"/>
</mask>
<g mask="url(#mask1)">
<path fill-rule="evenodd" clip-rule="evenodd" d="M116.703 73.7803C84.2881 73.7803 71.8228 48.3047 81.1605 24.5491C90.1046 60.6314 137.811 54.3794 143.393 32.521C153.645 42.4065 149.117 73.7803 116.703 73.7803" fill="#872D2D" fill-opacity="0.5"/>
</g>
<path fill-rule="evenodd" clip-rule="evenodd" d="M104.18 33.2198L115.167 24.2032C112.784 24.2032 107.379 24.207 102.692 24.207L102.679 17.0015H127.06V21.8306L115.489 30.5854C125.407 30.739 129.39 35.8873 129.39 42.5644C129.39 49.8989 124.116 56.7387 113.238 56.7387C108.584 56.7387 103.938 55.3744 102.634 54.7563V46.6392C105.625 48.4909 109.88 49.2525 112.835 49.2525C117.913 49.2525 121.115 46.8642 121.115 42.8448C121.115 38.0793 117.22 36.7038 112.457 36.7038C110.414 36.7038 108.606 36.9489 106.607 37.3728L104.18 33.2198Z" fill="white"/>
<path fill-rule="evenodd" clip-rule="evenodd" d="M49.3596 47.1622H56.4391L56.4228 29.2239L63.0885 29.244L63.0721 47.1451L70.1346 47.1575V22.7908L49.3596 22.7828V47.1622Z" fill="white"/>
<path fill-rule="evenodd" clip-rule="evenodd" d="M0.00817902 29.2417L6.37683 29.2461L6.36094 47.1848H13.4265L13.4349 29.2543L19.8341 29.2578V22.8094H0L0.00817902 29.2417Z" fill="white"/>
<path fill-rule="evenodd" clip-rule="evenodd" d="M33.9982 41.1532C31.1 41.1532 28.3107 39.09 28.3107 35.1963C28.3107 31.5211 31.0093 29.214 33.9907 29.214C37.3348 29.214 39.6714 31.6022 39.6714 35.1973C39.6714 38.514 37.2429 41.1532 33.9982 41.1532M33.9818 22.6144C30.257 22.6186 27.0385 23.9525 24.7612 26.1769C22.493 28.4168 21.1669 31.5737 21.1669 35.1963C21.1842 38.8154 22.493 41.9774 24.7612 44.2121C27.0333 46.4357 30.2493 47.734 33.9818 47.734L34.0156 47.7455C37.7236 47.7259 40.9489 46.4357 43.2161 44.2035C45.4943 41.9774 46.7953 38.825 46.7913 35.2024C46.8046 31.5812 45.4843 28.425 43.2243 26.1769C40.9297 23.9382 37.7313 22.6223 33.9818 22.6144" fill="white"/>
</svg>
